<?xml version="1.0" encoding="utf-8" standalone="no"?>
<!DOCTYPE svg PUBLIC "-//W3C//DTD SVG 1.1//EN"
  "http://www.w3.org/Graphics/SVG/1.1/DTD/svg11.dtd">
<svg xmlns:xlink="http://www.w3.org/1999/xlink" width="492.742815pt" height="299.473745pt" viewBox="0 0 492.742815 299.473745" xmlns="http://www.w3.org/2000/svg" version="1.1">
 <metadata>
  <rdf:RDF xmlns:dc="http://purl.org/dc/elements/1.1/" xmlns:cc="http://creativecommons.org/ns#" xmlns:rdf="http://www.w3.org/1999/02/22-rdf-syntax-ns#">
   <cc:Work>
    <dc:type rdf:resource="http://purl.org/dc/dcmitype/StillImage"/>
    <dc:date>2026-07-17T22:41:41.385182</dc:date>
    <dc:format>image/svg+xml</dc:format>
    <dc:creator>
     <cc:Agent>
      <dc:title>Matplotlib v3.11.0, https://matplotlib.org/</dc:title>
     </cc:Agent>
    </dc:creator>
   </cc:Work>
  </rdf:RDF>
 </metadata>
 <defs>
  <style type="text/css">*{stroke-linejoin: round; stroke-linecap: butt}</style>
 </defs>
 <g id="figure_1">
  <g id="patch_1">
   <path d="M 0 299.473745 
L 492.742815 299.473745 
L 492.742815 0 
L 0 0 
z
" style="fill: #ffffff"/>
  </g>
  <g id="axes_1">
   <g id="patch_2">
    <path d="M 39.142815 241.878281 
L 485.542815 241.878281 
L 485.542815 21.558281 
L 39.142815 21.558281 
z
" style="fill: #fcfaf5"/>
   </g>
   <g id="matplotlib.axis_1">
    <g id="xtick_1">
     <g id="line2d_1">
      <path d="M 55.562302 241.878281 
L 55.562302 21.558281 
" clip-path="url(#p9b4dab03ff)" style="fill: none; stroke: #e3ddd0; stroke-width: 0.7; stroke-linecap: square"/>
     </g>
     <g id="line2d_2">
      <defs>
       <path id="m080c46ab74" d="M 0 0 
L 0 3.5 
" style="stroke: #6a6155; stroke-width: 0.8"/>
      </defs>
      <g>
       <use xlink:href="#m080c46ab74" x="55.562302" y="241.878281" style="fill: #6a6155; stroke: #6a6155; stroke-width: 0.8"/>
      </g>
     </g>
     <g id="text_1">
      <text style="font-size: 8.5px; font-family: 'DejaVu Sans', 'Helvetica', 'Arial', sans-serif; fill: #6a6155" transform="translate(9.929272 275.60784) rotate(-25)">2026-06-29</text>
     </g>
    </g>
    <g id="xtick_2">
     <g id="line2d_3">
      <path d="M 98.437497 241.878281 
L 98.437497 21.558281 
" clip-path="url(#p9b4dab03ff)" style="fill: none; stroke: #e3ddd0; stroke-width: 0.7; stroke-linecap: square"/>
     </g>
     <g id="line2d_4">
      <g>
       <use xlink:href="#m080c46ab74" x="98.437497" y="241.878281" style="fill: #6a6155; stroke: #6a6155; stroke-width: 0.8"/>
      </g>
     </g>
     <g id="text_2">
      <text style="font-size: 8.5px; font-family: 'DejaVu Sans', 'Helvetica', 'Arial', sans-serif; fill: #6a6155" transform="translate(52.804467 275.60784) rotate(-25)">2026-07-01</text>
     </g>
    </g>
    <g id="xtick_3">
     <g id="line2d_5">
      <path d="M 141.312691 241.878281 
L 141.312691 21.558281 
" clip-path="url(#p9b4dab03ff)" style="fill: none; stroke: #e3ddd0; stroke-width: 0.7; stroke-linecap: square"/>
     </g>
     <g id="line2d_6">
      <g>
       <use xlink:href="#m080c46ab74" x="141.312691" y="241.878281" style="fill: #6a6155; stroke: #6a6155; stroke-width: 0.8"/>
      </g>
     </g>
     <g id="text_3">
      <text style="font-size: 8.5px; font-family: 'DejaVu Sans', 'Helvetica', 'Arial', sans-serif; fill: #6a6155" transform="translate(95.679661 275.60784) rotate(-25)">2026-07-03</text>
     </g>
    </g>
    <g id="xtick_4">
     <g id="line2d_7">
      <path d="M 184.187886 241.878281 
L 184.187886 21.558281 
" clip-path="url(#p9b4dab03ff)" style="fill: none; stroke: #e3ddd0; stroke-width: 0.7; stroke-linecap: square"/>
     </g>
     <g id="line2d_8">
      <g>
       <use xlink:href="#m080c46ab74" x="184.187886" y="241.878281" style="fill: #6a6155; stroke: #6a6155; stroke-width: 0.8"/>
      </g>
     </g>
     <g id="text_4">
      <text style="font-size: 8.5px; font-family: 'DejaVu Sans', 'Helvetica', 'Arial', sans-serif; fill: #6a6155" transform="translate(138.554855 275.60784) rotate(-25)">2026-07-05</text>
     </g>
    </g>
    <g id="xtick_5">
     <g id="line2d_9">
      <path d="M 227.06308 241.878281 
L 227.06308 21.558281 
" clip-path="url(#p9b4dab03ff)" style="fill: none; stroke: #e3ddd0; stroke-width: 0.7; stroke-linecap: square"/>
     </g>
     <g id="line2d_10">
      <g>
       <use xlink:href="#m080c46ab74" x="227.06308" y="241.878281" style="fill: #6a6155; stroke: #6a6155; stroke-width: 0.8"/>
      </g>
     </g>
     <g id="text_5">
      <text style="font-size: 8.5px; font-family: 'DejaVu Sans', 'Helvetica', 'Arial', sans-serif; fill: #6a6155" transform="translate(181.43005 275.60784) rotate(-25)">2026-07-07</text>
     </g>
    </g>
    <g id="xtick_6">
     <g id="line2d_11">
      <path d="M 269.938275 241.878281 
L 269.938275 21.558281 
" clip-path="url(#p9b4dab03ff)" style="fill: none; stroke: #e3ddd0; stroke-width: 0.7; stroke-linecap: square"/>
     </g>
     <g id="line2d_12">
      <g>
       <use xlink:href="#m080c46ab74" x="269.938275" y="241.878281" style="fill: #6a6155; stroke: #6a6155; stroke-width: 0.8"/>
      </g>
     </g>
     <g id="text_6">
      <text style="font-size: 8.5px; font-family: 'DejaVu Sans', 'Helvetica', 'Arial', sans-serif; fill: #6a6155" transform="translate(224.305244 275.60784) rotate(-25)">2026-07-09</text>
     </g>
    </g>
    <g id="xtick_7">
     <g id="line2d_13">
      <path d="M 312.813469 241.878281 
L 312.813469 21.558281 
" clip-path="url(#p9b4dab03ff)" style="fill: none; stroke: #e3ddd0; stroke-width: 0.7; stroke-linecap: square"/>
     </g>
     <g id="line2d_14">
      <g>
       <use xlink:href="#m080c46ab74" x="312.813469" y="241.878281" style="fill: #6a6155; stroke: #6a6155; stroke-width: 0.8"/>
      </g>
     </g>
     <g id="text_7">
      <text style="font-size: 8.5px; font-family: 'DejaVu Sans', 'Helvetica', 'Arial', sans-serif; fill: #6a6155" transform="translate(267.180439 275.60784) rotate(-25)">2026-07-11</text>
     </g>
    </g>
    <g id="xtick_8">
     <g id="line2d_15">
      <path d="M 355.688663 241.878281 
L 355.688663 21.558281 
" clip-path="url(#p9b4dab03ff)" style="fill: none; stroke: #e3ddd0; stroke-width: 0.7; stroke-linecap: square"/>
     </g>
     <g id="line2d_16">
      <g>
       <use xlink:href="#m080c46ab74" x="355.688663" y="241.878281" style="fill: #6a6155; stroke: #6a6155; stroke-width: 0.8"/>
      </g>
     </g>
     <g id="text_8">
      <text style="font-size: 8.5px; font-family: 'DejaVu Sans', 'Helvetica', 'Arial', sans-serif; fill: #6a6155" transform="translate(310.055633 275.60784) rotate(-25)">2026-07-13</text>
     </g>
    </g>
    <g id="xtick_9">
     <g id="line2d_17">
      <path d="M 398.563858 241.878281 
L 398.563858 21.558281 
" clip-path="url(#p9b4dab03ff)" style="fill: none; stroke: #e3ddd0; stroke-width: 0.7; stroke-linecap: square"/>
     </g>
     <g id="line2d_18">
      <g>
       <use xlink:href="#m080c46ab74" x="398.563858" y="241.878281" style="fill: #6a6155; stroke: #6a6155; stroke-width: 0.8"/>
      </g>
     </g>
     <g id="text_9">
      <text style="font-size: 8.5px; font-family: 'DejaVu Sans', 'Helvetica', 'Arial', sans-serif; fill: #6a6155" transform="translate(352.930828 275.60784) rotate(-25)">2026-07-15</text>
     </g>
    </g>
    <g id="xtick_10">
     <g id="line2d_19">
      <path d="M 441.439052 241.878281 
L 441.439052 21.558281 
" clip-path="url(#p9b4dab03ff)" style="fill: none; stroke: #e3ddd0; stroke-width: 0.7; stroke-linecap: square"/>
     </g>
     <g id="line2d_20">
      <g>
       <use xlink:href="#m080c46ab74" x="441.439052" y="241.878281" style="fill: #6a6155; stroke: #6a6155; stroke-width: 0.8"/>
      </g>
     </g>
     <g id="text_10">
      <text style="font-size: 8.5px; font-family: 'DejaVu Sans', 'Helvetica', 'Arial', sans-serif; fill: #6a6155" transform="translate(395.806022 275.60784) rotate(-25)">2026-07-17</text>
     </g>
    </g>
    <g id="xtick_11">
     <g id="line2d_21">
      <path d="M 484.314247 241.878281 
L 484.314247 21.558281 
" clip-path="url(#p9b4dab03ff)" style="fill: none; stroke: #e3ddd0; stroke-width: 0.7; stroke-linecap: square"/>
     </g>
     <g id="line2d_22">
      <g>
       <use xlink:href="#m080c46ab74" x="484.314247" y="241.878281" style="fill: #6a6155; stroke: #6a6155; stroke-width: 0.8"/>
      </g>
     </g>
     <g id="text_11">
      <text style="font-size: 8.5px; font-family: 'DejaVu Sans', 'Helvetica', 'Arial', sans-serif; fill: #6a6155" transform="translate(438.681217 275.60784) rotate(-25)">2026-07-19</text>
     </g>
    </g>
   </g>
   <g id="matplotlib.axis_2">
    <g id="ytick_1">
     <g id="line2d_23">
      <path d="M 39.142815 213.537673 
L 485.542815 213.537673 
" clip-path="url(#p9b4dab03ff)" style="fill: none; stroke: #e3ddd0; stroke-width: 0.7; stroke-linecap: square"/>
     </g>
     <g id="line2d_24">
      <defs>
       <path id="m9379ac8bf1" d="M 0 0 
L -3.5 0 
" style="stroke: #6a6155; stroke-width: 0.8"/>
      </defs>
      <g>
       <use xlink:href="#m9379ac8bf1" x="39.142815" y="213.537673" style="fill: #6a6155; stroke: #6a6155; stroke-width: 0.8"/>
      </g>
     </g>
     <g id="text_12">
      <text style="font-size: 8.5px; font-family: 'DejaVu Sans', 'Helvetica', 'Arial', sans-serif; text-anchor: end; fill: #6a6155" x="32.142815" y="216.766677" transform="rotate(-0 32.142815 216.766677)">10</text>
     </g>
    </g>
    <g id="ytick_2">
     <g id="line2d_25">
      <path d="M 39.142815 176.515324 
L 485.542815 176.515324 
" clip-path="url(#p9b4dab03ff)" style="fill: none; stroke: #e3ddd0; stroke-width: 0.7; stroke-linecap: square"/>
     </g>
     <g id="line2d_26">
      <g>
       <use xlink:href="#m9379ac8bf1" x="39.142815" y="176.515324" style="fill: #6a6155; stroke: #6a6155; stroke-width: 0.8"/>
      </g>
     </g>
     <g id="text_13">
      <text style="font-size: 8.5px; font-family: 'DejaVu Sans', 'Helvetica', 'Arial', sans-serif; text-anchor: end; fill: #6a6155" x="32.142815" y="179.744328" transform="rotate(-0 32.142815 179.744328)">20</text>
     </g>
    </g>
    <g id="ytick_3">
     <g id="line2d_27">
      <path d="M 39.142815 139.492975 
L 485.542815 139.492975 
" clip-path="url(#p9b4dab03ff)" style="fill: none; stroke: #e3ddd0; stroke-width: 0.7; stroke-linecap: square"/>
     </g>
     <g id="line2d_28">
      <g>
       <use xlink:href="#m9379ac8bf1" x="39.142815" y="139.492975" style="fill: #6a6155; stroke: #6a6155; stroke-width: 0.8"/>
      </g>
     </g>
     <g id="text_14">
      <text style="font-size: 8.5px; font-family: 'DejaVu Sans', 'Helvetica', 'Arial', sans-serif; text-anchor: end; fill: #6a6155" x="32.142815" y="142.721978" transform="rotate(-0 32.142815 142.721978)">30</text>
     </g>
    </g>
    <g id="ytick_4">
     <g id="line2d_29">
      <path d="M 39.142815 102.470625 
L 485.542815 102.470625 
" clip-path="url(#p9b4dab03ff)" style="fill: none; stroke: #e3ddd0; stroke-width: 0.7; stroke-linecap: square"/>
     </g>
     <g id="line2d_30">
      <g>
       <use xlink:href="#m9379ac8bf1" x="39.142815" y="102.470625" style="fill: #6a6155; stroke: #6a6155; stroke-width: 0.8"/>
      </g>
     </g>
     <g id="text_15">
      <text style="font-size: 8.5px; font-family: 'DejaVu Sans', 'Helvetica', 'Arial', sans-serif; text-anchor: end; fill: #6a6155" x="32.142815" y="105.699629" transform="rotate(-0 32.142815 105.699629)">40</text>
     </g>
    </g>
    <g id="ytick_5">
     <g id="line2d_31">
      <path d="M 39.142815 65.448276 
L 485.542815 65.448276 
" clip-path="url(#p9b4dab03ff)" style="fill: none; stroke: #e3ddd0; stroke-width: 0.7; stroke-linecap: square"/>
     </g>
     <g id="line2d_32">
      <g>
       <use xlink:href="#m9379ac8bf1" x="39.142815" y="65.448276" style="fill: #6a6155; stroke: #6a6155; stroke-width: 0.8"/>
      </g>
     </g>
     <g id="text_16">
      <text style="font-size: 8.5px; font-family: 'DejaVu Sans', 'Helvetica', 'Arial', sans-serif; text-anchor: end; fill: #6a6155" x="32.142815" y="68.67728" transform="rotate(-0 32.142815 68.67728)">50</text>
     </g>
    </g>
    <g id="ytick_6">
     <g id="line2d_33">
      <path d="M 39.142815 28.425927 
L 485.542815 28.425927 
" clip-path="url(#p9b4dab03ff)" style="fill: none; stroke: #e3ddd0; stroke-width: 0.7; stroke-linecap: square"/>
     </g>
     <g id="line2d_34">
      <g>
       <use xlink:href="#m9379ac8bf1" x="39.142815" y="28.425927" style="fill: #6a6155; stroke: #6a6155; stroke-width: 0.8"/>
      </g>
     </g>
     <g id="text_17">
      <text style="font-size: 8.5px; font-family: 'DejaVu Sans', 'Helvetica', 'Arial', sans-serif; text-anchor: end; fill: #6a6155" x="32.142815" y="31.654931" transform="rotate(-0 32.142815 31.654931)">60</text>
     </g>
    </g>
    <g id="text_18">
     <text style="font-size: 9.5px; font-family: 'DejaVu Sans', 'Helvetica', 'Arial', sans-serif; text-anchor: middle; fill: #1b1712" x="15.044338" y="131.718281" transform="rotate(-90 15.044338 131.718281)">Implied win probability, %</text>
    </g>
   </g>
   <g id="line2d_35">
    <path d="M 59.433724 209.280103 
L 60.041371 209.280103 
L 62.725784 209.650326 
L 65.410198 209.650326 
L 68.09486 209.280103 
L 70.986951 209.280103 
L 73.679305 209.650326 
L 76.408629 208.169432 
L 81.780186 208.909879 
L 87.154472 208.909879 
L 89.839879 208.539656 
L 92.521315 208.539656 
L 95.205977 208.909879 
L 97.897091 209.650326 
L 100.582745 213.352561 
L 103.270136 213.352561 
L 105.954799 212.982338 
L 108.643431 212.241891 
L 111.327844 212.612114 
L 114.01077 212.241891 
L 116.696672 213.352561 
L 119.390267 212.612114 
L 122.075921 213.352561 
L 124.76108 213.352561 
L 127.445742 213.722785 
L 130.133133 213.352561 
L 132.818788 213.722785 
L 135.509653 211.501444 
L 138.194315 207.243874 
L 140.879969 203.356527 
L 143.566368 204.096974 
L 146.259466 204.467197 
L 148.944128 205.207644 
L 151.636234 204.096974 
L 154.3204 201.875633 
L 157.001092 203.356527 
L 159.685258 202.986303 
L 162.376867 204.837421 
L 165.062522 202.060745 
L 167.757109 204.837421 
L 170.441523 205.207644 
L 173.126185 205.207644 
L 175.811839 203.356527 
L 178.493772 204.837421 
L 183.866818 204.837421 
L 186.55148 204.096974 
L 189.239368 204.467197 
L 191.924526 204.096974 
L 197.299805 204.837421 
L 199.99067 204.837421 
L 202.676324 204.467197 
L 205.356769 203.72675 
L 208.041431 204.096974 
L 210.733784 202.986303 
L 213.418198 202.986303 
L 216.105093 203.356527 
L 218.789507 204.467197 
L 221.478884 201.320298 
L 224.16429 207.799209 
L 226.852426 182.624011 
L 229.537088 181.513341 
L 234.908397 182.994235 
L 237.601743 184.104905 
L 240.285909 180.40267 
L 242.975534 177.625994 
L 245.658955 181.143117 
L 246.408775 181.143117 
L 249.086489 181.883564 
L 259.231138 181.883564 
L 261.906123 181.143117 
L 278.04114 181.143117 
L 280.738209 180.032447 
L 283.423615 179.292 
L 286.110014 178.921776 
L 288.794428 180.032447 
L 291.474127 185.956023 
L 293.04994 186.69647 
L 295.725421 186.69647 
L 298.466903 187.066693 
L 301.151317 188.917811 
L 303.836971 189.658258 
L 306.521385 189.658258 
L 309.207784 191.879599 
L 311.893191 172.627977 
L 314.575372 172.257754 
L 322.628613 172.257754 
L 325.308809 172.998201 
L 330.67466 172.998201 
L 333.359322 173.368424 
L 336.045473 177.440882 
L 338.729886 176.330212 
L 341.41033 176.700436 
L 344.094496 176.700436 
L 346.776677 176.330212 
L 349.461091 176.330212 
L 352.143768 175.589765 
L 354.828182 174.479095 
L 360.196266 173.738648 
L 365.566582 173.738648 
L 373.618583 172.627977 
L 376.302997 171.88753 
L 378.988156 172.257754 
L 381.67257 172.257754 
L 387.03842 171.517307 
L 389.722338 170.036413 
L 392.407 166.704401 
L 395.087692 114.132665 
L 397.772354 35.275062 
L 416.566725 35.275062 
L 419.252132 36.015509 
L 429.988299 36.015509 
L 432.669239 35.645285 
L 435.355638 34.534615 
L 446.095775 34.534615 
L 448.775723 33.794168 
L 454.147528 33.794168 
L 456.833679 32.683497 
L 459.517597 31.94305 
L 462.202755 31.572827 
L 465.251906 31.572827 
L 465.251906 31.572827 
" clip-path="url(#p9b4dab03ff)" style="fill: none; stroke: #0072b2; stroke-width: 1.6; stroke-linecap: square"/>
   </g>
   <g id="line2d_36">
    <path d="M 59.433724 174.849318 
L 60.041371 173.738648 
L 62.725784 173.368424 
L 70.986951 173.368424 
L 73.679305 177.811106 
L 76.408629 178.181329 
L 79.092794 175.589765 
L 81.780186 176.700436 
L 84.46584 178.921776 
L 95.205977 178.921776 
L 97.897091 179.292 
L 100.582745 183.734682 
L 103.270136 182.994235 
L 105.954799 182.624011 
L 108.643431 180.40267 
L 111.327844 178.921776 
L 114.01077 177.811106 
L 116.696672 182.624011 
L 119.390267 183.364458 
L 122.075921 183.734682 
L 127.445742 183.734682 
L 130.133133 183.364458 
L 132.818788 182.624011 
L 135.509653 182.253788 
L 138.194315 182.624011 
L 140.879969 180.032447 
L 143.566368 178.181329 
L 146.259466 180.40267 
L 148.944128 179.662223 
L 151.636234 179.292 
L 154.3204 178.551553 
L 157.001092 178.921776 
L 159.685258 178.921776 
L 162.376867 187.622029 
L 165.062522 187.436917 
L 167.757109 185.585799 
L 170.441523 186.69647 
L 173.126185 187.436917 
L 178.493772 187.436917 
L 181.178186 190.028481 
L 183.866818 188.917811 
L 186.55148 188.547587 
L 197.299805 188.547587 
L 199.99067 188.177364 
L 202.676324 186.326246 
L 205.356769 185.956023 
L 208.041431 187.066693 
L 210.733784 186.326246 
L 213.418198 188.177364 
L 216.105093 188.917811 
L 218.789507 188.917811 
L 221.478884 183.364458 
L 224.16429 187.436917 
L 226.852426 187.436917 
L 229.537088 183.919794 
L 232.223983 182.253788 
L 234.908397 181.143117 
L 240.285909 184.845352 
L 242.975534 231.863736 
L 245.658955 187.80714 
L 245.94603 187.80714 
L 246.111278 185.585799 
L 246.408775 185.956023 
L 249.086489 182.253788 
L 250.459091 182.253788 
L 250.983618 181.513341 
L 253.661084 181.143117 
L 256.345498 181.513341 
L 259.231138 181.143117 
L 261.906123 181.143117 
L 264.591281 178.551553 
L 267.271477 175.219542 
L 269.96135 176.330212 
L 283.423615 176.330212 
L 286.110014 178.181329 
L 288.794428 181.143117 
L 291.474127 184.475129 
L 293.04994 184.475129 
L 298.466903 182.994235 
L 301.151317 181.143117 
L 303.836971 184.104905 
L 306.521385 184.475129 
L 309.207784 182.624011 
L 311.893191 184.845352 
L 314.575372 182.994235 
L 317.259785 185.215576 
L 319.944199 184.475129 
L 330.67466 185.956023 
L 333.359322 185.030464 
L 336.045473 174.108871 
L 338.729886 178.181329 
L 341.41033 181.143117 
L 346.776677 180.40267 
L 352.143768 182.624011 
L 357.511852 183.364458 
L 360.196266 184.104905 
L 362.882168 185.215576 
L 365.566582 185.956023 
L 368.249259 186.326246 
L 370.934914 187.436917 
L 376.302997 185.956023 
L 378.988156 185.956023 
L 381.67257 186.326246 
L 389.722338 186.326246 
L 392.407 185.956023 
L 395.087692 180.772894 
L 397.772354 179.292 
L 400.455776 180.40267 
L 403.140189 177.070659 
L 405.826092 178.551553 
L 408.511747 177.811106 
L 411.197153 177.440882 
L 413.881567 177.811106 
L 416.566725 178.921776 
L 419.252132 94.51082 
L 421.934064 94.51082 
L 424.618975 96.732161 
L 427.3019 96.732161 
L 429.988299 95.991714 
L 432.669239 96.361938 
L 438.041541 96.361938 
L 443.41012 97.102385 
L 446.095775 98.583279 
L 448.775723 98.213055 
L 454.147528 98.213055 
L 456.833679 100.434396 
L 462.202755 100.434396 
L 465.251906 100.80462 
L 465.251906 100.80462 
" clip-path="url(#p9b4dab03ff)" style="fill: none; stroke: #d55e00; stroke-width: 1.6; stroke-linecap: square"/>
   </g>
   <g id="patch_3">
    <path d="M 39.142815 241.878281 
L 39.142815 21.558281 
" style="fill: none; stroke: #6a6155; stroke-width: 0.8; stroke-linejoin: miter; stroke-linecap: square"/>
   </g>
   <g id="patch_4">
    <path d="M 39.142815 241.878281 
L 485.542815 241.878281 
" style="fill: none; stroke: #6a6155; stroke-width: 0.8; stroke-linejoin: miter; stroke-linecap: square"/>
   </g>
   <g id="text_19">
    <text style="font-size: 11px; font-family: 'DejaVu Sans', 'Helvetica', 'Arial', sans-serif; text-anchor: middle; fill: #1b1712" x="262.342815" y="15.558281" transform="rotate(-0 262.342815 15.558281)">Prediction-market winner odds (Polymarket, 3-hour snapshots)</text>
   </g>
   <g id="legend_1">
    <g id="line2d_37">
     <path d="M 197.436682 283.856753 
L 205.936682 283.856753 
L 214.436682 283.856753 
" style="fill: none; stroke: #0072b2; stroke-width: 1.6; stroke-linecap: square"/>
    </g>
    <g id="text_20">
     <text style="font-size: 8.5px; font-family: 'DejaVu Sans', 'Helvetica', 'Arial', sans-serif; text-anchor: start" x="221.236682" y="286.831753" transform="rotate(-0 221.236682 286.831753)">Spain</text>
    </g>
    <g id="line2d_38">
     <path d="M 261.986213 283.856753 
L 270.486213 283.856753 
L 278.986213 283.856753 
" style="fill: none; stroke: #d55e00; stroke-width: 1.6; stroke-linecap: square"/>
    </g>
    <g id="text_21">
     <text style="font-size: 8.5px; font-family: 'DejaVu Sans', 'Helvetica', 'Arial', sans-serif; text-anchor: start" x="285.786213" y="286.831753" transform="rotate(-0 285.786213 286.831753)">Argentina</text>
    </g>
   </g>
  </g>
 </g>
 <defs>
  <clipPath id="p9b4dab03ff">
   <rect x="39.142815" y="21.558281" width="446.4" height="220.32"/>
  </clipPath>
 </defs>
</svg>
