<?xml version="1.0" encoding="utf-8" standalone="no"?>
<!DOCTYPE svg PUBLIC "-//W3C//DTD SVG 1.1//EN"
  "http://www.w3.org/Graphics/SVG/1.1/DTD/svg11.dtd">
<svg xmlns:xlink="http://www.w3.org/1999/xlink" width="494.003457pt" height="299.473745pt" viewBox="0 0 494.003457 299.473745" xmlns="http://www.w3.org/2000/svg" version="1.1">
 <metadata>
  <rdf:RDF xmlns:dc="http://purl.org/dc/elements/1.1/" xmlns:cc="http://creativecommons.org/ns#" xmlns:rdf="http://www.w3.org/1999/02/22-rdf-syntax-ns#">
   <cc:Work>
    <dc:type rdf:resource="http://purl.org/dc/dcmitype/StillImage"/>
    <dc:date>2026-07-13T13:54:41.194682</dc:date>
    <dc:format>image/svg+xml</dc:format>
    <dc:creator>
     <cc:Agent>
      <dc:title>Matplotlib v3.11.0, https://matplotlib.org/</dc:title>
     </cc:Agent>
    </dc:creator>
   </cc:Work>
  </rdf:RDF>
 </metadata>
 <defs>
  <style type="text/css">*{stroke-linejoin: round; stroke-linecap: butt}</style>
 </defs>
 <g id="figure_1">
  <g id="patch_1">
   <path d="M 0 299.473745 
L 494.003457 299.473745 
L 494.003457 0 
L 0 0 
z
" style="fill: #ffffff"/>
  </g>
  <g id="axes_1">
   <g id="patch_2">
    <path d="M 40.403457 241.878281 
L 486.803457 241.878281 
L 486.803457 21.558281 
L 40.403457 21.558281 
z
" style="fill: #fcfaf5"/>
   </g>
   <g id="matplotlib.axis_1">
    <g id="xtick_1">
     <g id="line2d_1">
      <path d="M 55.562302 241.878281 
L 55.562302 21.558281 
" clip-path="url(#pf67051d155)" style="fill: none; stroke: #e3ddd0; stroke-width: 0.7; stroke-linecap: square"/>
     </g>
     <g id="line2d_2">
      <defs>
       <path id="m0b75fa01a5" d="M 0 0 
L 0 3.5 
" style="stroke: #6a6155; stroke-width: 0.8"/>
      </defs>
      <g>
       <use xlink:href="#m0b75fa01a5" x="55.562302" y="241.878281" style="fill: #6a6155; stroke: #6a6155; stroke-width: 0.8"/>
      </g>
     </g>
     <g id="text_1">
      <text style="font-size: 8.5px; font-family: 'DejaVu Sans', 'Helvetica', 'Arial', sans-serif; fill: #6a6155" transform="translate(9.929272 275.60784) rotate(-25)">2026-06-29</text>
     </g>
    </g>
    <g id="xtick_2">
     <g id="line2d_3">
      <path d="M 112.398845 241.878281 
L 112.398845 21.558281 
" clip-path="url(#pf67051d155)" style="fill: none; stroke: #e3ddd0; stroke-width: 0.7; stroke-linecap: square"/>
     </g>
     <g id="line2d_4">
      <g>
       <use xlink:href="#m0b75fa01a5" x="112.398845" y="241.878281" style="fill: #6a6155; stroke: #6a6155; stroke-width: 0.8"/>
      </g>
     </g>
     <g id="text_2">
      <text style="font-size: 8.5px; font-family: 'DejaVu Sans', 'Helvetica', 'Arial', sans-serif; fill: #6a6155" transform="translate(66.765815 275.60784) rotate(-25)">2026-07-01</text>
     </g>
    </g>
    <g id="xtick_3">
     <g id="line2d_5">
      <path d="M 169.235389 241.878281 
L 169.235389 21.558281 
" clip-path="url(#pf67051d155)" style="fill: none; stroke: #e3ddd0; stroke-width: 0.7; stroke-linecap: square"/>
     </g>
     <g id="line2d_6">
      <g>
       <use xlink:href="#m0b75fa01a5" x="169.235389" y="241.878281" style="fill: #6a6155; stroke: #6a6155; stroke-width: 0.8"/>
      </g>
     </g>
     <g id="text_3">
      <text style="font-size: 8.5px; font-family: 'DejaVu Sans', 'Helvetica', 'Arial', sans-serif; fill: #6a6155" transform="translate(123.602359 275.60784) rotate(-25)">2026-07-03</text>
     </g>
    </g>
    <g id="xtick_4">
     <g id="line2d_7">
      <path d="M 226.071932 241.878281 
L 226.071932 21.558281 
" clip-path="url(#pf67051d155)" style="fill: none; stroke: #e3ddd0; stroke-width: 0.7; stroke-linecap: square"/>
     </g>
     <g id="line2d_8">
      <g>
       <use xlink:href="#m0b75fa01a5" x="226.071932" y="241.878281" style="fill: #6a6155; stroke: #6a6155; stroke-width: 0.8"/>
      </g>
     </g>
     <g id="text_4">
      <text style="font-size: 8.5px; font-family: 'DejaVu Sans', 'Helvetica', 'Arial', sans-serif; fill: #6a6155" transform="translate(180.438902 275.60784) rotate(-25)">2026-07-05</text>
     </g>
    </g>
    <g id="xtick_5">
     <g id="line2d_9">
      <path d="M 282.908475 241.878281 
L 282.908475 21.558281 
" clip-path="url(#pf67051d155)" style="fill: none; stroke: #e3ddd0; stroke-width: 0.7; stroke-linecap: square"/>
     </g>
     <g id="line2d_10">
      <g>
       <use xlink:href="#m0b75fa01a5" x="282.908475" y="241.878281" style="fill: #6a6155; stroke: #6a6155; stroke-width: 0.8"/>
      </g>
     </g>
     <g id="text_5">
      <text style="font-size: 8.5px; font-family: 'DejaVu Sans', 'Helvetica', 'Arial', sans-serif; fill: #6a6155" transform="translate(237.275445 275.60784) rotate(-25)">2026-07-07</text>
     </g>
    </g>
    <g id="xtick_6">
     <g id="line2d_11">
      <path d="M 339.745019 241.878281 
L 339.745019 21.558281 
" clip-path="url(#pf67051d155)" style="fill: none; stroke: #e3ddd0; stroke-width: 0.7; stroke-linecap: square"/>
     </g>
     <g id="line2d_12">
      <g>
       <use xlink:href="#m0b75fa01a5" x="339.745019" y="241.878281" style="fill: #6a6155; stroke: #6a6155; stroke-width: 0.8"/>
      </g>
     </g>
     <g id="text_6">
      <text style="font-size: 8.5px; font-family: 'DejaVu Sans', 'Helvetica', 'Arial', sans-serif; fill: #6a6155" transform="translate(294.111989 275.60784) rotate(-25)">2026-07-09</text>
     </g>
    </g>
    <g id="xtick_7">
     <g id="line2d_13">
      <path d="M 396.581562 241.878281 
L 396.581562 21.558281 
" clip-path="url(#pf67051d155)" style="fill: none; stroke: #e3ddd0; stroke-width: 0.7; stroke-linecap: square"/>
     </g>
     <g id="line2d_14">
      <g>
       <use xlink:href="#m0b75fa01a5" x="396.581562" y="241.878281" style="fill: #6a6155; stroke: #6a6155; stroke-width: 0.8"/>
      </g>
     </g>
     <g id="text_7">
      <text style="font-size: 8.5px; font-family: 'DejaVu Sans', 'Helvetica', 'Arial', sans-serif; fill: #6a6155" transform="translate(350.948532 275.60784) rotate(-25)">2026-07-11</text>
     </g>
    </g>
    <g id="xtick_8">
     <g id="line2d_15">
      <path d="M 453.418105 241.878281 
L 453.418105 21.558281 
" clip-path="url(#pf67051d155)" style="fill: none; stroke: #e3ddd0; stroke-width: 0.7; stroke-linecap: square"/>
     </g>
     <g id="line2d_16">
      <g>
       <use xlink:href="#m0b75fa01a5" x="453.418105" y="241.878281" style="fill: #6a6155; stroke: #6a6155; stroke-width: 0.8"/>
      </g>
     </g>
     <g id="text_8">
      <text style="font-size: 8.5px; font-family: 'DejaVu Sans', 'Helvetica', 'Arial', sans-serif; fill: #6a6155" transform="translate(407.785075 275.60784) rotate(-25)">2026-07-13</text>
     </g>
    </g>
   </g>
   <g id="matplotlib.axis_2">
    <g id="ytick_1">
     <g id="line2d_17">
      <path d="M 40.403457 232.154856 
L 486.803457 232.154856 
" clip-path="url(#pf67051d155)" style="fill: none; stroke: #e3ddd0; stroke-width: 0.7; stroke-linecap: square"/>
     </g>
     <g id="line2d_18">
      <defs>
       <path id="mdd6ac282f0" d="M 0 0 
L -3.5 0 
" style="stroke: #6a6155; stroke-width: 0.8"/>
      </defs>
      <g>
       <use xlink:href="#mdd6ac282f0" x="40.403457" y="232.154856" style="fill: #6a6155; stroke: #6a6155; stroke-width: 0.8"/>
      </g>
     </g>
     <g id="text_9">
      <text style="font-size: 8.5px; font-family: 'DejaVu Sans', 'Helvetica', 'Arial', sans-serif; text-anchor: end; fill: #6a6155" x="33.403457" y="235.38386" transform="rotate(-0 33.403457 235.38386)">5</text>
     </g>
    </g>
    <g id="ytick_2">
     <g id="line2d_19">
      <path d="M 40.403457 203.042806 
L 486.803457 203.042806 
" clip-path="url(#pf67051d155)" style="fill: none; stroke: #e3ddd0; stroke-width: 0.7; stroke-linecap: square"/>
     </g>
     <g id="line2d_20">
      <g>
       <use xlink:href="#mdd6ac282f0" x="40.403457" y="203.042806" style="fill: #6a6155; stroke: #6a6155; stroke-width: 0.8"/>
      </g>
     </g>
     <g id="text_10">
      <text style="font-size: 8.5px; font-family: 'DejaVu Sans', 'Helvetica', 'Arial', sans-serif; text-anchor: end; fill: #6a6155" x="33.403457" y="206.271809" transform="rotate(-0 33.403457 206.271809)">10</text>
     </g>
    </g>
    <g id="ytick_3">
     <g id="line2d_21">
      <path d="M 40.403457 173.930755 
L 486.803457 173.930755 
" clip-path="url(#pf67051d155)" style="fill: none; stroke: #e3ddd0; stroke-width: 0.7; stroke-linecap: square"/>
     </g>
     <g id="line2d_22">
      <g>
       <use xlink:href="#mdd6ac282f0" x="40.403457" y="173.930755" style="fill: #6a6155; stroke: #6a6155; stroke-width: 0.8"/>
      </g>
     </g>
     <g id="text_11">
      <text style="font-size: 8.5px; font-family: 'DejaVu Sans', 'Helvetica', 'Arial', sans-serif; text-anchor: end; fill: #6a6155" x="33.403457" y="177.159759" transform="rotate(-0 33.403457 177.159759)">15</text>
     </g>
    </g>
    <g id="ytick_4">
     <g id="line2d_23">
      <path d="M 40.403457 144.818704 
L 486.803457 144.818704 
" clip-path="url(#pf67051d155)" style="fill: none; stroke: #e3ddd0; stroke-width: 0.7; stroke-linecap: square"/>
     </g>
     <g id="line2d_24">
      <g>
       <use xlink:href="#mdd6ac282f0" x="40.403457" y="144.818704" style="fill: #6a6155; stroke: #6a6155; stroke-width: 0.8"/>
      </g>
     </g>
     <g id="text_12">
      <text style="font-size: 8.5px; font-family: 'DejaVu Sans', 'Helvetica', 'Arial', sans-serif; text-anchor: end; fill: #6a6155" x="33.403457" y="148.047708" transform="rotate(-0 33.403457 148.047708)">20</text>
     </g>
    </g>
    <g id="ytick_5">
     <g id="line2d_25">
      <path d="M 40.403457 115.706653 
L 486.803457 115.706653 
" clip-path="url(#pf67051d155)" style="fill: none; stroke: #e3ddd0; stroke-width: 0.7; stroke-linecap: square"/>
     </g>
     <g id="line2d_26">
      <g>
       <use xlink:href="#mdd6ac282f0" x="40.403457" y="115.706653" style="fill: #6a6155; stroke: #6a6155; stroke-width: 0.8"/>
      </g>
     </g>
     <g id="text_13">
      <text style="font-size: 8.5px; font-family: 'DejaVu Sans', 'Helvetica', 'Arial', sans-serif; text-anchor: end; fill: #6a6155" x="33.403457" y="118.935657" transform="rotate(-0 33.403457 118.935657)">25</text>
     </g>
    </g>
    <g id="ytick_6">
     <g id="line2d_27">
      <path d="M 40.403457 86.594603 
L 486.803457 86.594603 
" clip-path="url(#pf67051d155)" style="fill: none; stroke: #e3ddd0; stroke-width: 0.7; stroke-linecap: square"/>
     </g>
     <g id="line2d_28">
      <g>
       <use xlink:href="#mdd6ac282f0" x="40.403457" y="86.594603" style="fill: #6a6155; stroke: #6a6155; stroke-width: 0.8"/>
      </g>
     </g>
     <g id="text_14">
      <text style="font-size: 8.5px; font-family: 'DejaVu Sans', 'Helvetica', 'Arial', sans-serif; text-anchor: end; fill: #6a6155" x="33.403457" y="89.823607" transform="rotate(-0 33.403457 89.823607)">30</text>
     </g>
    </g>
    <g id="ytick_7">
     <g id="line2d_29">
      <path d="M 40.403457 57.482552 
L 486.803457 57.482552 
" clip-path="url(#pf67051d155)" style="fill: none; stroke: #e3ddd0; stroke-width: 0.7; stroke-linecap: square"/>
     </g>
     <g id="line2d_30">
      <g>
       <use xlink:href="#mdd6ac282f0" x="40.403457" y="57.482552" style="fill: #6a6155; stroke: #6a6155; stroke-width: 0.8"/>
      </g>
     </g>
     <g id="text_15">
      <text style="font-size: 8.5px; font-family: 'DejaVu Sans', 'Helvetica', 'Arial', sans-serif; text-anchor: end; fill: #6a6155" x="33.403457" y="60.711556" transform="rotate(-0 33.403457 60.711556)">35</text>
     </g>
    </g>
    <g id="ytick_8">
     <g id="line2d_31">
      <path d="M 40.403457 28.370501 
L 486.803457 28.370501 
" clip-path="url(#pf67051d155)" style="fill: none; stroke: #e3ddd0; stroke-width: 0.7; stroke-linecap: square"/>
     </g>
     <g id="line2d_32">
      <g>
       <use xlink:href="#mdd6ac282f0" x="40.403457" y="28.370501" style="fill: #6a6155; stroke: #6a6155; stroke-width: 0.8"/>
      </g>
     </g>
     <g id="text_16">
      <text style="font-size: 8.5px; font-family: 'DejaVu Sans', 'Helvetica', 'Arial', sans-serif; text-anchor: end; fill: #6a6155" x="33.403457" y="31.599505" transform="rotate(-0 33.403457 31.599505)">40</text>
     </g>
    </g>
    <g id="text_17">
     <text style="font-size: 9.5px; font-family: 'DejaVu Sans', 'Helvetica', 'Arial', sans-serif; text-anchor: middle; fill: #1b1712" x="16.30498" y="131.718281" transform="rotate(-90 16.30498 131.718281)">Implied win probability, %</text>
    </g>
   </g>
   <g id="line2d_33">
    <path d="M 60.694366 127.642594 
L 61.475539 127.642594 
L 61.499879 127.642594 
L 65.058412 124.731389 
L 68.616946 125.895871 
L 72.175808 124.731389 
L 75.737302 124.149148 
L 76.009643 124.149148 
L 79.578702 124.731389 
L 83.196769 124.149148 
L 86.754973 106.681918 
L 90.317454 101.441748 
L 93.877632 92.708133 
L 97.441757 92.125892 
L 101.001606 97.948302 
L 104.556192 97.948302 
L 108.115054 96.201579 
L 111.682468 70.582975 
L 115.242646 67.67177 
L 118.805126 72.329698 
L 122.363989 70.582975 
L 125.928114 70.582975 
L 129.486647 71.165216 
L 133.043207 70.582975 
L 136.603714 52.533503 
L 140.174417 52.824624 
L 143.734595 57.191431 
L 147.294115 55.444708 
L 150.852977 56.60919 
L 154.415457 57.191431 
L 157.975635 57.191431 
L 161.542721 59.520395 
L 165.101583 61.267118 
L 168.661761 61.849359 
L 172.222925 61.849359 
L 175.792971 62.4316 
L 179.351833 65.925047 
L 182.920563 67.67177 
L 186.478767 67.67177 
L 190.032367 67.089529 
L 193.590571 67.089529 
L 197.158643 67.089529 
L 200.718821 58.938154 
L 204.29084 61.267118 
L 207.849373 54.862467 
L 211.408235 56.60919 
L 214.968413 56.60919 
L 218.523658 57.191431 
L 222.082191 49.040057 
L 225.646316 50.78678 
L 229.205178 52.533503 
L 232.768316 53.697985 
L 236.327836 53.697985 
L 239.894593 53.697985 
L 243.453455 56.026949 
L 247.02054 59.520395 
L 250.580718 60.102636 
L 254.133989 63.596083 
L 257.692851 63.013842 
L 261.261909 71.165216 
L 264.820443 68.254011 
L 268.382265 71.747457 
L 271.940799 70.582975 
L 275.50591 71.165216 
L 279.065759 70.000734 
L 282.629226 70.000734 
L 286.188089 69.418493 
L 289.749911 68.254011 
L 293.308445 68.836252 
L 296.878819 68.836252 
L 300.437023 70.000734 
L 304.002464 59.811516 
L 307.559681 70.582975 
L 307.940236 70.582975 
L 308.159294 70.582975 
L 308.553663 70.582975 
L 312.103316 68.254011 
L 313.922875 68.836252 
L 314.618201 69.418493 
L 318.167525 70.582975 
L 321.726058 71.165216 
L 325.193482 71.165216 
L 325.551342 71.165216 
L 329.097376 71.165216 
L 332.656897 71.165216 
L 336.209838 71.747457 
L 339.775608 71.747457 
L 343.333483 73.49418 
L 346.92754 74.076421 
L 350.486402 75.240903 
L 354.06171 74.076421 
L 357.621559 74.076421 
L 361.182723 75.240903 
L 364.741257 73.7853 
L 368.293541 35.648514 
L 370.382481 36.230755 
L 373.929173 36.812996 
L 377.563357 36.812996 
L 381.121891 36.812996 
L 384.682069 36.812996 
L 388.240602 36.812996 
L 391.801767 31.572827 
L 395.361616 43.799888 
L 398.917189 43.799888 
L 402.475722 43.799888 
L 406.034255 39.724201 
L 409.592789 37.395237 
L 413.145731 37.395237 
L 416.705251 39.724201 
L 420.25885 37.977478 
L 423.817712 37.395237 
L 427.378548 43.217647 
L 430.937082 36.230755 
L 434.490352 40.888683 
L 438.048557 36.812996 
L 441.60413 35.066273 
L 445.162663 35.066273 
L 448.718894 35.066273 
L 452.277427 35.066273 
L 455.834974 34.484032 
L 459.393507 35.066273 
L 462.954014 35.066273 
L 466.512548 35.066273 
" clip-path="url(#pf67051d155)" style="fill: none; stroke: #0072b2; stroke-width: 1.6; stroke-linecap: square"/>
   </g>
   <g id="line2d_34">
    <path d="M 60.694366 201.587203 
L 61.475539 201.587203 
L 61.499879 201.587203 
L 65.058412 201.587203 
L 68.616946 201.587203 
L 72.175808 201.587203 
L 75.737302 201.587203 
L 76.009643 201.587203 
L 79.578702 201.587203 
L 83.196769 201.587203 
L 86.754973 202.751685 
L 90.317454 202.169444 
L 93.877632 202.751685 
L 97.441757 202.751685 
L 101.001606 203.333926 
L 104.556192 203.333926 
L 108.115054 203.333926 
L 111.682468 204.498408 
L 115.242646 204.498408 
L 118.805126 206.827372 
L 122.363989 206.827372 
L 125.928114 206.827372 
L 129.486647 206.827372 
L 133.043207 226.623567 
L 136.603714 211.4853 
L 140.174417 213.814264 
L 143.734595 213.232023 
L 147.294115 213.814264 
L 150.852977 213.232023 
L 154.415457 213.232023 
L 157.975635 213.814264 
L 161.542721 214.396505 
L 165.101583 216.143228 
L 168.661761 216.725469 
L 172.222925 216.725469 
L 175.792971 219.054433 
L 179.351833 219.054433 
L 182.920563 219.636674 
L 186.478767 219.636674 
L 190.032367 219.636674 
L 193.590571 219.636674 
L 197.158643 217.30771 
L 200.718821 220.801157 
L 204.29084 220.801157 
L 207.849373 216.725469 
L 211.408235 218.472192 
L 214.968413 222.54788 
L 218.523658 221.383398 
L 222.082191 221.965639 
L 225.646316 221.383398 
L 229.205178 221.383398 
L 232.768316 221.965639 
L 236.327836 221.383398 
L 239.894593 221.383398 
L 243.453455 219.636674 
L 247.02054 219.054433 
L 250.580718 217.889951 
L 254.133989 214.396505 
L 257.692851 210.320818 
L 261.261909 178.879803 
L 264.820443 178.879803 
L 268.382265 180.044285 
L 271.940799 179.462044 
L 275.50591 176.550839 
L 279.065759 176.550839 
L 282.629226 176.550839 
L 286.188089 174.804116 
L 289.749911 175.386357 
L 293.308445 177.715321 
L 296.878819 177.715321 
L 300.437023 175.386357 
L 304.002464 139.578535 
L 307.559681 171.31067 
L 307.940236 172.475152 
L 308.159294 172.475152 
L 308.553663 172.475152 
L 312.103316 170.146188 
L 313.922875 169.563947 
L 314.618201 170.146188 
L 318.167525 170.146188 
L 321.726058 170.146188 
L 325.193482 170.146188 
L 325.551342 170.146188 
L 329.097376 168.981706 
L 332.656897 168.981706 
L 336.209838 168.981706 
L 339.775608 168.981706 
L 343.333483 168.399465 
L 346.92754 168.981706 
L 350.486402 168.399465 
L 354.06171 167.817224 
L 357.621559 167.817224 
L 361.182723 167.817224 
L 364.741257 167.234983 
L 368.293541 168.399465 
L 370.382481 168.399465 
L 373.929173 168.399465 
L 377.563357 168.399465 
L 381.121891 168.399465 
L 384.682069 171.31067 
L 388.240602 171.31067 
L 391.801767 171.31067 
L 395.361616 175.968598 
L 398.917189 174.221875 
L 402.475722 176.259719 
L 406.034255 177.13308 
L 409.592789 176.550839 
L 413.145731 177.13308 
L 416.705251 177.13308 
L 420.25885 177.715321 
L 423.817712 191.106865 
L 427.378548 147.438789 
L 430.937082 139.287414 
L 434.490352 139.287414 
L 438.048557 135.793968 
L 441.60413 135.793968 
L 445.162663 135.793968 
L 448.718894 136.376209 
L 452.277427 136.376209 
L 455.834974 135.793968 
L 459.393507 135.793968 
L 462.954014 135.793968 
L 466.512548 135.793968 
" clip-path="url(#pf67051d155)" style="fill: none; stroke: #d55e00; stroke-width: 1.6; stroke-linecap: square"/>
   </g>
   <g id="line2d_35">
    <path d="M 60.694366 196.347034 
L 61.475539 196.347034 
L 61.499879 196.347034 
L 65.058412 196.929275 
L 68.616946 196.929275 
L 72.175808 196.347034 
L 75.737302 196.347034 
L 76.009643 196.347034 
L 79.578702 196.929275 
L 83.196769 194.600311 
L 86.754973 195.182552 
L 90.317454 195.764793 
L 93.877632 195.764793 
L 97.441757 195.764793 
L 101.001606 195.182552 
L 104.556192 195.182552 
L 108.115054 195.764793 
L 111.682468 196.929275 
L 115.242646 202.751685 
L 118.805126 202.751685 
L 122.363989 202.169444 
L 125.928114 201.004962 
L 129.486647 201.587203 
L 133.043207 201.004962 
L 136.603714 202.751685 
L 140.174417 201.587203 
L 143.734595 202.751685 
L 147.294115 202.751685 
L 150.852977 203.333926 
L 154.415457 202.751685 
L 157.975635 203.333926 
L 161.542721 199.84048 
L 165.101583 193.144708 
L 168.661761 187.031178 
L 172.222925 188.19566 
L 175.792971 188.777901 
L 179.351833 189.942383 
L 182.920563 188.19566 
L 186.478767 184.702214 
L 190.032367 187.031178 
L 193.590571 186.448937 
L 197.158643 189.360142 
L 200.718821 184.993334 
L 204.29084 189.360142 
L 207.849373 189.942383 
L 211.408235 189.942383 
L 214.968413 187.031178 
L 218.523658 189.360142 
L 222.082191 189.360142 
L 225.646316 189.360142 
L 229.205178 188.19566 
L 232.768316 188.777901 
L 236.327836 188.19566 
L 239.894593 188.777901 
L 243.453455 189.360142 
L 247.02054 189.360142 
L 250.580718 188.777901 
L 254.133989 187.613419 
L 257.692851 188.19566 
L 261.261909 186.448937 
L 264.820443 186.448937 
L 268.382265 187.031178 
L 271.940799 188.777901 
L 275.50591 183.828852 
L 279.065759 194.01807 
L 282.629226 154.425681 
L 286.188089 152.678958 
L 289.749911 153.84344 
L 293.308445 155.007922 
L 296.878819 156.754645 
L 300.437023 150.932235 
L 304.002464 146.565427 
L 307.559681 152.096717 
L 307.940236 152.096717 
L 308.159294 152.096717 
L 308.553663 152.096717 
L 312.103316 153.261199 
L 313.922875 153.261199 
L 314.618201 153.261199 
L 318.167525 153.261199 
L 321.726058 153.261199 
L 325.193482 153.261199 
L 325.551342 153.261199 
L 329.097376 152.096717 
L 332.656897 152.096717 
L 336.209838 152.096717 
L 339.775608 152.096717 
L 343.333483 152.096717 
L 346.92754 152.096717 
L 350.486402 152.096717 
L 354.06171 150.349994 
L 357.621559 149.185512 
L 361.182723 148.603271 
L 364.741257 150.349994 
L 368.293541 159.66585 
L 370.382481 160.830332 
L 373.929173 160.830332 
L 377.563357 161.412573 
L 381.121891 164.323778 
L 384.682069 165.48826 
L 388.240602 165.48826 
L 391.801767 168.981706 
L 395.361616 138.705173 
L 398.917189 138.122932 
L 402.475722 138.122932 
L 406.034255 138.122932 
L 409.592789 138.122932 
L 413.145731 139.287414 
L 416.705251 139.287414 
L 420.25885 139.287414 
L 423.817712 139.869655 
L 427.378548 146.274307 
L 430.937082 144.527584 
L 434.490352 145.109825 
L 438.048557 145.109825 
L 441.60413 144.527584 
L 445.162663 144.527584 
L 448.718894 143.363102 
L 452.277427 141.616379 
L 455.834974 141.034137 
L 459.393507 140.451896 
L 462.954014 140.451896 
L 466.512548 140.451896 
" clip-path="url(#pf67051d155)" style="fill: none; stroke: #009e73; stroke-width: 1.6; stroke-linecap: square"/>
   </g>
   <g id="line2d_36">
    <path d="M 60.694366 142.19862 
L 61.475539 140.451896 
L 61.499879 140.451896 
L 65.058412 139.869655 
L 68.616946 139.869655 
L 72.175808 139.869655 
L 75.737302 139.869655 
L 76.009643 139.869655 
L 79.578702 146.856548 
L 83.196769 147.438789 
L 86.754973 143.363102 
L 90.317454 145.109825 
L 93.877632 148.603271 
L 97.441757 148.603271 
L 101.001606 148.603271 
L 104.556192 148.603271 
L 108.115054 148.603271 
L 111.682468 149.185512 
L 115.242646 156.172404 
L 118.805126 155.007922 
L 122.363989 154.425681 
L 125.928114 150.932235 
L 129.486647 148.603271 
L 133.043207 146.856548 
L 136.603714 154.425681 
L 140.174417 155.590163 
L 143.734595 156.172404 
L 147.294115 156.172404 
L 150.852977 156.172404 
L 154.415457 155.590163 
L 157.975635 154.425681 
L 161.542721 153.84344 
L 165.101583 154.425681 
L 168.661761 150.349994 
L 172.222925 147.438789 
L 175.792971 150.932235 
L 179.351833 149.767753 
L 182.920563 149.185512 
L 186.478767 148.02103 
L 190.032367 148.603271 
L 193.590571 148.603271 
L 197.158643 162.285935 
L 200.718821 161.994814 
L 204.29084 159.083609 
L 207.849373 160.830332 
L 211.408235 161.994814 
L 214.968413 161.994814 
L 218.523658 161.994814 
L 222.082191 166.070501 
L 225.646316 164.323778 
L 229.205178 163.741537 
L 232.768316 163.741537 
L 236.327836 163.741537 
L 239.894593 163.741537 
L 243.453455 163.741537 
L 247.02054 163.159296 
L 250.580718 160.248091 
L 254.133989 159.66585 
L 257.692851 161.412573 
L 261.261909 160.248091 
L 264.820443 163.159296 
L 268.382265 164.323778 
L 271.940799 164.323778 
L 275.50591 155.590163 
L 279.065759 161.994814 
L 282.629226 161.994814 
L 286.188089 156.463524 
L 289.749911 153.84344 
L 293.308445 152.096717 
L 296.878819 155.007922 
L 300.437023 157.919127 
L 304.002464 231.863736 
L 307.559681 162.577055 
L 307.940236 162.577055 
L 308.159294 159.083609 
L 308.553663 159.66585 
L 312.103316 153.84344 
L 313.922875 153.84344 
L 314.618201 152.678958 
L 318.167525 152.096717 
L 321.726058 152.678958 
L 325.193482 152.096717 
L 325.551342 152.096717 
L 329.097376 152.096717 
L 332.656897 148.02103 
L 336.209838 142.780861 
L 339.775608 144.527584 
L 343.333483 144.527584 
L 346.92754 144.527584 
L 350.486402 144.527584 
L 354.06171 144.527584 
L 357.621559 144.527584 
L 361.182723 147.438789 
L 364.741257 152.096717 
L 368.293541 157.336886 
L 370.382481 157.336886 
L 373.929173 156.172404 
L 377.563357 155.007922 
L 381.121891 152.096717 
L 384.682069 156.754645 
L 388.240602 157.336886 
L 391.801767 154.425681 
L 395.361616 157.919127 
L 398.917189 155.007922 
L 402.475722 158.501368 
L 406.034255 157.336886 
L 409.592789 157.919127 
L 413.145731 158.501368 
L 416.705251 159.083609 
L 420.25885 159.66585 
L 423.817712 158.210247 
L 427.378548 141.034137 
L 430.937082 147.438789 
L 434.490352 152.096717 
L 438.048557 151.514476 
L 441.60413 150.932235 
L 445.162663 152.678958 
L 448.718894 154.425681 
L 452.277427 155.007922 
L 455.834974 155.590163 
L 459.393507 156.754645 
L 462.954014 158.501368 
L 466.512548 159.66585 
" clip-path="url(#pf67051d155)" style="fill: none; stroke: #cc79a7; stroke-width: 1.6; stroke-linecap: square"/>
   </g>
   <g id="patch_3">
    <path d="M 40.403457 241.878281 
L 40.403457 21.558281 
" style="fill: none; stroke: #6a6155; stroke-width: 0.8; stroke-linejoin: miter; stroke-linecap: square"/>
   </g>
   <g id="patch_4">
    <path d="M 40.403457 241.878281 
L 486.803457 241.878281 
" style="fill: none; stroke: #6a6155; stroke-width: 0.8; stroke-linejoin: miter; stroke-linecap: square"/>
   </g>
   <g id="text_18">
    <text style="font-size: 11px; font-family: 'DejaVu Sans', 'Helvetica', 'Arial', sans-serif; text-anchor: middle; fill: #1b1712" x="263.603457" y="15.558281" transform="rotate(-0 263.603457 15.558281)">Prediction-market winner odds (Polymarket, 3-hour snapshots)</text>
   </g>
   <g id="legend_1">
    <g id="line2d_37">
     <path d="M 126.511738 283.856753 
L 135.011738 283.856753 
L 143.511738 283.856753 
" style="fill: none; stroke: #0072b2; stroke-width: 1.6; stroke-linecap: square"/>
    </g>
    <g id="text_19">
     <text style="font-size: 8.5px; font-family: 'DejaVu Sans', 'Helvetica', 'Arial', sans-serif; text-anchor: start" x="150.311738" y="286.831753" transform="rotate(-0 150.311738 286.831753)">France</text>
    </g>
    <g id="line2d_38">
     <path d="M 195.575566 283.856753 
L 204.075566 283.856753 
L 212.575566 283.856753 
" style="fill: none; stroke: #d55e00; stroke-width: 1.6; stroke-linecap: square"/>
    </g>
    <g id="text_20">
     <text style="font-size: 8.5px; font-family: 'DejaVu Sans', 'Helvetica', 'Arial', sans-serif; text-anchor: start" x="219.375566" y="286.831753" transform="rotate(-0 219.375566 286.831753)">England</text>
    </g>
    <g id="line2d_39">
     <path d="M 270.88291 283.856753 
L 279.38291 283.856753 
L 287.88291 283.856753 
" style="fill: none; stroke: #009e73; stroke-width: 1.6; stroke-linecap: square"/>
    </g>
    <g id="text_21">
     <text style="font-size: 8.5px; font-family: 'DejaVu Sans', 'Helvetica', 'Arial', sans-serif; text-anchor: start" x="294.68291" y="286.831753" transform="rotate(-0 294.68291 286.831753)">Spain</text>
    </g>
    <g id="line2d_40">
     <path d="M 335.432441 283.856753 
L 343.932441 283.856753 
L 352.432441 283.856753 
" style="fill: none; stroke: #cc79a7; stroke-width: 1.6; stroke-linecap: square"/>
    </g>
    <g id="text_22">
     <text style="font-size: 8.5px; font-family: 'DejaVu Sans', 'Helvetica', 'Arial', sans-serif; text-anchor: start" x="359.232441" y="286.831753" transform="rotate(-0 359.232441 286.831753)">Argentina</text>
    </g>
   </g>
  </g>
 </g>
 <defs>
  <clipPath id="pf67051d155">
   <rect x="40.403457" y="21.558281" width="446.4" height="220.32"/>
  </clipPath>
 </defs>
</svg>
