<?xml version="1.0" encoding="utf-8" standalone="no"?>
<!DOCTYPE svg PUBLIC "-//W3C//DTD SVG 1.1//EN"
  "http://www.w3.org/Graphics/SVG/1.1/DTD/svg11.dtd">
<svg xmlns:xlink="http://www.w3.org/1999/xlink" width="494.190021pt" height="299.473745pt" viewBox="0 0 494.190021 299.473745" xmlns="http://www.w3.org/2000/svg" version="1.1">
 <metadata>
  <rdf:RDF xmlns:dc="http://purl.org/dc/elements/1.1/" xmlns:cc="http://creativecommons.org/ns#" xmlns:rdf="http://www.w3.org/1999/02/22-rdf-syntax-ns#">
   <cc:Work>
    <dc:type rdf:resource="http://purl.org/dc/dcmitype/StillImage"/>
    <dc:date>2026-07-13T01:54:22.780804</dc:date>
    <dc:format>image/svg+xml</dc:format>
    <dc:creator>
     <cc:Agent>
      <dc:title>Matplotlib v3.11.0, https://matplotlib.org/</dc:title>
     </cc:Agent>
    </dc:creator>
   </cc:Work>
  </rdf:RDF>
 </metadata>
 <defs>
  <style type="text/css">*{stroke-linejoin: round; stroke-linecap: butt}</style>
 </defs>
 <g id="figure_1">
  <g id="patch_1">
   <path d="M 0 299.473745 
L 494.190021 299.473745 
L 494.190021 0 
L 0 0 
z
" style="fill: #ffffff"/>
  </g>
  <g id="axes_1">
   <g id="patch_2">
    <path d="M 40.590021 241.878281 
L 486.990021 241.878281 
L 486.990021 21.558281 
L 40.590021 21.558281 
z
" style="fill: #fcfaf5"/>
   </g>
   <g id="matplotlib.axis_1">
    <g id="xtick_1">
     <g id="line2d_1">
      <path d="M 55.562302 241.878281 
L 55.562302 21.558281 
" clip-path="url(#pa605ef2cab)" style="fill: none; stroke: #e3ddd0; stroke-width: 0.7; stroke-linecap: square"/>
     </g>
     <g id="line2d_2">
      <defs>
       <path id="md06ab13ba1" d="M 0 0 
L 0 3.5 
" style="stroke: #6a6155; stroke-width: 0.8"/>
      </defs>
      <g>
       <use xlink:href="#md06ab13ba1" x="55.562302" y="241.878281" style="fill: #6a6155; stroke: #6a6155; stroke-width: 0.8"/>
      </g>
     </g>
     <g id="text_1">
      <text style="font-size: 8.5px; font-family: 'DejaVu Sans', 'Helvetica', 'Arial', sans-serif; fill: #6a6155" transform="translate(9.929272 275.60784) rotate(-25)">2026-06-29</text>
     </g>
    </g>
    <g id="xtick_2">
     <g id="line2d_3">
      <path d="M 114.46501 241.878281 
L 114.46501 21.558281 
" clip-path="url(#pa605ef2cab)" style="fill: none; stroke: #e3ddd0; stroke-width: 0.7; stroke-linecap: square"/>
     </g>
     <g id="line2d_4">
      <g>
       <use xlink:href="#md06ab13ba1" x="114.46501" y="241.878281" style="fill: #6a6155; stroke: #6a6155; stroke-width: 0.8"/>
      </g>
     </g>
     <g id="text_2">
      <text style="font-size: 8.5px; font-family: 'DejaVu Sans', 'Helvetica', 'Arial', sans-serif; fill: #6a6155" transform="translate(68.83198 275.60784) rotate(-25)">2026-07-01</text>
     </g>
    </g>
    <g id="xtick_3">
     <g id="line2d_5">
      <path d="M 173.367718 241.878281 
L 173.367718 21.558281 
" clip-path="url(#pa605ef2cab)" style="fill: none; stroke: #e3ddd0; stroke-width: 0.7; stroke-linecap: square"/>
     </g>
     <g id="line2d_6">
      <g>
       <use xlink:href="#md06ab13ba1" x="173.367718" y="241.878281" style="fill: #6a6155; stroke: #6a6155; stroke-width: 0.8"/>
      </g>
     </g>
     <g id="text_3">
      <text style="font-size: 8.5px; font-family: 'DejaVu Sans', 'Helvetica', 'Arial', sans-serif; fill: #6a6155" transform="translate(127.734688 275.60784) rotate(-25)">2026-07-03</text>
     </g>
    </g>
    <g id="xtick_4">
     <g id="line2d_7">
      <path d="M 232.270426 241.878281 
L 232.270426 21.558281 
" clip-path="url(#pa605ef2cab)" style="fill: none; stroke: #e3ddd0; stroke-width: 0.7; stroke-linecap: square"/>
     </g>
     <g id="line2d_8">
      <g>
       <use xlink:href="#md06ab13ba1" x="232.270426" y="241.878281" style="fill: #6a6155; stroke: #6a6155; stroke-width: 0.8"/>
      </g>
     </g>
     <g id="text_4">
      <text style="font-size: 8.5px; font-family: 'DejaVu Sans', 'Helvetica', 'Arial', sans-serif; fill: #6a6155" transform="translate(186.637395 275.60784) rotate(-25)">2026-07-05</text>
     </g>
    </g>
    <g id="xtick_5">
     <g id="line2d_9">
      <path d="M 291.173133 241.878281 
L 291.173133 21.558281 
" clip-path="url(#pa605ef2cab)" style="fill: none; stroke: #e3ddd0; stroke-width: 0.7; stroke-linecap: square"/>
     </g>
     <g id="line2d_10">
      <g>
       <use xlink:href="#md06ab13ba1" x="291.173133" y="241.878281" style="fill: #6a6155; stroke: #6a6155; stroke-width: 0.8"/>
      </g>
     </g>
     <g id="text_5">
      <text style="font-size: 8.5px; font-family: 'DejaVu Sans', 'Helvetica', 'Arial', sans-serif; fill: #6a6155" transform="translate(245.540103 275.60784) rotate(-25)">2026-07-07</text>
     </g>
    </g>
    <g id="xtick_6">
     <g id="line2d_11">
      <path d="M 350.075841 241.878281 
L 350.075841 21.558281 
" clip-path="url(#pa605ef2cab)" style="fill: none; stroke: #e3ddd0; stroke-width: 0.7; stroke-linecap: square"/>
     </g>
     <g id="line2d_12">
      <g>
       <use xlink:href="#md06ab13ba1" x="350.075841" y="241.878281" style="fill: #6a6155; stroke: #6a6155; stroke-width: 0.8"/>
      </g>
     </g>
     <g id="text_6">
      <text style="font-size: 8.5px; font-family: 'DejaVu Sans', 'Helvetica', 'Arial', sans-serif; fill: #6a6155" transform="translate(304.442811 275.60784) rotate(-25)">2026-07-09</text>
     </g>
    </g>
    <g id="xtick_7">
     <g id="line2d_13">
      <path d="M 408.978549 241.878281 
L 408.978549 21.558281 
" clip-path="url(#pa605ef2cab)" style="fill: none; stroke: #e3ddd0; stroke-width: 0.7; stroke-linecap: square"/>
     </g>
     <g id="line2d_14">
      <g>
       <use xlink:href="#md06ab13ba1" x="408.978549" y="241.878281" style="fill: #6a6155; stroke: #6a6155; stroke-width: 0.8"/>
      </g>
     </g>
     <g id="text_7">
      <text style="font-size: 8.5px; font-family: 'DejaVu Sans', 'Helvetica', 'Arial', sans-serif; fill: #6a6155" transform="translate(363.345519 275.60784) rotate(-25)">2026-07-11</text>
     </g>
    </g>
    <g id="xtick_8">
     <g id="line2d_15">
      <path d="M 467.881257 241.878281 
L 467.881257 21.558281 
" clip-path="url(#pa605ef2cab)" style="fill: none; stroke: #e3ddd0; stroke-width: 0.7; stroke-linecap: square"/>
     </g>
     <g id="line2d_16">
      <g>
       <use xlink:href="#md06ab13ba1" x="467.881257" y="241.878281" style="fill: #6a6155; stroke: #6a6155; stroke-width: 0.8"/>
      </g>
     </g>
     <g id="text_8">
      <text style="font-size: 8.5px; font-family: 'DejaVu Sans', 'Helvetica', 'Arial', sans-serif; fill: #6a6155" transform="translate(422.248227 275.60784) rotate(-25)">2026-07-13</text>
     </g>
    </g>
   </g>
   <g id="matplotlib.axis_2">
    <g id="ytick_1">
     <g id="line2d_17">
      <path d="M 40.590021 232.154856 
L 486.990021 232.154856 
" clip-path="url(#pa605ef2cab)" style="fill: none; stroke: #e3ddd0; stroke-width: 0.7; stroke-linecap: square"/>
     </g>
     <g id="line2d_18">
      <defs>
       <path id="m4de7a75414" d="M 0 0 
L -3.5 0 
" style="stroke: #6a6155; stroke-width: 0.8"/>
      </defs>
      <g>
       <use xlink:href="#m4de7a75414" x="40.590021" y="232.154856" style="fill: #6a6155; stroke: #6a6155; stroke-width: 0.8"/>
      </g>
     </g>
     <g id="text_9">
      <text style="font-size: 8.5px; font-family: 'DejaVu Sans', 'Helvetica', 'Arial', sans-serif; text-anchor: end; fill: #6a6155" x="33.590021" y="235.38386" transform="rotate(-0 33.590021 235.38386)">5</text>
     </g>
    </g>
    <g id="ytick_2">
     <g id="line2d_19">
      <path d="M 40.590021 203.042806 
L 486.990021 203.042806 
" clip-path="url(#pa605ef2cab)" style="fill: none; stroke: #e3ddd0; stroke-width: 0.7; stroke-linecap: square"/>
     </g>
     <g id="line2d_20">
      <g>
       <use xlink:href="#m4de7a75414" x="40.590021" y="203.042806" style="fill: #6a6155; stroke: #6a6155; stroke-width: 0.8"/>
      </g>
     </g>
     <g id="text_10">
      <text style="font-size: 8.5px; font-family: 'DejaVu Sans', 'Helvetica', 'Arial', sans-serif; text-anchor: end; fill: #6a6155" x="33.590021" y="206.271809" transform="rotate(-0 33.590021 206.271809)">10</text>
     </g>
    </g>
    <g id="ytick_3">
     <g id="line2d_21">
      <path d="M 40.590021 173.930755 
L 486.990021 173.930755 
" clip-path="url(#pa605ef2cab)" style="fill: none; stroke: #e3ddd0; stroke-width: 0.7; stroke-linecap: square"/>
     </g>
     <g id="line2d_22">
      <g>
       <use xlink:href="#m4de7a75414" x="40.590021" y="173.930755" style="fill: #6a6155; stroke: #6a6155; stroke-width: 0.8"/>
      </g>
     </g>
     <g id="text_11">
      <text style="font-size: 8.5px; font-family: 'DejaVu Sans', 'Helvetica', 'Arial', sans-serif; text-anchor: end; fill: #6a6155" x="33.590021" y="177.159759" transform="rotate(-0 33.590021 177.159759)">15</text>
     </g>
    </g>
    <g id="ytick_4">
     <g id="line2d_23">
      <path d="M 40.590021 144.818704 
L 486.990021 144.818704 
" clip-path="url(#pa605ef2cab)" style="fill: none; stroke: #e3ddd0; stroke-width: 0.7; stroke-linecap: square"/>
     </g>
     <g id="line2d_24">
      <g>
       <use xlink:href="#m4de7a75414" x="40.590021" y="144.818704" style="fill: #6a6155; stroke: #6a6155; stroke-width: 0.8"/>
      </g>
     </g>
     <g id="text_12">
      <text style="font-size: 8.5px; font-family: 'DejaVu Sans', 'Helvetica', 'Arial', sans-serif; text-anchor: end; fill: #6a6155" x="33.590021" y="148.047708" transform="rotate(-0 33.590021 148.047708)">20</text>
     </g>
    </g>
    <g id="ytick_5">
     <g id="line2d_25">
      <path d="M 40.590021 115.706653 
L 486.990021 115.706653 
" clip-path="url(#pa605ef2cab)" style="fill: none; stroke: #e3ddd0; stroke-width: 0.7; stroke-linecap: square"/>
     </g>
     <g id="line2d_26">
      <g>
       <use xlink:href="#m4de7a75414" x="40.590021" y="115.706653" style="fill: #6a6155; stroke: #6a6155; stroke-width: 0.8"/>
      </g>
     </g>
     <g id="text_13">
      <text style="font-size: 8.5px; font-family: 'DejaVu Sans', 'Helvetica', 'Arial', sans-serif; text-anchor: end; fill: #6a6155" x="33.590021" y="118.935657" transform="rotate(-0 33.590021 118.935657)">25</text>
     </g>
    </g>
    <g id="ytick_6">
     <g id="line2d_27">
      <path d="M 40.590021 86.594603 
L 486.990021 86.594603 
" clip-path="url(#pa605ef2cab)" style="fill: none; stroke: #e3ddd0; stroke-width: 0.7; stroke-linecap: square"/>
     </g>
     <g id="line2d_28">
      <g>
       <use xlink:href="#m4de7a75414" x="40.590021" y="86.594603" style="fill: #6a6155; stroke: #6a6155; stroke-width: 0.8"/>
      </g>
     </g>
     <g id="text_14">
      <text style="font-size: 8.5px; font-family: 'DejaVu Sans', 'Helvetica', 'Arial', sans-serif; text-anchor: end; fill: #6a6155" x="33.590021" y="89.823607" transform="rotate(-0 33.590021 89.823607)">30</text>
     </g>
    </g>
    <g id="ytick_7">
     <g id="line2d_29">
      <path d="M 40.590021 57.482552 
L 486.990021 57.482552 
" clip-path="url(#pa605ef2cab)" style="fill: none; stroke: #e3ddd0; stroke-width: 0.7; stroke-linecap: square"/>
     </g>
     <g id="line2d_30">
      <g>
       <use xlink:href="#m4de7a75414" x="40.590021" y="57.482552" style="fill: #6a6155; stroke: #6a6155; stroke-width: 0.8"/>
      </g>
     </g>
     <g id="text_15">
      <text style="font-size: 8.5px; font-family: 'DejaVu Sans', 'Helvetica', 'Arial', sans-serif; text-anchor: end; fill: #6a6155" x="33.590021" y="60.711556" transform="rotate(-0 33.590021 60.711556)">35</text>
     </g>
    </g>
    <g id="ytick_8">
     <g id="line2d_31">
      <path d="M 40.590021 28.370501 
L 486.990021 28.370501 
" clip-path="url(#pa605ef2cab)" style="fill: none; stroke: #e3ddd0; stroke-width: 0.7; stroke-linecap: square"/>
     </g>
     <g id="line2d_32">
      <g>
       <use xlink:href="#m4de7a75414" x="40.590021" y="28.370501" style="fill: #6a6155; stroke: #6a6155; stroke-width: 0.8"/>
      </g>
     </g>
     <g id="text_16">
      <text style="font-size: 8.5px; font-family: 'DejaVu Sans', 'Helvetica', 'Arial', sans-serif; text-anchor: end; fill: #6a6155" x="33.590021" y="31.599505" transform="rotate(-0 33.590021 31.599505)">40</text>
     </g>
    </g>
    <g id="text_17">
     <text style="font-size: 9.5px; font-family: 'DejaVu Sans', 'Helvetica', 'Arial', sans-serif; text-anchor: middle; fill: #1b1712" x="16.491545" y="131.718281" transform="rotate(-90 16.491545 131.718281)">Implied win probability, %</text>
    </g>
   </g>
   <g id="line2d_33">
    <path d="M 60.88093 127.642594 
L 61.690502 127.642594 
L 61.715726 127.642594 
L 65.403622 124.731389 
L 69.091518 125.895871 
L 72.779755 124.731389 
L 76.470718 124.149148 
L 76.75296 124.149148 
L 80.451764 124.731389 
L 84.201358 124.149148 
L 87.888913 106.681918 
L 91.580899 101.441748 
L 95.270499 92.708133 
L 98.96419 92.125892 
L 102.653449 97.948302 
L 106.337254 97.948302 
L 110.025491 96.201579 
L 113.72259 70.582975 
L 117.412191 67.67177 
L 121.104177 72.329698 
L 124.792414 70.582975 
L 128.486104 70.582975 
L 132.174 71.165216 
L 135.859851 70.582975 
L 139.549792 52.533503 
L 143.2503 52.824624 
L 146.9399 57.191431 
L 150.628818 55.444708 
L 154.317055 56.60919 
L 158.009041 57.191431 
L 161.698641 57.191431 
L 165.3954 59.520395 
L 169.083637 61.267118 
L 172.773237 61.849359 
L 176.46386 61.849359 
L 180.163686 62.4316 
L 183.851923 65.925047 
L 187.550385 67.67177 
L 191.23794 67.67177 
L 194.920723 67.089529 
L 198.608278 67.089529 
L 202.306059 67.089529 
L 205.995659 58.938154 
L 209.697531 61.267118 
L 213.385427 54.862467 
L 217.073663 56.60919 
L 220.763264 56.60919 
L 224.447751 57.191431 
L 228.135646 49.040057 
L 231.829337 50.78678 
L 235.517574 52.533503 
L 239.210242 53.697985 
L 242.89916 53.697985 
L 246.595578 53.697985 
L 250.283814 56.026949 
L 253.980573 59.520395 
L 257.670173 60.102636 
L 261.352615 63.596083 
L 265.040852 63.013842 
L 268.739655 71.165216 
L 272.427551 68.254011 
L 276.118856 71.747457 
L 279.806752 70.582975 
L 283.501465 71.165216 
L 287.190724 70.000734 
L 290.883733 70.000734 
L 294.57197 69.418493 
L 298.263274 68.254011 
L 301.95117 68.836252 
L 305.651337 68.836252 
L 309.338892 70.000734 
L 313.033946 59.811516 
L 316.720479 70.582975 
L 317.114868 70.582975 
L 317.341888 70.582975 
L 317.750594 70.582975 
L 321.429286 68.254011 
L 323.314991 68.836252 
L 324.035595 69.418493 
L 327.713946 70.582975 
L 331.401842 71.165216 
L 334.995316 71.165216 
L 335.366185 71.165216 
L 339.041128 71.165216 
L 342.730046 71.165216 
L 346.412147 71.747457 
L 350.107542 71.747457 
L 353.794756 73.49418 
L 357.519466 74.076421 
L 361.207703 75.240903 
L 364.912983 74.076421 
L 368.602243 74.076421 
L 372.292865 75.240903 
L 375.980761 73.7853 
L 379.66218 35.648514 
L 381.82706 36.230755 
L 385.502684 36.812996 
L 389.26898 36.812996 
L 392.956876 36.812996 
L 396.646476 36.812996 
L 400.334372 36.812996 
L 404.024995 31.572827 
L 407.714254 43.799888 
L 411.399082 43.799888 
L 415.086978 43.799888 
L 418.774874 39.724201 
L 422.46277 37.395237 
L 426.144871 37.395237 
L 429.833789 39.724201 
L 433.516572 37.977478 
L 437.204808 37.395237 
L 440.89509 43.217647 
L 444.582986 36.230755 
L 448.265428 40.888683 
L 451.952983 36.812996 
L 455.637811 35.066273 
L 459.325707 35.066273 
L 463.011216 35.066273 
L 466.699112 35.066273 
" clip-path="url(#pa605ef2cab)" style="fill: none; stroke: #0072b2; stroke-width: 1.6; stroke-linecap: square"/>
   </g>
   <g id="line2d_34">
    <path d="M 60.88093 201.587203 
L 61.690502 201.587203 
L 61.715726 201.587203 
L 65.403622 201.587203 
L 69.091518 201.587203 
L 72.779755 201.587203 
L 76.470718 201.587203 
L 76.75296 201.587203 
L 80.451764 201.587203 
L 84.201358 201.587203 
L 87.888913 202.751685 
L 91.580899 202.169444 
L 95.270499 202.751685 
L 98.96419 202.751685 
L 102.653449 203.333926 
L 106.337254 203.333926 
L 110.025491 203.333926 
L 113.72259 204.498408 
L 117.412191 204.498408 
L 121.104177 206.827372 
L 124.792414 206.827372 
L 128.486104 206.827372 
L 132.174 206.827372 
L 135.859851 226.623567 
L 139.549792 211.4853 
L 143.2503 213.814264 
L 146.9399 213.232023 
L 150.628818 213.814264 
L 154.317055 213.232023 
L 158.009041 213.232023 
L 161.698641 213.814264 
L 165.3954 214.396505 
L 169.083637 216.143228 
L 172.773237 216.725469 
L 176.46386 216.725469 
L 180.163686 219.054433 
L 183.851923 219.054433 
L 187.550385 219.636674 
L 191.23794 219.636674 
L 194.920723 219.636674 
L 198.608278 219.636674 
L 202.306059 217.30771 
L 205.995659 220.801157 
L 209.697531 220.801157 
L 213.385427 216.725469 
L 217.073663 218.472192 
L 220.763264 222.54788 
L 224.447751 221.383398 
L 228.135646 221.965639 
L 231.829337 221.383398 
L 235.517574 221.383398 
L 239.210242 221.965639 
L 242.89916 221.383398 
L 246.595578 221.383398 
L 250.283814 219.636674 
L 253.980573 219.054433 
L 257.670173 217.889951 
L 261.352615 214.396505 
L 265.040852 210.320818 
L 268.739655 178.879803 
L 272.427551 178.879803 
L 276.118856 180.044285 
L 279.806752 179.462044 
L 283.501465 176.550839 
L 287.190724 176.550839 
L 290.883733 176.550839 
L 294.57197 174.804116 
L 298.263274 175.386357 
L 301.95117 177.715321 
L 305.651337 177.715321 
L 309.338892 175.386357 
L 313.033946 139.578535 
L 316.720479 171.31067 
L 317.114868 172.475152 
L 317.341888 172.475152 
L 317.750594 172.475152 
L 321.429286 170.146188 
L 323.314991 169.563947 
L 324.035595 170.146188 
L 327.713946 170.146188 
L 331.401842 170.146188 
L 334.995316 170.146188 
L 335.366185 170.146188 
L 339.041128 168.981706 
L 342.730046 168.981706 
L 346.412147 168.981706 
L 350.107542 168.981706 
L 353.794756 168.399465 
L 357.519466 168.981706 
L 361.207703 168.399465 
L 364.912983 167.817224 
L 368.602243 167.817224 
L 372.292865 167.817224 
L 375.980761 167.234983 
L 379.66218 168.399465 
L 381.82706 168.399465 
L 385.502684 168.399465 
L 389.26898 168.399465 
L 392.956876 168.399465 
L 396.646476 171.31067 
L 400.334372 171.31067 
L 404.024995 171.31067 
L 407.714254 175.968598 
L 411.399082 174.221875 
L 415.086978 176.259719 
L 418.774874 177.13308 
L 422.46277 176.550839 
L 426.144871 177.13308 
L 429.833789 177.13308 
L 433.516572 177.715321 
L 437.204808 191.106865 
L 440.89509 147.438789 
L 444.582986 139.287414 
L 448.265428 139.287414 
L 451.952983 135.793968 
L 455.637811 135.793968 
L 459.325707 135.793968 
L 463.011216 136.376209 
L 466.699112 136.376209 
" clip-path="url(#pa605ef2cab)" style="fill: none; stroke: #d55e00; stroke-width: 1.6; stroke-linecap: square"/>
   </g>
   <g id="line2d_35">
    <path d="M 60.88093 196.347034 
L 61.690502 196.347034 
L 61.715726 196.347034 
L 65.403622 196.929275 
L 69.091518 196.929275 
L 72.779755 196.347034 
L 76.470718 196.347034 
L 76.75296 196.347034 
L 80.451764 196.929275 
L 84.201358 194.600311 
L 87.888913 195.182552 
L 91.580899 195.764793 
L 95.270499 195.764793 
L 98.96419 195.764793 
L 102.653449 195.182552 
L 106.337254 195.182552 
L 110.025491 195.764793 
L 113.72259 196.929275 
L 117.412191 202.751685 
L 121.104177 202.751685 
L 124.792414 202.169444 
L 128.486104 201.004962 
L 132.174 201.587203 
L 135.859851 201.004962 
L 139.549792 202.751685 
L 143.2503 201.587203 
L 146.9399 202.751685 
L 150.628818 202.751685 
L 154.317055 203.333926 
L 158.009041 202.751685 
L 161.698641 203.333926 
L 165.3954 199.84048 
L 169.083637 193.144708 
L 172.773237 187.031178 
L 176.46386 188.19566 
L 180.163686 188.777901 
L 183.851923 189.942383 
L 187.550385 188.19566 
L 191.23794 184.702214 
L 194.920723 187.031178 
L 198.608278 186.448937 
L 202.306059 189.360142 
L 205.995659 184.993334 
L 209.697531 189.360142 
L 213.385427 189.942383 
L 217.073663 189.942383 
L 220.763264 187.031178 
L 224.447751 189.360142 
L 228.135646 189.360142 
L 231.829337 189.360142 
L 235.517574 188.19566 
L 239.210242 188.777901 
L 242.89916 188.19566 
L 246.595578 188.777901 
L 250.283814 189.360142 
L 253.980573 189.360142 
L 257.670173 188.777901 
L 261.352615 187.613419 
L 265.040852 188.19566 
L 268.739655 186.448937 
L 272.427551 186.448937 
L 276.118856 187.031178 
L 279.806752 188.777901 
L 283.501465 183.828852 
L 287.190724 194.01807 
L 290.883733 154.425681 
L 294.57197 152.678958 
L 298.263274 153.84344 
L 301.95117 155.007922 
L 305.651337 156.754645 
L 309.338892 150.932235 
L 313.033946 146.565427 
L 316.720479 152.096717 
L 317.114868 152.096717 
L 317.341888 152.096717 
L 317.750594 152.096717 
L 321.429286 153.261199 
L 323.314991 153.261199 
L 324.035595 153.261199 
L 327.713946 153.261199 
L 331.401842 153.261199 
L 334.995316 153.261199 
L 335.366185 153.261199 
L 339.041128 152.096717 
L 342.730046 152.096717 
L 346.412147 152.096717 
L 350.107542 152.096717 
L 353.794756 152.096717 
L 357.519466 152.096717 
L 361.207703 152.096717 
L 364.912983 150.349994 
L 368.602243 149.185512 
L 372.292865 148.603271 
L 375.980761 150.349994 
L 379.66218 159.66585 
L 381.82706 160.830332 
L 385.502684 160.830332 
L 389.26898 161.412573 
L 392.956876 164.323778 
L 396.646476 165.48826 
L 400.334372 165.48826 
L 404.024995 168.981706 
L 407.714254 138.705173 
L 411.399082 138.122932 
L 415.086978 138.122932 
L 418.774874 138.122932 
L 422.46277 138.122932 
L 426.144871 139.287414 
L 429.833789 139.287414 
L 433.516572 139.287414 
L 437.204808 139.869655 
L 440.89509 146.274307 
L 444.582986 144.527584 
L 448.265428 145.109825 
L 451.952983 145.109825 
L 455.637811 144.527584 
L 459.325707 144.527584 
L 463.011216 143.363102 
L 466.699112 141.616379 
" clip-path="url(#pa605ef2cab)" style="fill: none; stroke: #009e73; stroke-width: 1.6; stroke-linecap: square"/>
   </g>
   <g id="line2d_36">
    <path d="M 60.88093 142.19862 
L 61.690502 140.451896 
L 61.715726 140.451896 
L 65.403622 139.869655 
L 69.091518 139.869655 
L 72.779755 139.869655 
L 76.470718 139.869655 
L 76.75296 139.869655 
L 80.451764 146.856548 
L 84.201358 147.438789 
L 87.888913 143.363102 
L 91.580899 145.109825 
L 95.270499 148.603271 
L 98.96419 148.603271 
L 102.653449 148.603271 
L 106.337254 148.603271 
L 110.025491 148.603271 
L 113.72259 149.185512 
L 117.412191 156.172404 
L 121.104177 155.007922 
L 124.792414 154.425681 
L 128.486104 150.932235 
L 132.174 148.603271 
L 135.859851 146.856548 
L 139.549792 154.425681 
L 143.2503 155.590163 
L 146.9399 156.172404 
L 150.628818 156.172404 
L 154.317055 156.172404 
L 158.009041 155.590163 
L 161.698641 154.425681 
L 165.3954 153.84344 
L 169.083637 154.425681 
L 172.773237 150.349994 
L 176.46386 147.438789 
L 180.163686 150.932235 
L 183.851923 149.767753 
L 187.550385 149.185512 
L 191.23794 148.02103 
L 194.920723 148.603271 
L 198.608278 148.603271 
L 202.306059 162.285935 
L 205.995659 161.994814 
L 209.697531 159.083609 
L 213.385427 160.830332 
L 217.073663 161.994814 
L 220.763264 161.994814 
L 224.447751 161.994814 
L 228.135646 166.070501 
L 231.829337 164.323778 
L 235.517574 163.741537 
L 239.210242 163.741537 
L 242.89916 163.741537 
L 246.595578 163.741537 
L 250.283814 163.741537 
L 253.980573 163.159296 
L 257.670173 160.248091 
L 261.352615 159.66585 
L 265.040852 161.412573 
L 268.739655 160.248091 
L 272.427551 163.159296 
L 276.118856 164.323778 
L 279.806752 164.323778 
L 283.501465 155.590163 
L 287.190724 161.994814 
L 290.883733 161.994814 
L 294.57197 156.463524 
L 298.263274 153.84344 
L 301.95117 152.096717 
L 305.651337 155.007922 
L 309.338892 157.919127 
L 313.033946 231.863736 
L 316.720479 162.577055 
L 317.114868 162.577055 
L 317.341888 159.083609 
L 317.750594 159.66585 
L 321.429286 153.84344 
L 323.314991 153.84344 
L 324.035595 152.678958 
L 327.713946 152.096717 
L 331.401842 152.678958 
L 334.995316 152.096717 
L 335.366185 152.096717 
L 339.041128 152.096717 
L 342.730046 148.02103 
L 346.412147 142.780861 
L 350.107542 144.527584 
L 353.794756 144.527584 
L 357.519466 144.527584 
L 361.207703 144.527584 
L 364.912983 144.527584 
L 368.602243 144.527584 
L 372.292865 147.438789 
L 375.980761 152.096717 
L 379.66218 157.336886 
L 381.82706 157.336886 
L 385.502684 156.172404 
L 389.26898 155.007922 
L 392.956876 152.096717 
L 396.646476 156.754645 
L 400.334372 157.336886 
L 404.024995 154.425681 
L 407.714254 157.919127 
L 411.399082 155.007922 
L 415.086978 158.501368 
L 418.774874 157.336886 
L 422.46277 157.919127 
L 426.144871 158.501368 
L 429.833789 159.083609 
L 433.516572 159.66585 
L 437.204808 158.210247 
L 440.89509 141.034137 
L 444.582986 147.438789 
L 448.265428 152.096717 
L 451.952983 151.514476 
L 455.637811 150.932235 
L 459.325707 152.678958 
L 463.011216 154.425681 
L 466.699112 155.007922 
" clip-path="url(#pa605ef2cab)" style="fill: none; stroke: #cc79a7; stroke-width: 1.6; stroke-linecap: square"/>
   </g>
   <g id="patch_3">
    <path d="M 40.590021 241.878281 
L 40.590021 21.558281 
" style="fill: none; stroke: #6a6155; stroke-width: 0.8; stroke-linejoin: miter; stroke-linecap: square"/>
   </g>
   <g id="patch_4">
    <path d="M 40.590021 241.878281 
L 486.990021 241.878281 
" style="fill: none; stroke: #6a6155; stroke-width: 0.8; stroke-linejoin: miter; stroke-linecap: square"/>
   </g>
   <g id="text_18">
    <text style="font-size: 11px; font-family: 'DejaVu Sans', 'Helvetica', 'Arial', sans-serif; text-anchor: middle; fill: #1b1712" x="263.790021" y="15.558281" transform="rotate(-0 263.790021 15.558281)">Prediction-market winner odds (Polymarket, 3-hour snapshots)</text>
   </g>
   <g id="legend_1">
    <g id="line2d_37">
     <path d="M 126.698303 283.856753 
L 135.198303 283.856753 
L 143.698303 283.856753 
" style="fill: none; stroke: #0072b2; stroke-width: 1.6; stroke-linecap: square"/>
    </g>
    <g id="text_19">
     <text style="font-size: 8.5px; font-family: 'DejaVu Sans', 'Helvetica', 'Arial', sans-serif; text-anchor: start" x="150.498303" y="286.831753" transform="rotate(-0 150.498303 286.831753)">France</text>
    </g>
    <g id="line2d_38">
     <path d="M 195.762131 283.856753 
L 204.262131 283.856753 
L 212.762131 283.856753 
" style="fill: none; stroke: #d55e00; stroke-width: 1.6; stroke-linecap: square"/>
    </g>
    <g id="text_20">
     <text style="font-size: 8.5px; font-family: 'DejaVu Sans', 'Helvetica', 'Arial', sans-serif; text-anchor: start" x="219.562131" y="286.831753" transform="rotate(-0 219.562131 286.831753)">England</text>
    </g>
    <g id="line2d_39">
     <path d="M 271.069474 283.856753 
L 279.569474 283.856753 
L 288.069474 283.856753 
" style="fill: none; stroke: #009e73; stroke-width: 1.6; stroke-linecap: square"/>
    </g>
    <g id="text_21">
     <text style="font-size: 8.5px; font-family: 'DejaVu Sans', 'Helvetica', 'Arial', sans-serif; text-anchor: start" x="294.869474" y="286.831753" transform="rotate(-0 294.869474 286.831753)">Spain</text>
    </g>
    <g id="line2d_40">
     <path d="M 335.619006 283.856753 
L 344.119006 283.856753 
L 352.619006 283.856753 
" style="fill: none; stroke: #cc79a7; stroke-width: 1.6; stroke-linecap: square"/>
    </g>
    <g id="text_22">
     <text style="font-size: 8.5px; font-family: 'DejaVu Sans', 'Helvetica', 'Arial', sans-serif; text-anchor: start" x="359.419006" y="286.831753" transform="rotate(-0 359.419006 286.831753)">Argentina</text>
    </g>
   </g>
  </g>
 </g>
 <defs>
  <clipPath id="pa605ef2cab">
   <rect x="40.590021" y="21.558281" width="446.4" height="220.32"/>
  </clipPath>
 </defs>
</svg>
