<?xml version="1.0" encoding="utf-8" standalone="no"?>
<!DOCTYPE svg PUBLIC "-//W3C//DTD SVG 1.1//EN"
  "http://www.w3.org/Graphics/SVG/1.1/DTD/svg11.dtd">
<svg xmlns:xlink="http://www.w3.org/1999/xlink" width="583.619766pt" height="332.716145pt" viewBox="0 0 583.619766 332.716145" xmlns="http://www.w3.org/2000/svg" version="1.1">
 <metadata>
  <rdf:RDF xmlns:dc="http://purl.org/dc/elements/1.1/" xmlns:cc="http://creativecommons.org/ns#" xmlns:rdf="http://www.w3.org/1999/02/22-rdf-syntax-ns#">
   <cc:Work>
    <dc:type rdf:resource="http://purl.org/dc/dcmitype/StillImage"/>
    <dc:date>2026-07-19T23:24:48.464100</dc:date>
    <dc:format>image/svg+xml</dc:format>
    <dc:creator>
     <cc:Agent>
      <dc:title>Matplotlib v3.11.0, https://matplotlib.org/</dc:title>
     </cc:Agent>
    </dc:creator>
   </cc:Work>
  </rdf:RDF>
 </metadata>
 <defs>
  <style type="text/css">*{stroke-linejoin: round; stroke-linecap: butt}</style>
 </defs>
 <g id="figure_1">
  <g id="patch_1">
   <path d="M 0 332.716145 
L 583.619766 332.716145 
L 583.619766 0 
L 0 0 
z
" style="fill: #ffffff"/>
  </g>
  <g id="axes_1">
   <g id="patch_2">
    <path d="M 68.609883 271.038281 
L 515.009883 271.038281 
L 515.009883 21.558281 
L 68.609883 21.558281 
z
" style="fill: #fcfaf5"/>
   </g>
   <g id="matplotlib.axis_1">
    <g id="xtick_1">
     <g id="line2d_1">
      <path d="M 125.763164 271.038281 
L 125.763164 21.558281 
" clip-path="url(#pdfbc67efb1)" style="fill: none; stroke: #e3ddd0; stroke-width: 0.7; stroke-linecap: square"/>
     </g>
     <g id="line2d_2">
      <defs>
       <path id="mf315de7f5a" d="M 0 0 
L 0 3.5 
" style="stroke: #6a6155; stroke-width: 0.8"/>
      </defs>
      <g>
       <use xlink:href="#mf315de7f5a" x="125.763164" y="271.038281" style="fill: #6a6155; stroke: #6a6155; stroke-width: 0.8"/>
      </g>
     </g>
     <g id="text_1">
      <text style="font-size: 8.5px; font-family: 'DejaVu Sans', 'Helvetica', 'Arial', sans-serif; text-anchor: middle; fill: #6a6155" x="125.763164" y="284.496289" transform="rotate(-0 125.763164 284.496289)">GK</text>
     </g>
    </g>
    <g id="xtick_2">
     <g id="line2d_3">
      <path d="M 208.786523 271.038281 
L 208.786523 21.558281 
" clip-path="url(#pdfbc67efb1)" style="fill: none; stroke: #e3ddd0; stroke-width: 0.7; stroke-linecap: square"/>
     </g>
     <g id="line2d_4">
      <g>
       <use xlink:href="#mf315de7f5a" x="208.786523" y="271.038281" style="fill: #6a6155; stroke: #6a6155; stroke-width: 0.8"/>
      </g>
     </g>
     <g id="text_2">
      <text style="font-size: 8.5px; font-family: 'DejaVu Sans', 'Helvetica', 'Arial', sans-serif; text-anchor: middle; fill: #6a6155" x="208.786523" y="284.496289" transform="rotate(-0 208.786523 284.496289)">DEF</text>
     </g>
    </g>
    <g id="xtick_3">
     <g id="line2d_5">
      <path d="M 291.809883 271.038281 
L 291.809883 21.558281 
" clip-path="url(#pdfbc67efb1)" style="fill: none; stroke: #e3ddd0; stroke-width: 0.7; stroke-linecap: square"/>
     </g>
     <g id="line2d_6">
      <g>
       <use xlink:href="#mf315de7f5a" x="291.809883" y="271.038281" style="fill: #6a6155; stroke: #6a6155; stroke-width: 0.8"/>
      </g>
     </g>
     <g id="text_3">
      <text style="font-size: 8.5px; font-family: 'DejaVu Sans', 'Helvetica', 'Arial', sans-serif; text-anchor: middle; fill: #6a6155" x="291.809883" y="284.496289" transform="rotate(-0 291.809883 284.496289)">MID</text>
     </g>
    </g>
    <g id="xtick_4">
     <g id="line2d_7">
      <path d="M 374.833242 271.038281 
L 374.833242 21.558281 
" clip-path="url(#pdfbc67efb1)" style="fill: none; stroke: #e3ddd0; stroke-width: 0.7; stroke-linecap: square"/>
     </g>
     <g id="line2d_8">
      <g>
       <use xlink:href="#mf315de7f5a" x="374.833242" y="271.038281" style="fill: #6a6155; stroke: #6a6155; stroke-width: 0.8"/>
      </g>
     </g>
     <g id="text_4">
      <text style="font-size: 8.5px; font-family: 'DejaVu Sans', 'Helvetica', 'Arial', sans-serif; text-anchor: middle; fill: #6a6155" x="374.833242" y="284.496289" transform="rotate(-0 374.833242 284.496289)">FWD</text>
     </g>
    </g>
    <g id="xtick_5">
     <g id="line2d_9">
      <path d="M 457.856602 271.038281 
L 457.856602 21.558281 
" clip-path="url(#pdfbc67efb1)" style="fill: none; stroke: #e3ddd0; stroke-width: 0.7; stroke-linecap: square"/>
     </g>
     <g id="line2d_10">
      <g>
       <use xlink:href="#mf315de7f5a" x="457.856602" y="271.038281" style="fill: #6a6155; stroke: #6a6155; stroke-width: 0.8"/>
      </g>
     </g>
     <g id="text_5">
      <text style="font-size: 8.5px; font-family: 'DejaVu Sans', 'Helvetica', 'Arial', sans-serif; text-anchor: middle; fill: #6a6155" x="457.856602" y="284.496289" transform="rotate(-0 457.856602 284.496289)">ALL</text>
     </g>
    </g>
   </g>
   <g id="matplotlib.axis_2">
    <g id="ytick_1">
     <g id="line2d_11">
      <path d="M 68.609883 271.038281 
L 515.009883 271.038281 
" clip-path="url(#pdfbc67efb1)" style="fill: none; stroke: #e3ddd0; stroke-width: 0.7; stroke-linecap: square"/>
     </g>
     <g id="line2d_12">
      <defs>
       <path id="m6160ae2da1" d="M 0 0 
L -3.5 0 
" style="stroke: #6a6155; stroke-width: 0.8"/>
      </defs>
      <g>
       <use xlink:href="#m6160ae2da1" x="68.609883" y="271.038281" style="fill: #6a6155; stroke: #6a6155; stroke-width: 0.8"/>
      </g>
     </g>
     <g id="text_6">
      <text style="font-size: 8.5px; font-family: 'DejaVu Sans', 'Helvetica', 'Arial', sans-serif; text-anchor: end; fill: #6a6155" x="61.609883" y="274.267285" transform="rotate(-0 61.609883 274.267285)">0.0</text>
     </g>
    </g>
    <g id="ytick_2">
     <g id="line2d_13">
      <path d="M 68.609883 237.075175 
L 515.009883 237.075175 
" clip-path="url(#pdfbc67efb1)" style="fill: none; stroke: #e3ddd0; stroke-width: 0.7; stroke-linecap: square"/>
     </g>
     <g id="line2d_14">
      <g>
       <use xlink:href="#m6160ae2da1" x="68.609883" y="237.075175" style="fill: #6a6155; stroke: #6a6155; stroke-width: 0.8"/>
      </g>
     </g>
     <g id="text_7">
      <text style="font-size: 8.5px; font-family: 'DejaVu Sans', 'Helvetica', 'Arial', sans-serif; text-anchor: end; fill: #6a6155" x="61.609883" y="240.304179" transform="rotate(-0 61.609883 240.304179)">0.5</text>
     </g>
    </g>
    <g id="ytick_3">
     <g id="line2d_15">
      <path d="M 68.609883 203.112068 
L 515.009883 203.112068 
" clip-path="url(#pdfbc67efb1)" style="fill: none; stroke: #e3ddd0; stroke-width: 0.7; stroke-linecap: square"/>
     </g>
     <g id="line2d_16">
      <g>
       <use xlink:href="#m6160ae2da1" x="68.609883" y="203.112068" style="fill: #6a6155; stroke: #6a6155; stroke-width: 0.8"/>
      </g>
     </g>
     <g id="text_8">
      <text style="font-size: 8.5px; font-family: 'DejaVu Sans', 'Helvetica', 'Arial', sans-serif; text-anchor: end; fill: #6a6155" x="61.609883" y="206.341072" transform="rotate(-0 61.609883 206.341072)">1.0</text>
     </g>
    </g>
    <g id="ytick_4">
     <g id="line2d_17">
      <path d="M 68.609883 169.148961 
L 515.009883 169.148961 
" clip-path="url(#pdfbc67efb1)" style="fill: none; stroke: #e3ddd0; stroke-width: 0.7; stroke-linecap: square"/>
     </g>
     <g id="line2d_18">
      <g>
       <use xlink:href="#m6160ae2da1" x="68.609883" y="169.148961" style="fill: #6a6155; stroke: #6a6155; stroke-width: 0.8"/>
      </g>
     </g>
     <g id="text_9">
      <text style="font-size: 8.5px; font-family: 'DejaVu Sans', 'Helvetica', 'Arial', sans-serif; text-anchor: end; fill: #6a6155" x="61.609883" y="172.377965" transform="rotate(-0 61.609883 172.377965)">1.5</text>
     </g>
    </g>
    <g id="ytick_5">
     <g id="line2d_19">
      <path d="M 68.609883 135.185855 
L 515.009883 135.185855 
" clip-path="url(#pdfbc67efb1)" style="fill: none; stroke: #e3ddd0; stroke-width: 0.7; stroke-linecap: square"/>
     </g>
     <g id="line2d_20">
      <g>
       <use xlink:href="#m6160ae2da1" x="68.609883" y="135.185855" style="fill: #6a6155; stroke: #6a6155; stroke-width: 0.8"/>
      </g>
     </g>
     <g id="text_10">
      <text style="font-size: 8.5px; font-family: 'DejaVu Sans', 'Helvetica', 'Arial', sans-serif; text-anchor: end; fill: #6a6155" x="61.609883" y="138.414859" transform="rotate(-0 61.609883 138.414859)">2.0</text>
     </g>
    </g>
    <g id="ytick_6">
     <g id="line2d_21">
      <path d="M 68.609883 101.222748 
L 515.009883 101.222748 
" clip-path="url(#pdfbc67efb1)" style="fill: none; stroke: #e3ddd0; stroke-width: 0.7; stroke-linecap: square"/>
     </g>
     <g id="line2d_22">
      <g>
       <use xlink:href="#m6160ae2da1" x="68.609883" y="101.222748" style="fill: #6a6155; stroke: #6a6155; stroke-width: 0.8"/>
      </g>
     </g>
     <g id="text_11">
      <text style="font-size: 8.5px; font-family: 'DejaVu Sans', 'Helvetica', 'Arial', sans-serif; text-anchor: end; fill: #6a6155" x="61.609883" y="104.451752" transform="rotate(-0 61.609883 104.451752)">2.5</text>
     </g>
    </g>
    <g id="ytick_7">
     <g id="line2d_23">
      <path d="M 68.609883 67.259641 
L 515.009883 67.259641 
" clip-path="url(#pdfbc67efb1)" style="fill: none; stroke: #e3ddd0; stroke-width: 0.7; stroke-linecap: square"/>
     </g>
     <g id="line2d_24">
      <g>
       <use xlink:href="#m6160ae2da1" x="68.609883" y="67.259641" style="fill: #6a6155; stroke: #6a6155; stroke-width: 0.8"/>
      </g>
     </g>
     <g id="text_12">
      <text style="font-size: 8.5px; font-family: 'DejaVu Sans', 'Helvetica', 'Arial', sans-serif; text-anchor: end; fill: #6a6155" x="61.609883" y="70.488645" transform="rotate(-0 61.609883 70.488645)">3.0</text>
     </g>
    </g>
    <g id="ytick_8">
     <g id="line2d_25">
      <path d="M 68.609883 33.296535 
L 515.009883 33.296535 
" clip-path="url(#pdfbc67efb1)" style="fill: none; stroke: #e3ddd0; stroke-width: 0.7; stroke-linecap: square"/>
     </g>
     <g id="line2d_26">
      <g>
       <use xlink:href="#m6160ae2da1" x="68.609883" y="33.296535" style="fill: #6a6155; stroke: #6a6155; stroke-width: 0.8"/>
      </g>
     </g>
     <g id="text_13">
      <text style="font-size: 8.5px; font-family: 'DejaVu Sans', 'Helvetica', 'Arial', sans-serif; text-anchor: end; fill: #6a6155" x="61.609883" y="36.525539" transform="rotate(-0 61.609883 36.525539)">3.5</text>
     </g>
    </g>
    <g id="text_14">
     <text style="font-size: 9.5px; font-family: 'DejaVu Sans', 'Helvetica', 'Arial', sans-serif; text-anchor: middle; fill: #1b1712" x="41.81" y="146.298281" transform="rotate(-90 41.81 146.298281)">Pooled RMSE, realized WC rounds</text>
    </g>
   </g>
   <g id="patch_3">
    <path d="M 88.900792 271.038281 
L 100.358016 271.038281 
L 100.358016 33.438281 
L 88.900792 33.438281 
z
" clip-path="url(#pdfbc67efb1)" style="fill: #b8b0a1"/>
   </g>
   <g id="patch_4">
    <path d="M 171.924152 271.038281 
L 183.381375 271.038281 
L 183.381375 61.712608 
L 171.924152 61.712608 
z
" clip-path="url(#pdfbc67efb1)" style="fill: #b8b0a1"/>
   </g>
   <g id="patch_5">
    <path d="M 254.947511 271.038281 
L 266.404735 271.038281 
L 266.404735 63.859003 
L 254.947511 63.859003 
z
" clip-path="url(#pdfbc67efb1)" style="fill: #b8b0a1"/>
   </g>
   <g id="patch_6">
    <path d="M 337.970871 271.038281 
L 349.428094 271.038281 
L 349.428094 55.404134 
L 337.970871 55.404134 
z
" clip-path="url(#pdfbc67efb1)" style="fill: #b8b0a1"/>
   </g>
   <g id="patch_7">
    <path d="M 420.99423 271.038281 
L 432.451454 271.038281 
L 432.451454 57.631629 
L 420.99423 57.631629 
z
" clip-path="url(#pdfbc67efb1)" style="fill: #b8b0a1"/>
   </g>
   <g id="patch_8">
    <path d="M 101.354296 271.038281 
L 112.811519 271.038281 
L 112.811519 45.897683 
L 101.354296 45.897683 
z
" clip-path="url(#pdfbc67efb1)" style="fill: #e69f00"/>
   </g>
   <g id="patch_9">
    <path d="M 184.377655 271.038281 
L 195.834879 271.038281 
L 195.834879 72.666966 
L 184.377655 72.666966 
z
" clip-path="url(#pdfbc67efb1)" style="fill: #e69f00"/>
   </g>
   <g id="patch_10">
    <path d="M 267.401015 271.038281 
L 278.858239 271.038281 
L 278.858239 83.308302 
L 267.401015 83.308302 
z
" clip-path="url(#pdfbc67efb1)" style="fill: #e69f00"/>
   </g>
   <g id="patch_11">
    <path d="M 350.424375 271.038281 
L 361.881598 271.038281 
L 361.881598 69.329201 
L 350.424375 69.329201 
z
" clip-path="url(#pdfbc67efb1)" style="fill: #e69f00"/>
   </g>
   <g id="patch_12">
    <path d="M 433.447734 271.038281 
L 444.904958 271.038281 
L 444.904958 72.3054 
L 433.447734 72.3054 
z
" clip-path="url(#pdfbc67efb1)" style="fill: #e69f00"/>
   </g>
   <g id="patch_13">
    <path d="M 113.8078 271.038281 
L 125.265023 271.038281 
L 125.265023 107.718567 
L 113.8078 107.718567 
z
" clip-path="url(#pdfbc67efb1)" style="fill: #0072b2"/>
   </g>
   <g id="patch_14">
    <path d="M 196.831159 271.038281 
L 208.288383 271.038281 
L 208.288383 77.47967 
L 196.831159 77.47967 
z
" clip-path="url(#pdfbc67efb1)" style="fill: #0072b2"/>
   </g>
   <g id="patch_15">
    <path d="M 279.854519 271.038281 
L 291.311743 271.038281 
L 291.311743 92.990558 
L 279.854519 92.990558 
z
" clip-path="url(#pdfbc67efb1)" style="fill: #0072b2"/>
   </g>
   <g id="patch_16">
    <path d="M 362.877879 271.038281 
L 374.335102 271.038281 
L 374.335102 83.606296 
L 362.877879 83.606296 
z
" clip-path="url(#pdfbc67efb1)" style="fill: #0072b2"/>
   </g>
   <g id="patch_17">
    <path d="M 445.901238 271.038281 
L 457.358462 271.038281 
L 457.358462 87.672942 
L 445.901238 87.672942 
z
" clip-path="url(#pdfbc67efb1)" style="fill: #0072b2"/>
   </g>
   <g id="patch_18">
    <path d="M 126.261304 271.038281 
L 137.718527 271.038281 
L 137.718527 107.812637 
L 126.261304 107.812637 
z
" clip-path="url(#pdfbc67efb1)" style="fill: #d55e00"/>
   </g>
   <g id="patch_19">
    <path d="M 209.284663 271.038281 
L 220.741887 271.038281 
L 220.741887 78.144075 
L 209.284663 78.144075 
z
" clip-path="url(#pdfbc67efb1)" style="fill: #d55e00"/>
   </g>
   <g id="patch_20">
    <path d="M 292.308023 271.038281 
L 303.765247 271.038281 
L 303.765247 91.988175 
L 292.308023 91.988175 
z
" clip-path="url(#pdfbc67efb1)" style="fill: #d55e00"/>
   </g>
   <g id="patch_21">
    <path d="M 375.331383 271.038281 
L 386.788606 271.038281 
L 386.788606 80.644086 
L 375.331383 80.644086 
z
" clip-path="url(#pdfbc67efb1)" style="fill: #d55e00"/>
   </g>
   <g id="patch_22">
    <path d="M 458.354742 271.038281 
L 469.811966 271.038281 
L 469.811966 86.962239 
L 458.354742 86.962239 
z
" clip-path="url(#pdfbc67efb1)" style="fill: #d55e00"/>
   </g>
   <g id="patch_23">
    <path d="M 138.714808 271.038281 
L 150.172031 271.038281 
L 150.172031 116.478032 
L 138.714808 116.478032 
z
" clip-path="url(#pdfbc67efb1)" style="fill: #009e73"/>
   </g>
   <g id="patch_24">
    <path d="M 221.738167 271.038281 
L 233.195391 271.038281 
L 233.195391 78.366825 
L 221.738167 78.366825 
z
" clip-path="url(#pdfbc67efb1)" style="fill: #009e73"/>
   </g>
   <g id="patch_25">
    <path d="M 304.761527 271.038281 
L 316.218751 271.038281 
L 316.218751 99.206261 
L 304.761527 99.206261 
z
" clip-path="url(#pdfbc67efb1)" style="fill: #009e73"/>
   </g>
   <g id="patch_26">
    <path d="M 387.784887 271.038281 
L 399.24211 271.038281 
L 399.24211 85.006395 
L 387.784887 85.006395 
z
" clip-path="url(#pdfbc67efb1)" style="fill: #009e73"/>
   </g>
   <g id="patch_27">
    <path d="M 470.808246 271.038281 
L 482.26547 271.038281 
L 482.26547 91.350106 
L 470.808246 91.350106 
z
" clip-path="url(#pdfbc67efb1)" style="fill: #009e73"/>
   </g>
   <g id="patch_28">
    <path d="M 151.168312 271.038281 
L 162.625535 271.038281 
L 162.625535 109.142948 
L 151.168312 109.142948 
z
" clip-path="url(#pdfbc67efb1)" style="fill: #cc79a7"/>
   </g>
   <g id="patch_29">
    <path d="M 234.191671 271.038281 
L 245.648895 271.038281 
L 245.648895 78.654682 
L 234.191671 78.654682 
z
" clip-path="url(#pdfbc67efb1)" style="fill: #cc79a7"/>
   </g>
   <g id="patch_30">
    <path d="M 317.215031 271.038281 
L 328.672254 271.038281 
L 328.672254 95.257758 
L 317.215031 95.257758 
z
" clip-path="url(#pdfbc67efb1)" style="fill: #cc79a7"/>
   </g>
   <g id="patch_31">
    <path d="M 400.23839 271.038281 
L 411.695614 271.038281 
L 411.695614 83.172327 
L 400.23839 83.172327 
z
" clip-path="url(#pdfbc67efb1)" style="fill: #cc79a7"/>
   </g>
   <g id="patch_32">
    <path d="M 483.26175 271.038281 
L 494.718974 271.038281 
L 494.718974 88.933059 
L 483.26175 88.933059 
z
" clip-path="url(#pdfbc67efb1)" style="fill: #cc79a7"/>
   </g>
   <g id="patch_33">
    <path d="M 68.609883 271.038281 
L 68.609883 21.558281 
" style="fill: none; stroke: #6a6155; stroke-width: 0.8; stroke-linejoin: miter; stroke-linecap: square"/>
   </g>
   <g id="patch_34">
    <path d="M 68.609883 271.038281 
L 515.009883 271.038281 
" style="fill: none; stroke: #6a6155; stroke-width: 0.8; stroke-linejoin: miter; stroke-linecap: square"/>
   </g>
   <g id="text_15">
    <text style="font-size: 11px; font-family: 'DejaVu Sans', 'Helvetica', 'Arial', sans-serif; text-anchor: middle; fill: #1b1712" x="291.809883" y="15.558281" transform="rotate(-0 291.809883 15.558281)">Walk-forward validation on realized World Cup rounds (train strictly before each round)</text>
   </g>
   <g id="legend_1">
    <g id="patch_35">
     <path d="M 10.6 320.074153 
L 27.6 320.074153 
L 27.6 314.124153 
L 10.6 314.124153 
z
" style="fill: #b8b0a1"/>
    </g>
    <g id="text_16">
     <text style="font-size: 8.5px; font-family: 'DejaVu Sans', 'Helvetica', 'Arial', sans-serif; text-anchor: start" x="34.4" y="320.074153" transform="rotate(-0 34.4 320.074153)">A_epl_noform</text>
    </g>
    <g id="patch_36">
     <path d="M 109.108359 320.074153 
L 126.108359 320.074153 
L 126.108359 314.124153 
L 109.108359 314.124153 
z
" style="fill: #e69f00"/>
    </g>
    <g id="text_17">
     <text style="font-size: 8.5px; font-family: 'DejaVu Sans', 'Helvetica', 'Arial', sans-serif; text-anchor: start" x="132.908359" y="320.074153" transform="rotate(-0 132.908359 320.074153)">B_epl_form</text>
    </g>
    <g id="patch_37">
     <path d="M 197.046172 320.074153 
L 214.046172 320.074153 
L 214.046172 314.124153 
L 197.046172 314.124153 
z
" style="fill: #0072b2"/>
    </g>
    <g id="text_18">
     <text style="font-size: 8.5px; font-family: 'DejaVu Sans', 'Helvetica', 'Arial', sans-serif; text-anchor: start" x="220.846172" y="320.074153" transform="rotate(-0 220.846172 320.074153)">C_eplwc_form</text>
    </g>
    <g id="patch_38">
     <path d="M 296.712656 320.074153 
L 313.712656 320.074153 
L 313.712656 314.124153 
L 296.712656 314.124153 
z
" style="fill: #d55e00"/>
    </g>
    <g id="text_19">
     <text style="font-size: 8.5px; font-family: 'DejaVu Sans', 'Helvetica', 'Arial', sans-serif; text-anchor: start" x="320.512656" y="320.074153" transform="rotate(-0 320.512656 320.074153)">D_eplwc_all</text>
    </g>
    <g id="patch_39">
     <path d="M 387.102188 320.074153 
L 404.102188 320.074153 
L 404.102188 314.124153 
L 387.102188 314.124153 
z
" style="fill: #009e73"/>
    </g>
    <g id="text_20">
     <text style="font-size: 8.5px; font-family: 'DejaVu Sans', 'Helvetica', 'Arial', sans-serif; text-anchor: start" x="410.902188" y="320.074153" transform="rotate(-0 410.902188 320.074153)">E_eplwc_xg</text>
    </g>
    <g id="patch_40">
     <path d="M 476.813047 320.074153 
L 493.813047 320.074153 
L 493.813047 314.124153 
L 476.813047 314.124153 
z
" style="fill: #cc79a7"/>
    </g>
    <g id="text_21">
     <text style="font-size: 8.5px; font-family: 'DejaVu Sans', 'Helvetica', 'Arial', sans-serif; text-anchor: start" x="500.613047" y="320.074153" transform="rotate(-0 500.613047 320.074153)">F_eplwc_minutes</text>
    </g>
   </g>
  </g>
 </g>
 <defs>
  <clipPath id="pdfbc67efb1">
   <rect x="68.609883" y="21.558281" width="446.4" height="249.48"/>
  </clipPath>
 </defs>
</svg>
