<?xml version="1.0" encoding="utf-8" standalone="no"?>
<!DOCTYPE svg PUBLIC "-//W3C//DTD SVG 1.1//EN"
  "http://www.w3.org/Graphics/SVG/1.1/DTD/svg11.dtd">
<svg xmlns:xlink="http://www.w3.org/1999/xlink" width="452.885117pt" height="275.834705pt" viewBox="0 0 452.885117 275.834705" xmlns="http://www.w3.org/2000/svg" version="1.1">
 <metadata>
  <rdf:RDF xmlns:dc="http://purl.org/dc/elements/1.1/" xmlns:cc="http://creativecommons.org/ns#" xmlns:rdf="http://www.w3.org/1999/02/22-rdf-syntax-ns#">
   <cc:Work>
    <dc:type rdf:resource="http://purl.org/dc/dcmitype/StillImage"/>
    <dc:date>2026-07-13T01:54:22.851490</dc:date>
    <dc:format>image/svg+xml</dc:format>
    <dc:creator>
     <cc:Agent>
      <dc:title>Matplotlib v3.11.0, https://matplotlib.org/</dc:title>
     </cc:Agent>
    </dc:creator>
   </cc:Work>
  </rdf:RDF>
 </metadata>
 <defs>
  <style type="text/css">*{stroke-linejoin: round; stroke-linecap: butt}</style>
 </defs>
 <g id="figure_1">
  <g id="patch_1">
   <path d="M 0 275.834705 
L 452.885117 275.834705 
L 452.885117 0 
L 0 0 
z
" style="fill: #ffffff"/>
  </g>
  <g id="axes_1">
   <g id="patch_2">
    <path d="M 43.925117 221.142281 
L 445.685117 221.142281 
L 445.685117 21.558281 
L 43.925117 21.558281 
z
" style="fill: #fcfaf5"/>
   </g>
   <g id="matplotlib.axis_1">
    <g id="xtick_1">
     <g id="line2d_1">
      <path d="M 70.883039 221.142281 
L 70.883039 21.558281 
" clip-path="url(#p9801a7ee42)" style="fill: none; stroke: #e3ddd0; stroke-width: 0.7; stroke-linecap: square"/>
     </g>
     <g id="line2d_2">
      <defs>
       <path id="m5478658d5c" d="M 0 0 
L 0 3.5 
" style="stroke: #6a6155; stroke-width: 0.8"/>
      </defs>
      <g>
       <use xlink:href="#m5478658d5c" x="70.883039" y="221.142281" style="fill: #6a6155; stroke: #6a6155; stroke-width: 0.8"/>
      </g>
     </g>
     <g id="text_1">
      <text style="font-size: 8.5px; font-family: 'DejaVu Sans', 'Helvetica', 'Arial', sans-serif; text-anchor: middle; fill: #6a6155" x="70.883039" y="234.600289" transform="rotate(-0 70.883039 234.600289)">06-20</text>
     </g>
    </g>
    <g id="xtick_2">
     <g id="line2d_3">
      <path d="M 95.72905 221.142281 
L 95.72905 21.558281 
" clip-path="url(#p9801a7ee42)" style="fill: none; stroke: #e3ddd0; stroke-width: 0.7; stroke-linecap: square"/>
     </g>
     <g id="line2d_4">
      <g>
       <use xlink:href="#m5478658d5c" x="95.72905" y="221.142281" style="fill: #6a6155; stroke: #6a6155; stroke-width: 0.8"/>
      </g>
     </g>
     <g id="text_2">
      <text style="font-size: 8.5px; font-family: 'DejaVu Sans', 'Helvetica', 'Arial', sans-serif; text-anchor: middle; fill: #6a6155" x="95.72905" y="234.600289" transform="rotate(-0 95.72905 234.600289)">06-26</text>
     </g>
    </g>
    <g id="xtick_3">
     <g id="line2d_5">
      <path d="M 120.575062 221.142281 
L 120.575062 21.558281 
" clip-path="url(#p9801a7ee42)" style="fill: none; stroke: #e3ddd0; stroke-width: 0.7; stroke-linecap: square"/>
     </g>
     <g id="line2d_6">
      <g>
       <use xlink:href="#m5478658d5c" x="120.575062" y="221.142281" style="fill: #6a6155; stroke: #6a6155; stroke-width: 0.8"/>
      </g>
     </g>
     <g id="text_3">
      <text style="font-size: 8.5px; font-family: 'DejaVu Sans', 'Helvetica', 'Arial', sans-serif; text-anchor: middle; fill: #6a6155" x="120.575062" y="234.600289" transform="rotate(-0 120.575062 234.600289)">06-28</text>
     </g>
    </g>
    <g id="xtick_4">
     <g id="line2d_7">
      <path d="M 145.421073 221.142281 
L 145.421073 21.558281 
" clip-path="url(#p9801a7ee42)" style="fill: none; stroke: #e3ddd0; stroke-width: 0.7; stroke-linecap: square"/>
     </g>
     <g id="line2d_8">
      <g>
       <use xlink:href="#m5478658d5c" x="145.421073" y="221.142281" style="fill: #6a6155; stroke: #6a6155; stroke-width: 0.8"/>
      </g>
     </g>
     <g id="text_4">
      <text style="font-size: 8.5px; font-family: 'DejaVu Sans', 'Helvetica', 'Arial', sans-serif; text-anchor: middle; fill: #6a6155" x="145.421073" y="234.600289" transform="rotate(-0 145.421073 234.600289)">06-30</text>
     </g>
    </g>
    <g id="xtick_5">
     <g id="line2d_9">
      <path d="M 170.267084 221.142281 
L 170.267084 21.558281 
" clip-path="url(#p9801a7ee42)" style="fill: none; stroke: #e3ddd0; stroke-width: 0.7; stroke-linecap: square"/>
     </g>
     <g id="line2d_10">
      <g>
       <use xlink:href="#m5478658d5c" x="170.267084" y="221.142281" style="fill: #6a6155; stroke: #6a6155; stroke-width: 0.8"/>
      </g>
     </g>
     <g id="text_5">
      <text style="font-size: 8.5px; font-family: 'DejaVu Sans', 'Helvetica', 'Arial', sans-serif; text-anchor: middle; fill: #6a6155" x="170.267084" y="234.600289" transform="rotate(-0 170.267084 234.600289)">07-01</text>
     </g>
    </g>
    <g id="xtick_6">
     <g id="line2d_11">
      <path d="M 195.113095 221.142281 
L 195.113095 21.558281 
" clip-path="url(#p9801a7ee42)" style="fill: none; stroke: #e3ddd0; stroke-width: 0.7; stroke-linecap: square"/>
     </g>
     <g id="line2d_12">
      <g>
       <use xlink:href="#m5478658d5c" x="195.113095" y="221.142281" style="fill: #6a6155; stroke: #6a6155; stroke-width: 0.8"/>
      </g>
     </g>
     <g id="text_6">
      <text style="font-size: 8.5px; font-family: 'DejaVu Sans', 'Helvetica', 'Arial', sans-serif; text-anchor: middle; fill: #6a6155" x="195.113095" y="234.600289" transform="rotate(-0 195.113095 234.600289)">07-03</text>
     </g>
    </g>
    <g id="xtick_7">
     <g id="line2d_13">
      <path d="M 219.959106 221.142281 
L 219.959106 21.558281 
" clip-path="url(#p9801a7ee42)" style="fill: none; stroke: #e3ddd0; stroke-width: 0.7; stroke-linecap: square"/>
     </g>
     <g id="line2d_14">
      <g>
       <use xlink:href="#m5478658d5c" x="219.959106" y="221.142281" style="fill: #6a6155; stroke: #6a6155; stroke-width: 0.8"/>
      </g>
     </g>
     <g id="text_7">
      <text style="font-size: 8.5px; font-family: 'DejaVu Sans', 'Helvetica', 'Arial', sans-serif; text-anchor: middle; fill: #6a6155" x="219.959106" y="234.600289" transform="rotate(-0 219.959106 234.600289)">07-04</text>
     </g>
    </g>
    <g id="xtick_8">
     <g id="line2d_15">
      <path d="M 244.805117 221.142281 
L 244.805117 21.558281 
" clip-path="url(#p9801a7ee42)" style="fill: none; stroke: #e3ddd0; stroke-width: 0.7; stroke-linecap: square"/>
     </g>
     <g id="line2d_16">
      <g>
       <use xlink:href="#m5478658d5c" x="244.805117" y="221.142281" style="fill: #6a6155; stroke: #6a6155; stroke-width: 0.8"/>
      </g>
     </g>
     <g id="text_8">
      <text style="font-size: 8.5px; font-family: 'DejaVu Sans', 'Helvetica', 'Arial', sans-serif; text-anchor: middle; fill: #6a6155" x="244.805117" y="234.600289" transform="rotate(-0 244.805117 234.600289)">07-05</text>
     </g>
    </g>
    <g id="xtick_9">
     <g id="line2d_17">
      <path d="M 269.651128 221.142281 
L 269.651128 21.558281 
" clip-path="url(#p9801a7ee42)" style="fill: none; stroke: #e3ddd0; stroke-width: 0.7; stroke-linecap: square"/>
     </g>
     <g id="line2d_18">
      <g>
       <use xlink:href="#m5478658d5c" x="269.651128" y="221.142281" style="fill: #6a6155; stroke: #6a6155; stroke-width: 0.8"/>
      </g>
     </g>
     <g id="text_9">
      <text style="font-size: 8.5px; font-family: 'DejaVu Sans', 'Helvetica', 'Arial', sans-serif; text-anchor: middle; fill: #6a6155" x="269.651128" y="234.600289" transform="rotate(-0 269.651128 234.600289)">07-06</text>
     </g>
    </g>
    <g id="xtick_10">
     <g id="line2d_19">
      <path d="M 294.497139 221.142281 
L 294.497139 21.558281 
" clip-path="url(#p9801a7ee42)" style="fill: none; stroke: #e3ddd0; stroke-width: 0.7; stroke-linecap: square"/>
     </g>
     <g id="line2d_20">
      <g>
       <use xlink:href="#m5478658d5c" x="294.497139" y="221.142281" style="fill: #6a6155; stroke: #6a6155; stroke-width: 0.8"/>
      </g>
     </g>
     <g id="text_10">
      <text style="font-size: 8.5px; font-family: 'DejaVu Sans', 'Helvetica', 'Arial', sans-serif; text-anchor: middle; fill: #6a6155" x="294.497139" y="234.600289" transform="rotate(-0 294.497139 234.600289)">07-07</text>
     </g>
    </g>
    <g id="xtick_11">
     <g id="line2d_21">
      <path d="M 319.343151 221.142281 
L 319.343151 21.558281 
" clip-path="url(#p9801a7ee42)" style="fill: none; stroke: #e3ddd0; stroke-width: 0.7; stroke-linecap: square"/>
     </g>
     <g id="line2d_22">
      <g>
       <use xlink:href="#m5478658d5c" x="319.343151" y="221.142281" style="fill: #6a6155; stroke: #6a6155; stroke-width: 0.8"/>
      </g>
     </g>
     <g id="text_11">
      <text style="font-size: 8.5px; font-family: 'DejaVu Sans', 'Helvetica', 'Arial', sans-serif; text-anchor: middle; fill: #6a6155" x="319.343151" y="234.600289" transform="rotate(-0 319.343151 234.600289)">07-08</text>
     </g>
    </g>
    <g id="xtick_12">
     <g id="line2d_23">
      <path d="M 344.189162 221.142281 
L 344.189162 21.558281 
" clip-path="url(#p9801a7ee42)" style="fill: none; stroke: #e3ddd0; stroke-width: 0.7; stroke-linecap: square"/>
     </g>
     <g id="line2d_24">
      <g>
       <use xlink:href="#m5478658d5c" x="344.189162" y="221.142281" style="fill: #6a6155; stroke: #6a6155; stroke-width: 0.8"/>
      </g>
     </g>
     <g id="text_12">
      <text style="font-size: 8.5px; font-family: 'DejaVu Sans', 'Helvetica', 'Arial', sans-serif; text-anchor: middle; fill: #6a6155" x="344.189162" y="234.600289" transform="rotate(-0 344.189162 234.600289)">07-09</text>
     </g>
    </g>
    <g id="xtick_13">
     <g id="line2d_25">
      <path d="M 369.035173 221.142281 
L 369.035173 21.558281 
" clip-path="url(#p9801a7ee42)" style="fill: none; stroke: #e3ddd0; stroke-width: 0.7; stroke-linecap: square"/>
     </g>
     <g id="line2d_26">
      <g>
       <use xlink:href="#m5478658d5c" x="369.035173" y="221.142281" style="fill: #6a6155; stroke: #6a6155; stroke-width: 0.8"/>
      </g>
     </g>
     <g id="text_13">
      <text style="font-size: 8.5px; font-family: 'DejaVu Sans', 'Helvetica', 'Arial', sans-serif; text-anchor: middle; fill: #6a6155" x="369.035173" y="234.600289" transform="rotate(-0 369.035173 234.600289)">07-10</text>
     </g>
    </g>
    <g id="xtick_14">
     <g id="line2d_27">
      <path d="M 393.881184 221.142281 
L 393.881184 21.558281 
" clip-path="url(#p9801a7ee42)" style="fill: none; stroke: #e3ddd0; stroke-width: 0.7; stroke-linecap: square"/>
     </g>
     <g id="line2d_28">
      <g>
       <use xlink:href="#m5478658d5c" x="393.881184" y="221.142281" style="fill: #6a6155; stroke: #6a6155; stroke-width: 0.8"/>
      </g>
     </g>
     <g id="text_14">
      <text style="font-size: 8.5px; font-family: 'DejaVu Sans', 'Helvetica', 'Arial', sans-serif; text-anchor: middle; fill: #6a6155" x="393.881184" y="234.600289" transform="rotate(-0 393.881184 234.600289)">07-11</text>
     </g>
    </g>
    <g id="xtick_15">
     <g id="line2d_29">
      <path d="M 418.727195 221.142281 
L 418.727195 21.558281 
" clip-path="url(#p9801a7ee42)" style="fill: none; stroke: #e3ddd0; stroke-width: 0.7; stroke-linecap: square"/>
     </g>
     <g id="line2d_30">
      <g>
       <use xlink:href="#m5478658d5c" x="418.727195" y="221.142281" style="fill: #6a6155; stroke: #6a6155; stroke-width: 0.8"/>
      </g>
     </g>
     <g id="text_15">
      <text style="font-size: 8.5px; font-family: 'DejaVu Sans', 'Helvetica', 'Arial', sans-serif; text-anchor: middle; fill: #6a6155" x="418.727195" y="234.600289" transform="rotate(-0 418.727195 234.600289)">07-12</text>
     </g>
    </g>
   </g>
   <g id="matplotlib.axis_2">
    <g id="ytick_1">
     <g id="line2d_31">
      <path d="M 43.925117 221.142281 
L 445.685117 221.142281 
" clip-path="url(#p9801a7ee42)" style="fill: none; stroke: #e3ddd0; stroke-width: 0.7; stroke-linecap: square"/>
     </g>
     <g id="line2d_32">
      <defs>
       <path id="mef441cd680" d="M 0 0 
L -3.5 0 
" style="stroke: #6a6155; stroke-width: 0.8"/>
      </defs>
      <g>
       <use xlink:href="#mef441cd680" x="43.925117" y="221.142281" style="fill: #6a6155; stroke: #6a6155; stroke-width: 0.8"/>
      </g>
     </g>
     <g id="text_16">
      <text style="font-size: 8.5px; font-family: 'DejaVu Sans', 'Helvetica', 'Arial', sans-serif; text-anchor: end; fill: #6a6155" x="36.925117" y="224.371285" transform="rotate(-0 36.925117 224.371285)">0</text>
     </g>
    </g>
    <g id="ytick_2">
     <g id="line2d_33">
      <path d="M 43.925117 182.271116 
L 445.685117 182.271116 
" clip-path="url(#p9801a7ee42)" style="fill: none; stroke: #e3ddd0; stroke-width: 0.7; stroke-linecap: square"/>
     </g>
     <g id="line2d_34">
      <g>
       <use xlink:href="#mef441cd680" x="43.925117" y="182.271116" style="fill: #6a6155; stroke: #6a6155; stroke-width: 0.8"/>
      </g>
     </g>
     <g id="text_17">
      <text style="font-size: 8.5px; font-family: 'DejaVu Sans', 'Helvetica', 'Arial', sans-serif; text-anchor: end; fill: #6a6155" x="36.925117" y="185.50012" transform="rotate(-0 36.925117 185.50012)">100</text>
     </g>
    </g>
    <g id="ytick_3">
     <g id="line2d_35">
      <path d="M 43.925117 143.39995 
L 445.685117 143.39995 
" clip-path="url(#p9801a7ee42)" style="fill: none; stroke: #e3ddd0; stroke-width: 0.7; stroke-linecap: square"/>
     </g>
     <g id="line2d_36">
      <g>
       <use xlink:href="#mef441cd680" x="43.925117" y="143.39995" style="fill: #6a6155; stroke: #6a6155; stroke-width: 0.8"/>
      </g>
     </g>
     <g id="text_18">
      <text style="font-size: 8.5px; font-family: 'DejaVu Sans', 'Helvetica', 'Arial', sans-serif; text-anchor: end; fill: #6a6155" x="36.925117" y="146.628954" transform="rotate(-0 36.925117 146.628954)">200</text>
     </g>
    </g>
    <g id="ytick_4">
     <g id="line2d_37">
      <path d="M 43.925117 104.528784 
L 445.685117 104.528784 
" clip-path="url(#p9801a7ee42)" style="fill: none; stroke: #e3ddd0; stroke-width: 0.7; stroke-linecap: square"/>
     </g>
     <g id="line2d_38">
      <g>
       <use xlink:href="#mef441cd680" x="43.925117" y="104.528784" style="fill: #6a6155; stroke: #6a6155; stroke-width: 0.8"/>
      </g>
     </g>
     <g id="text_19">
      <text style="font-size: 8.5px; font-family: 'DejaVu Sans', 'Helvetica', 'Arial', sans-serif; text-anchor: end; fill: #6a6155" x="36.925117" y="107.757788" transform="rotate(-0 36.925117 107.757788)">300</text>
     </g>
    </g>
    <g id="ytick_5">
     <g id="line2d_39">
      <path d="M 43.925117 65.657619 
L 445.685117 65.657619 
" clip-path="url(#p9801a7ee42)" style="fill: none; stroke: #e3ddd0; stroke-width: 0.7; stroke-linecap: square"/>
     </g>
     <g id="line2d_40">
      <g>
       <use xlink:href="#mef441cd680" x="43.925117" y="65.657619" style="fill: #6a6155; stroke: #6a6155; stroke-width: 0.8"/>
      </g>
     </g>
     <g id="text_20">
      <text style="font-size: 8.5px; font-family: 'DejaVu Sans', 'Helvetica', 'Arial', sans-serif; text-anchor: end; fill: #6a6155" x="36.925117" y="68.886623" transform="rotate(-0 36.925117 68.886623)">400</text>
     </g>
    </g>
    <g id="ytick_6">
     <g id="line2d_41">
      <path d="M 43.925117 26.786453 
L 445.685117 26.786453 
" clip-path="url(#p9801a7ee42)" style="fill: none; stroke: #e3ddd0; stroke-width: 0.7; stroke-linecap: square"/>
     </g>
     <g id="line2d_42">
      <g>
       <use xlink:href="#mef441cd680" x="43.925117" y="26.786453" style="fill: #6a6155; stroke: #6a6155; stroke-width: 0.8"/>
      </g>
     </g>
     <g id="text_21">
      <text style="font-size: 8.5px; font-family: 'DejaVu Sans', 'Helvetica', 'Arial', sans-serif; text-anchor: end; fill: #6a6155" x="36.925117" y="30.015457" transform="rotate(-0 36.925117 30.015457)">500</text>
     </g>
    </g>
    <g id="text_22">
     <text style="font-size: 9.5px; font-family: 'DejaVu Sans', 'Helvetica', 'Arial', sans-serif; text-anchor: middle; fill: #1b1712" x="14.418516" y="121.350281" transform="rotate(-90 14.418516 121.350281)">Signal rows</text>
    </g>
   </g>
   <g id="patch_3">
    <path d="M 62.186935 221.142281 
L 79.579143 221.142281 
L 79.579143 220.75357 
L 62.186935 220.75357 
z
" clip-path="url(#p9801a7ee42)" style="fill: #a8620a"/>
   </g>
   <g id="patch_4">
    <path d="M 87.032947 221.142281 
L 104.425154 221.142281 
L 104.425154 220.364858 
L 87.032947 220.364858 
z
" clip-path="url(#p9801a7ee42)" style="fill: #a8620a"/>
   </g>
   <g id="patch_5">
    <path d="M 111.878958 221.142281 
L 129.271165 221.142281 
L 129.271165 220.364858 
L 111.878958 220.364858 
z
" clip-path="url(#p9801a7ee42)" style="fill: #a8620a"/>
   </g>
   <g id="patch_6">
    <path d="M 136.724969 221.142281 
L 154.117177 221.142281 
L 154.117177 220.75357 
L 136.724969 220.75357 
z
" clip-path="url(#p9801a7ee42)" style="fill: #a8620a"/>
   </g>
   <g id="patch_7">
    <path d="M 161.57098 221.142281 
L 178.963188 221.142281 
L 178.963188 220.364858 
L 161.57098 220.364858 
z
" clip-path="url(#p9801a7ee42)" style="fill: #a8620a"/>
   </g>
   <g id="patch_8">
    <path d="M 186.416991 221.142281 
L 203.809199 221.142281 
L 203.809199 218.4213 
L 186.416991 218.4213 
z
" clip-path="url(#p9801a7ee42)" style="fill: #a8620a"/>
   </g>
   <g id="patch_9">
    <path d="M 211.263002 221.142281 
L 228.65521 221.142281 
L 228.65521 211.813201 
L 211.263002 211.813201 
z
" clip-path="url(#p9801a7ee42)" style="fill: #a8620a"/>
   </g>
   <g id="patch_10">
    <path d="M 236.109013 221.142281 
L 253.501221 221.142281 
L 253.501221 211.42449 
L 236.109013 211.42449 
z
" clip-path="url(#p9801a7ee42)" style="fill: #a8620a"/>
   </g>
   <g id="patch_11">
    <path d="M 260.955024 221.142281 
L 278.347232 221.142281 
L 278.347232 204.42768 
L 260.955024 204.42768 
z
" clip-path="url(#p9801a7ee42)" style="fill: #a8620a"/>
   </g>
   <g id="patch_12">
    <path d="M 285.801036 221.142281 
L 303.193243 221.142281 
L 303.193243 42.723631 
L 285.801036 42.723631 
z
" clip-path="url(#p9801a7ee42)" style="fill: #a8620a"/>
   </g>
   <g id="patch_13">
    <path d="M 310.647047 221.142281 
L 328.039254 221.142281 
L 328.039254 125.130502 
L 310.647047 125.130502 
z
" clip-path="url(#p9801a7ee42)" style="fill: #a8620a"/>
   </g>
   <g id="patch_14">
    <path d="M 335.493058 221.142281 
L 352.885266 221.142281 
L 352.885266 98.309398 
L 335.493058 98.309398 
z
" clip-path="url(#p9801a7ee42)" style="fill: #a8620a"/>
   </g>
   <g id="patch_15">
    <path d="M 360.339069 221.142281 
L 377.731277 221.142281 
L 377.731277 73.04314 
L 360.339069 73.04314 
z
" clip-path="url(#p9801a7ee42)" style="fill: #a8620a"/>
   </g>
   <g id="patch_16">
    <path d="M 385.18508 221.142281 
L 402.577288 221.142281 
L 402.577288 71.099582 
L 385.18508 71.099582 
z
" clip-path="url(#p9801a7ee42)" style="fill: #a8620a"/>
   </g>
   <g id="patch_17">
    <path d="M 410.031091 221.142281 
L 427.423299 221.142281 
L 427.423299 105.694919 
L 410.031091 105.694919 
z
" clip-path="url(#p9801a7ee42)" style="fill: #a8620a"/>
   </g>
   <g id="patch_18">
    <path d="M 62.186935 220.75357 
L 79.579143 220.75357 
L 79.579143 220.75357 
L 62.186935 220.75357 
z
" clip-path="url(#p9801a7ee42)" style="fill: #2f6b3f"/>
   </g>
   <g id="patch_19">
    <path d="M 87.032947 220.364858 
L 104.425154 220.364858 
L 104.425154 220.364858 
L 87.032947 220.364858 
z
" clip-path="url(#p9801a7ee42)" style="fill: #2f6b3f"/>
   </g>
   <g id="patch_20">
    <path d="M 111.878958 220.364858 
L 129.271165 220.364858 
L 129.271165 220.364858 
L 111.878958 220.364858 
z
" clip-path="url(#p9801a7ee42)" style="fill: #2f6b3f"/>
   </g>
   <g id="patch_21">
    <path d="M 136.724969 220.75357 
L 154.117177 220.75357 
L 154.117177 220.75357 
L 136.724969 220.75357 
z
" clip-path="url(#p9801a7ee42)" style="fill: #2f6b3f"/>
   </g>
   <g id="patch_22">
    <path d="M 161.57098 220.364858 
L 178.963188 220.364858 
L 178.963188 220.364858 
L 161.57098 220.364858 
z
" clip-path="url(#p9801a7ee42)" style="fill: #2f6b3f"/>
   </g>
   <g id="patch_23">
    <path d="M 186.416991 218.4213 
L 203.809199 218.4213 
L 203.809199 218.4213 
L 186.416991 218.4213 
z
" clip-path="url(#p9801a7ee42)" style="fill: #2f6b3f"/>
   </g>
   <g id="patch_24">
    <path d="M 211.263002 211.813201 
L 228.65521 211.813201 
L 228.65521 211.813201 
L 211.263002 211.813201 
z
" clip-path="url(#p9801a7ee42)" style="fill: #2f6b3f"/>
   </g>
   <g id="patch_25">
    <path d="M 236.109013 211.42449 
L 253.501221 211.42449 
L 253.501221 211.42449 
L 236.109013 211.42449 
z
" clip-path="url(#p9801a7ee42)" style="fill: #2f6b3f"/>
   </g>
   <g id="patch_26">
    <path d="M 260.955024 204.42768 
L 278.347232 204.42768 
L 278.347232 204.42768 
L 260.955024 204.42768 
z
" clip-path="url(#p9801a7ee42)" style="fill: #2f6b3f"/>
   </g>
   <g id="patch_27">
    <path d="M 285.801036 42.723631 
L 303.193243 42.723631 
L 303.193243 40.002649 
L 285.801036 40.002649 
z
" clip-path="url(#p9801a7ee42)" style="fill: #2f6b3f"/>
   </g>
   <g id="patch_28">
    <path d="M 310.647047 125.130502 
L 328.039254 125.130502 
L 328.039254 124.353079 
L 310.647047 124.353079 
z
" clip-path="url(#p9801a7ee42)" style="fill: #2f6b3f"/>
   </g>
   <g id="patch_29">
    <path d="M 335.493058 98.309398 
L 352.885266 98.309398 
L 352.885266 95.199705 
L 335.493058 95.199705 
z
" clip-path="url(#p9801a7ee42)" style="fill: #2f6b3f"/>
   </g>
   <g id="patch_30">
    <path d="M 360.339069 73.04314 
L 377.731277 73.04314 
L 377.731277 71.877005 
L 360.339069 71.877005 
z
" clip-path="url(#p9801a7ee42)" style="fill: #2f6b3f"/>
   </g>
   <g id="patch_31">
    <path d="M 385.18508 71.099582 
L 402.577288 71.099582 
L 402.577288 68.3786 
L 385.18508 68.3786 
z
" clip-path="url(#p9801a7ee42)" style="fill: #2f6b3f"/>
   </g>
   <g id="patch_32">
    <path d="M 410.031091 105.694919 
L 427.423299 105.694919 
L 427.423299 102.196514 
L 410.031091 102.196514 
z
" clip-path="url(#p9801a7ee42)" style="fill: #2f6b3f"/>
   </g>
   <g id="patch_33">
    <path d="M 62.186935 220.75357 
L 79.579143 220.75357 
L 79.579143 220.75357 
L 62.186935 220.75357 
z
" clip-path="url(#p9801a7ee42)" style="fill: #56b4e9"/>
   </g>
   <g id="patch_34">
    <path d="M 87.032947 220.364858 
L 104.425154 220.364858 
L 104.425154 220.364858 
L 87.032947 220.364858 
z
" clip-path="url(#p9801a7ee42)" style="fill: #56b4e9"/>
   </g>
   <g id="patch_35">
    <path d="M 111.878958 220.364858 
L 129.271165 220.364858 
L 129.271165 220.364858 
L 111.878958 220.364858 
z
" clip-path="url(#p9801a7ee42)" style="fill: #56b4e9"/>
   </g>
   <g id="patch_36">
    <path d="M 136.724969 220.75357 
L 154.117177 220.75357 
L 154.117177 220.75357 
L 136.724969 220.75357 
z
" clip-path="url(#p9801a7ee42)" style="fill: #56b4e9"/>
   </g>
   <g id="patch_37">
    <path d="M 161.57098 220.364858 
L 178.963188 220.364858 
L 178.963188 220.364858 
L 161.57098 220.364858 
z
" clip-path="url(#p9801a7ee42)" style="fill: #56b4e9"/>
   </g>
   <g id="patch_38">
    <path d="M 186.416991 218.4213 
L 203.809199 218.4213 
L 203.809199 218.4213 
L 186.416991 218.4213 
z
" clip-path="url(#p9801a7ee42)" style="fill: #56b4e9"/>
   </g>
   <g id="patch_39">
    <path d="M 211.263002 211.813201 
L 228.65521 211.813201 
L 228.65521 211.813201 
L 211.263002 211.813201 
z
" clip-path="url(#p9801a7ee42)" style="fill: #56b4e9"/>
   </g>
   <g id="patch_40">
    <path d="M 236.109013 211.42449 
L 253.501221 211.42449 
L 253.501221 210.258355 
L 236.109013 210.258355 
z
" clip-path="url(#p9801a7ee42)" style="fill: #56b4e9"/>
   </g>
   <g id="patch_41">
    <path d="M 260.955024 204.42768 
L 278.347232 204.42768 
L 278.347232 204.42768 
L 260.955024 204.42768 
z
" clip-path="url(#p9801a7ee42)" style="fill: #56b4e9"/>
   </g>
   <g id="patch_42">
    <path d="M 285.801036 40.002649 
L 303.193243 40.002649 
L 303.193243 31.062281 
L 285.801036 31.062281 
z
" clip-path="url(#p9801a7ee42)" style="fill: #56b4e9"/>
   </g>
   <g id="patch_43">
    <path d="M 310.647047 124.353079 
L 328.039254 124.353079 
L 328.039254 122.409521 
L 310.647047 122.409521 
z
" clip-path="url(#p9801a7ee42)" style="fill: #56b4e9"/>
   </g>
   <g id="patch_44">
    <path d="M 335.493058 95.199705 
L 352.885266 95.199705 
L 352.885266 92.867435 
L 335.493058 92.867435 
z
" clip-path="url(#p9801a7ee42)" style="fill: #56b4e9"/>
   </g>
   <g id="patch_45">
    <path d="M 360.339069 71.877005 
L 377.731277 71.877005 
L 377.731277 65.268907 
L 360.339069 65.268907 
z
" clip-path="url(#p9801a7ee42)" style="fill: #56b4e9"/>
   </g>
   <g id="patch_46">
    <path d="M 385.18508 68.3786 
L 402.577288 68.3786 
L 402.577288 62.936637 
L 385.18508 62.936637 
z
" clip-path="url(#p9801a7ee42)" style="fill: #56b4e9"/>
   </g>
   <g id="patch_47">
    <path d="M 410.031091 102.196514 
L 427.423299 102.196514 
L 427.423299 95.977128 
L 410.031091 95.977128 
z
" clip-path="url(#p9801a7ee42)" style="fill: #56b4e9"/>
   </g>
   <g id="patch_48">
    <path d="M 43.925117 221.142281 
L 43.925117 21.558281 
" style="fill: none; stroke: #6a6155; stroke-width: 0.8; stroke-linejoin: miter; stroke-linecap: square"/>
   </g>
   <g id="patch_49">
    <path d="M 43.925117 221.142281 
L 445.685117 221.142281 
" style="fill: none; stroke: #6a6155; stroke-width: 0.8; stroke-linejoin: miter; stroke-linecap: square"/>
   </g>
   <g id="text_23">
    <text style="font-size: 11px; font-family: 'DejaVu Sans', 'Helvetica', 'Arial', sans-serif; text-anchor: middle; fill: #1b1712" x="244.805117" y="15.558281" transform="rotate(-0 244.805117 15.558281)">Player-signal volume by publication day</text>
   </g>
   <g id="legend_1">
    <g id="patch_50">
     <path d="M 164.752383 263.192713 
L 181.752383 263.192713 
L 181.752383 257.242713 
L 164.752383 257.242713 
z
" style="fill: #a8620a"/>
    </g>
    <g id="text_24">
     <text style="font-size: 8.5px; font-family: 'DejaVu Sans', 'Helvetica', 'Arial', sans-serif; text-anchor: start" x="188.552383" y="263.192713" transform="rotate(-0 188.552383 263.192713)">risk</text>
    </g>
    <g id="patch_51">
     <path d="M 220.758086 263.192713 
L 237.758086 263.192713 
L 237.758086 257.242713 
L 220.758086 257.242713 
z
" style="fill: #2f6b3f"/>
    </g>
    <g id="text_25">
     <text style="font-size: 8.5px; font-family: 'DejaVu Sans', 'Helvetica', 'Arial', sans-serif; text-anchor: start" x="244.558086" y="263.192713" transform="rotate(-0 244.558086 263.192713)">boost</text>
    </g>
    <g id="patch_52">
     <path d="M 285.116367 263.192713 
L 302.116367 263.192713 
L 302.116367 257.242713 
L 285.116367 257.242713 
z
" style="fill: #56b4e9"/>
    </g>
    <g id="text_26">
     <text style="font-size: 8.5px; font-family: 'DejaVu Sans', 'Helvetica', 'Arial', sans-serif; text-anchor: start" x="308.916367" y="263.192713" transform="rotate(-0 308.916367 263.192713)">info</text>
    </g>
   </g>
  </g>
 </g>
 <defs>
  <clipPath id="p9801a7ee42">
   <rect x="43.925117" y="21.558281" width="401.76" height="199.584"/>
  </clipPath>
 </defs>
</svg>
