<?xml version="1.0" encoding="utf-8" standalone="no"?>
<!DOCTYPE svg PUBLIC "-//W3C//DTD SVG 1.1//EN"
  "http://www.w3.org/Graphics/SVG/1.1/DTD/svg11.dtd">
<svg xmlns:xlink="http://www.w3.org/1999/xlink" width="495.642168pt" height="312.224409pt" viewBox="0 0 495.642168 312.224409" xmlns="http://www.w3.org/2000/svg" version="1.1">
 <metadata>
  <rdf:RDF xmlns:dc="http://purl.org/dc/elements/1.1/" xmlns:cc="http://creativecommons.org/ns#" xmlns:rdf="http://www.w3.org/1999/02/22-rdf-syntax-ns#">
   <cc:Work>
    <dc:type rdf:resource="http://purl.org/dc/dcmitype/StillImage"/>
    <dc:date>2026-07-10T01:52:24.995856</dc:date>
    <dc:format>image/svg+xml</dc:format>
    <dc:creator>
     <cc:Agent>
      <dc:title>Matplotlib v3.11.0, https://matplotlib.org/</dc:title>
     </cc:Agent>
    </dc:creator>
   </cc:Work>
  </rdf:RDF>
 </metadata>
 <defs>
  <style type="text/css">*{stroke-linejoin: round; stroke-linecap: butt}</style>
 </defs>
 <g id="figure_1">
  <g id="patch_1">
   <path d="M 0 312.224409 
L 495.642168 312.224409 
L 495.642168 0 
L 0 0 
z
" style="fill: #ffffff"/>
  </g>
  <g id="axes_1">
   <g id="patch_2">
    <path d="M 42.042168 241.878281 
L 488.442168 241.878281 
L 488.442168 21.558281 
L 42.042168 21.558281 
z
" style="fill: #fcfaf5"/>
   </g>
   <g id="matplotlib.axis_1">
    <g id="xtick_1">
     <g id="line2d_1">
      <path d="M 55.562302 241.878281 
L 55.562302 21.558281 
" clip-path="url(#p69250dc8ea)" style="fill: none; stroke: #e3ddd0; stroke-width: 0.7; stroke-linecap: square"/>
     </g>
     <g id="line2d_2">
      <defs>
       <path id="mf2a47816c5" d="M 0 0 
L 0 3.5 
" style="stroke: #6a6155; stroke-width: 0.8"/>
      </defs>
      <g>
       <use xlink:href="#mf2a47816c5" x="55.562302" y="241.878281" style="fill: #6a6155; stroke: #6a6155; stroke-width: 0.8"/>
      </g>
     </g>
     <g id="text_1">
      <text style="font-size: 8.5px; font-family: 'DejaVu Sans', 'Helvetica', 'Arial', sans-serif; fill: #6a6155" transform="translate(9.929272 275.60784) rotate(-25)">2026-06-29</text>
     </g>
    </g>
    <g id="xtick_2">
     <g id="line2d_3">
      <path d="M 130.547232 241.878281 
L 130.547232 21.558281 
" clip-path="url(#p69250dc8ea)" style="fill: none; stroke: #e3ddd0; stroke-width: 0.7; stroke-linecap: square"/>
     </g>
     <g id="line2d_4">
      <g>
       <use xlink:href="#mf2a47816c5" x="130.547232" y="241.878281" style="fill: #6a6155; stroke: #6a6155; stroke-width: 0.8"/>
      </g>
     </g>
     <g id="text_2">
      <text style="font-size: 8.5px; font-family: 'DejaVu Sans', 'Helvetica', 'Arial', sans-serif; fill: #6a6155" transform="translate(84.914202 275.60784) rotate(-25)">2026-07-01</text>
     </g>
    </g>
    <g id="xtick_3">
     <g id="line2d_5">
      <path d="M 205.532163 241.878281 
L 205.532163 21.558281 
" clip-path="url(#p69250dc8ea)" style="fill: none; stroke: #e3ddd0; stroke-width: 0.7; stroke-linecap: square"/>
     </g>
     <g id="line2d_6">
      <g>
       <use xlink:href="#mf2a47816c5" x="205.532163" y="241.878281" style="fill: #6a6155; stroke: #6a6155; stroke-width: 0.8"/>
      </g>
     </g>
     <g id="text_3">
      <text style="font-size: 8.5px; font-family: 'DejaVu Sans', 'Helvetica', 'Arial', sans-serif; fill: #6a6155" transform="translate(159.899132 275.60784) rotate(-25)">2026-07-03</text>
     </g>
    </g>
    <g id="xtick_4">
     <g id="line2d_7">
      <path d="M 280.517093 241.878281 
L 280.517093 21.558281 
" clip-path="url(#p69250dc8ea)" style="fill: none; stroke: #e3ddd0; stroke-width: 0.7; stroke-linecap: square"/>
     </g>
     <g id="line2d_8">
      <g>
       <use xlink:href="#mf2a47816c5" x="280.517093" y="241.878281" style="fill: #6a6155; stroke: #6a6155; stroke-width: 0.8"/>
      </g>
     </g>
     <g id="text_4">
      <text style="font-size: 8.5px; font-family: 'DejaVu Sans', 'Helvetica', 'Arial', sans-serif; fill: #6a6155" transform="translate(234.884063 275.60784) rotate(-25)">2026-07-05</text>
     </g>
    </g>
    <g id="xtick_5">
     <g id="line2d_9">
      <path d="M 355.502023 241.878281 
L 355.502023 21.558281 
" clip-path="url(#p69250dc8ea)" style="fill: none; stroke: #e3ddd0; stroke-width: 0.7; stroke-linecap: square"/>
     </g>
     <g id="line2d_10">
      <g>
       <use xlink:href="#mf2a47816c5" x="355.502023" y="241.878281" style="fill: #6a6155; stroke: #6a6155; stroke-width: 0.8"/>
      </g>
     </g>
     <g id="text_5">
      <text style="font-size: 8.5px; font-family: 'DejaVu Sans', 'Helvetica', 'Arial', sans-serif; fill: #6a6155" transform="translate(309.868993 275.60784) rotate(-25)">2026-07-07</text>
     </g>
    </g>
    <g id="xtick_6">
     <g id="line2d_11">
      <path d="M 430.486953 241.878281 
L 430.486953 21.558281 
" clip-path="url(#p69250dc8ea)" style="fill: none; stroke: #e3ddd0; stroke-width: 0.7; stroke-linecap: square"/>
     </g>
     <g id="line2d_12">
      <g>
       <use xlink:href="#mf2a47816c5" x="430.486953" y="241.878281" style="fill: #6a6155; stroke: #6a6155; stroke-width: 0.8"/>
      </g>
     </g>
     <g id="text_6">
      <text style="font-size: 8.5px; font-family: 'DejaVu Sans', 'Helvetica', 'Arial', sans-serif; fill: #6a6155" transform="translate(384.853923 275.60784) rotate(-25)">2026-07-09</text>
     </g>
    </g>
   </g>
   <g id="matplotlib.axis_2">
    <g id="ytick_1">
     <g id="line2d_13">
      <path d="M 42.042168 235.280772 
L 488.442168 235.280772 
" clip-path="url(#p69250dc8ea)" style="fill: none; stroke: #e3ddd0; stroke-width: 0.7; stroke-linecap: square"/>
     </g>
     <g id="line2d_14">
      <defs>
       <path id="meceed9752f" d="M 0 0 
L -3.5 0 
" style="stroke: #6a6155; stroke-width: 0.8"/>
      </defs>
      <g>
       <use xlink:href="#meceed9752f" x="42.042168" y="235.280772" style="fill: #6a6155; stroke: #6a6155; stroke-width: 0.8"/>
      </g>
     </g>
     <g id="text_7">
      <text style="font-size: 8.5px; font-family: 'DejaVu Sans', 'Helvetica', 'Arial', sans-serif; text-anchor: end; fill: #6a6155" x="35.042168" y="238.509776" transform="rotate(-0 35.042168 238.509776)">0</text>
     </g>
    </g>
    <g id="ytick_2">
     <g id="line2d_15">
      <path d="M 42.042168 208.995876 
L 488.442168 208.995876 
" clip-path="url(#p69250dc8ea)" style="fill: none; stroke: #e3ddd0; stroke-width: 0.7; stroke-linecap: square"/>
     </g>
     <g id="line2d_16">
      <g>
       <use xlink:href="#meceed9752f" x="42.042168" y="208.995876" style="fill: #6a6155; stroke: #6a6155; stroke-width: 0.8"/>
      </g>
     </g>
     <g id="text_8">
      <text style="font-size: 8.5px; font-family: 'DejaVu Sans', 'Helvetica', 'Arial', sans-serif; text-anchor: end; fill: #6a6155" x="35.042168" y="212.22488" transform="rotate(-0 35.042168 212.22488)">5</text>
     </g>
    </g>
    <g id="ytick_3">
     <g id="line2d_17">
      <path d="M 42.042168 182.71098 
L 488.442168 182.71098 
" clip-path="url(#p69250dc8ea)" style="fill: none; stroke: #e3ddd0; stroke-width: 0.7; stroke-linecap: square"/>
     </g>
     <g id="line2d_18">
      <g>
       <use xlink:href="#meceed9752f" x="42.042168" y="182.71098" style="fill: #6a6155; stroke: #6a6155; stroke-width: 0.8"/>
      </g>
     </g>
     <g id="text_9">
      <text style="font-size: 8.5px; font-family: 'DejaVu Sans', 'Helvetica', 'Arial', sans-serif; text-anchor: end; fill: #6a6155" x="35.042168" y="185.939984" transform="rotate(-0 35.042168 185.939984)">10</text>
     </g>
    </g>
    <g id="ytick_4">
     <g id="line2d_19">
      <path d="M 42.042168 156.426084 
L 488.442168 156.426084 
" clip-path="url(#p69250dc8ea)" style="fill: none; stroke: #e3ddd0; stroke-width: 0.7; stroke-linecap: square"/>
     </g>
     <g id="line2d_20">
      <g>
       <use xlink:href="#meceed9752f" x="42.042168" y="156.426084" style="fill: #6a6155; stroke: #6a6155; stroke-width: 0.8"/>
      </g>
     </g>
     <g id="text_10">
      <text style="font-size: 8.5px; font-family: 'DejaVu Sans', 'Helvetica', 'Arial', sans-serif; text-anchor: end; fill: #6a6155" x="35.042168" y="159.655088" transform="rotate(-0 35.042168 159.655088)">15</text>
     </g>
    </g>
    <g id="ytick_5">
     <g id="line2d_21">
      <path d="M 42.042168 130.141187 
L 488.442168 130.141187 
" clip-path="url(#p69250dc8ea)" style="fill: none; stroke: #e3ddd0; stroke-width: 0.7; stroke-linecap: square"/>
     </g>
     <g id="line2d_22">
      <g>
       <use xlink:href="#meceed9752f" x="42.042168" y="130.141187" style="fill: #6a6155; stroke: #6a6155; stroke-width: 0.8"/>
      </g>
     </g>
     <g id="text_11">
      <text style="font-size: 8.5px; font-family: 'DejaVu Sans', 'Helvetica', 'Arial', sans-serif; text-anchor: end; fill: #6a6155" x="35.042168" y="133.370191" transform="rotate(-0 35.042168 133.370191)">20</text>
     </g>
    </g>
    <g id="ytick_6">
     <g id="line2d_23">
      <path d="M 42.042168 103.856291 
L 488.442168 103.856291 
" clip-path="url(#p69250dc8ea)" style="fill: none; stroke: #e3ddd0; stroke-width: 0.7; stroke-linecap: square"/>
     </g>
     <g id="line2d_24">
      <g>
       <use xlink:href="#meceed9752f" x="42.042168" y="103.856291" style="fill: #6a6155; stroke: #6a6155; stroke-width: 0.8"/>
      </g>
     </g>
     <g id="text_12">
      <text style="font-size: 8.5px; font-family: 'DejaVu Sans', 'Helvetica', 'Arial', sans-serif; text-anchor: end; fill: #6a6155" x="35.042168" y="107.085295" transform="rotate(-0 35.042168 107.085295)">25</text>
     </g>
    </g>
    <g id="ytick_7">
     <g id="line2d_25">
      <path d="M 42.042168 77.571395 
L 488.442168 77.571395 
" clip-path="url(#p69250dc8ea)" style="fill: none; stroke: #e3ddd0; stroke-width: 0.7; stroke-linecap: square"/>
     </g>
     <g id="line2d_26">
      <g>
       <use xlink:href="#meceed9752f" x="42.042168" y="77.571395" style="fill: #6a6155; stroke: #6a6155; stroke-width: 0.8"/>
      </g>
     </g>
     <g id="text_13">
      <text style="font-size: 8.5px; font-family: 'DejaVu Sans', 'Helvetica', 'Arial', sans-serif; text-anchor: end; fill: #6a6155" x="35.042168" y="80.800399" transform="rotate(-0 35.042168 80.800399)">30</text>
     </g>
    </g>
    <g id="ytick_8">
     <g id="line2d_27">
      <path d="M 42.042168 51.286499 
L 488.442168 51.286499 
" clip-path="url(#p69250dc8ea)" style="fill: none; stroke: #e3ddd0; stroke-width: 0.7; stroke-linecap: square"/>
     </g>
     <g id="line2d_28">
      <g>
       <use xlink:href="#meceed9752f" x="42.042168" y="51.286499" style="fill: #6a6155; stroke: #6a6155; stroke-width: 0.8"/>
      </g>
     </g>
     <g id="text_14">
      <text style="font-size: 8.5px; font-family: 'DejaVu Sans', 'Helvetica', 'Arial', sans-serif; text-anchor: end; fill: #6a6155" x="35.042168" y="54.515503" transform="rotate(-0 35.042168 54.515503)">35</text>
     </g>
    </g>
    <g id="ytick_9">
     <g id="line2d_29">
      <path d="M 42.042168 25.001603 
L 488.442168 25.001603 
" clip-path="url(#p69250dc8ea)" style="fill: none; stroke: #e3ddd0; stroke-width: 0.7; stroke-linecap: square"/>
     </g>
     <g id="line2d_30">
      <g>
       <use xlink:href="#meceed9752f" x="42.042168" y="25.001603" style="fill: #6a6155; stroke: #6a6155; stroke-width: 0.8"/>
      </g>
     </g>
     <g id="text_15">
      <text style="font-size: 8.5px; font-family: 'DejaVu Sans', 'Helvetica', 'Arial', sans-serif; text-anchor: end; fill: #6a6155" x="35.042168" y="28.230607" transform="rotate(-0 35.042168 28.230607)">40</text>
     </g>
    </g>
    <g id="text_16">
     <text style="font-size: 9.5px; font-family: 'DejaVu Sans', 'Helvetica', 'Arial', sans-serif; text-anchor: middle; fill: #1b1712" x="17.943691" y="131.718281" transform="rotate(-90 17.943691 131.718281)">Implied win probability, %</text>
    </g>
   </g>
   <g id="line2d_31">
    <path d="M 62.333077 114.633099 
L 63.363686 114.633099 
L 63.395797 114.633099 
L 68.0906 112.004609 
L 72.785403 113.056005 
L 77.48064 112.004609 
L 82.179349 111.478911 
L 82.538652 111.478911 
L 87.247341 112.004609 
L 92.020687 111.478911 
L 96.715056 95.707973 
L 101.415066 90.976692 
L 106.112039 83.091223 
L 110.814219 82.565525 
L 115.510758 87.822505 
L 120.200353 87.822505 
L 124.89559 86.245411 
L 129.60211 63.114702 
L 134.299083 60.486213 
L 138.999093 64.691796 
L 143.69433 63.114702 
L 148.39651 63.114702 
L 153.091313 63.6404 
L 157.783512 63.114702 
L 162.480919 46.818067 
L 167.191778 47.080915 
L 171.88875 51.02365 
L 176.584855 49.446556 
L 181.280092 50.497952 
L 185.980102 51.02365 
L 190.677075 51.02365 
L 195.383161 53.126442 
L 200.078398 54.703535 
L 204.77537 55.229233 
L 209.473645 55.229233 
L 214.183636 55.754931 
L 218.878873 58.909119 
L 223.587128 60.486213 
L 228.281497 60.486213 
L 232.969791 59.960515 
L 237.66416 59.960515 
L 242.371547 59.960515 
L 247.06852 52.600744 
L 251.781114 54.703535 
L 256.475917 48.920858 
L 261.171154 50.497952 
L 265.868127 50.497952 
L 270.558591 51.02365 
L 275.253394 43.663879 
L 279.955574 45.240973 
L 284.650811 46.818067 
L 289.351689 47.869462 
L 294.047794 47.869462 
L 298.753445 47.869462 
L 303.448682 49.972254 
L 308.154768 53.126442 
L 312.85174 53.65214 
L 317.5396 56.806327 
L 322.234837 56.280629 
L 326.943526 63.6404 
L 331.638329 61.01191 
L 336.337472 64.166098 
L 341.032275 63.114702 
L 345.735757 63.6404 
L 350.432295 62.589004 
L 355.133607 62.589004 
L 359.828844 62.063306 
L 364.527987 61.01191 
L 369.22279 61.537608 
L 373.933215 61.537608 
L 378.627584 62.589004 
L 383.331499 53.389291 
L 388.024567 63.114702 
L 388.526636 63.114702 
L 388.81564 63.114702 
L 389.335935 63.114702 
L 394.019022 61.01191 
L 396.419581 61.537608 
L 397.336931 62.063306 
L 402.019584 63.114702 
L 406.714387 63.6404 
L 411.288988 63.6404 
L 411.761116 63.6404 
L 416.439429 63.6404 
L 421.135534 63.6404 
L 425.82296 64.166098 
L 430.52731 64.166098 
L 435.221245 65.743192 
L 439.962913 66.26889 
L 444.65815 67.320286 
L 449.375084 66.26889 
L 454.071623 66.26889 
L 458.769898 67.320286 
L 463.464701 66.006041 
L 468.151259 31.572827 
" clip-path="url(#p69250dc8ea)" style="fill: none; stroke: #0072b2; stroke-width: 1.6; stroke-linecap: square"/>
   </g>
   <g id="line2d_32">
    <path d="M 62.333077 127.775547 
L 63.363686 126.198453 
L 63.395797 126.198453 
L 68.0906 125.672755 
L 72.785403 125.672755 
L 77.48064 125.672755 
L 82.179349 125.672755 
L 82.538652 125.672755 
L 87.247341 131.98113 
L 92.020687 132.506828 
L 96.715056 128.826943 
L 101.415066 130.404036 
L 106.112039 133.558224 
L 110.814219 133.558224 
L 115.510758 133.558224 
L 120.200353 133.558224 
L 124.89559 133.558224 
L 129.60211 134.083922 
L 134.299083 140.392297 
L 138.999093 139.340901 
L 143.69433 138.815203 
L 148.39651 135.661016 
L 153.091313 133.558224 
L 157.783512 131.98113 
L 162.480919 138.815203 
L 167.191778 139.866599 
L 171.88875 140.392297 
L 176.584855 140.392297 
L 181.280092 140.392297 
L 185.980102 139.866599 
L 190.677075 138.815203 
L 195.383161 138.289505 
L 200.078398 138.815203 
L 204.77537 135.135318 
L 209.473645 132.506828 
L 214.183636 135.661016 
L 218.878873 134.60962 
L 223.587128 134.083922 
L 228.281497 133.032526 
L 232.969791 133.558224 
L 237.66416 133.558224 
L 242.371547 145.912125 
L 247.06852 145.649276 
L 251.781114 143.020787 
L 256.475917 144.59788 
L 261.171154 145.649276 
L 265.868127 145.649276 
L 270.558591 145.649276 
L 275.253394 149.329162 
L 279.955574 147.752068 
L 284.650811 147.22637 
L 289.351689 147.22637 
L 294.047794 147.22637 
L 298.753445 147.22637 
L 303.448682 147.22637 
L 308.154768 146.700672 
L 312.85174 144.072182 
L 317.5396 143.546485 
L 322.234837 145.123578 
L 326.943526 144.072182 
L 331.638329 146.700672 
L 336.337472 147.752068 
L 341.032275 147.752068 
L 345.735757 139.866599 
L 350.432295 145.649276 
L 355.133607 145.649276 
L 359.828844 140.655146 
L 364.527987 138.289505 
L 369.22279 136.712412 
L 373.933215 139.340901 
L 378.627584 141.969391 
L 383.331499 208.733027 
L 388.024567 146.174974 
L 388.526636 146.174974 
L 388.81564 143.020787 
L 389.335935 143.546485 
L 394.019022 138.289505 
L 396.419581 138.289505 
L 397.336931 137.238109 
L 402.019584 136.712412 
L 406.714387 137.238109 
L 411.288988 136.712412 
L 411.761116 136.712412 
L 416.439429 136.712412 
L 421.135534 133.032526 
L 425.82296 128.301245 
L 430.52731 129.878339 
L 435.221245 129.878339 
L 439.962913 129.878339 
L 444.65815 129.878339 
L 449.375084 129.878339 
L 454.071623 129.878339 
L 458.769898 132.506828 
L 463.464701 136.712412 
L 468.151259 141.443693 
" clip-path="url(#p69250dc8ea)" style="fill: none; stroke: #d55e00; stroke-width: 1.6; stroke-linecap: square"/>
   </g>
   <g id="line2d_33">
    <path d="M 62.333077 176.665454 
L 63.363686 176.665454 
L 63.395797 176.665454 
L 68.0906 177.191152 
L 72.785403 177.191152 
L 77.48064 176.665454 
L 82.179349 176.665454 
L 82.538652 176.665454 
L 87.247341 177.191152 
L 92.020687 175.08836 
L 96.715056 175.614058 
L 101.415066 176.139756 
L 106.112039 176.139756 
L 110.814219 176.139756 
L 115.510758 175.614058 
L 120.200353 175.614058 
L 124.89559 176.139756 
L 129.60211 177.191152 
L 134.299083 182.448131 
L 138.999093 182.448131 
L 143.69433 181.922433 
L 148.39651 180.871037 
L 153.091313 181.396735 
L 157.783512 180.871037 
L 162.480919 182.448131 
L 167.191778 181.396735 
L 171.88875 182.448131 
L 176.584855 182.448131 
L 181.280092 182.973829 
L 185.980102 182.448131 
L 190.677075 182.973829 
L 195.383161 179.819641 
L 200.078398 173.774115 
L 204.77537 168.254287 
L 209.473645 169.305683 
L 214.183636 169.831381 
L 218.878873 170.882777 
L 223.587128 169.305683 
L 228.281497 166.151495 
L 232.969791 168.254287 
L 237.66416 167.728589 
L 242.371547 170.357079 
L 247.06852 166.414344 
L 251.781114 170.357079 
L 256.475917 170.882777 
L 261.171154 170.882777 
L 265.868127 168.254287 
L 270.558591 170.357079 
L 275.253394 170.357079 
L 279.955574 170.357079 
L 284.650811 169.305683 
L 289.351689 169.831381 
L 294.047794 169.305683 
L 298.753445 169.831381 
L 303.448682 170.357079 
L 308.154768 170.357079 
L 312.85174 169.831381 
L 317.5396 168.779985 
L 322.234837 169.305683 
L 326.943526 167.728589 
L 331.638329 167.728589 
L 336.337472 168.254287 
L 341.032275 169.831381 
L 345.735757 165.362948 
L 350.432295 174.562662 
L 355.133607 138.815203 
L 359.828844 137.238109 
L 364.527987 138.289505 
L 369.22279 139.340901 
L 373.933215 140.917995 
L 378.627584 135.661016 
L 383.331499 131.718281 
L 388.024567 136.712412 
L 388.526636 136.712412 
L 388.81564 136.712412 
L 389.335935 136.712412 
L 394.019022 137.763807 
L 396.419581 137.763807 
L 397.336931 137.763807 
L 402.019584 137.763807 
L 406.714387 137.763807 
L 411.288988 137.763807 
L 411.761116 137.763807 
L 416.439429 136.712412 
L 421.135534 136.712412 
L 425.82296 136.712412 
L 430.52731 136.712412 
L 435.221245 136.712412 
L 439.962913 136.712412 
L 444.65815 136.712412 
L 449.375084 135.135318 
L 454.071623 134.083922 
L 458.769898 133.558224 
L 463.464701 135.135318 
L 468.151259 143.546485 
" clip-path="url(#p69250dc8ea)" style="fill: none; stroke: #009e73; stroke-width: 1.6; stroke-linecap: square"/>
   </g>
   <g id="line2d_34">
    <path d="M 62.333077 181.396735 
L 63.363686 181.396735 
L 63.395797 181.396735 
L 68.0906 181.396735 
L 72.785403 181.396735 
L 77.48064 181.396735 
L 82.179349 181.396735 
L 82.538652 181.396735 
L 87.247341 181.396735 
L 92.020687 181.396735 
L 96.715056 182.448131 
L 101.415066 181.922433 
L 106.112039 182.448131 
L 110.814219 182.448131 
L 115.510758 182.973829 
L 120.200353 182.973829 
L 124.89559 182.973829 
L 129.60211 184.025225 
L 134.299083 184.025225 
L 138.999093 186.128016 
L 143.69433 186.128016 
L 148.39651 186.128016 
L 153.091313 186.128016 
L 157.783512 204.001746 
L 162.480919 190.3336 
L 167.191778 192.436391 
L 171.88875 191.910694 
L 176.584855 192.436391 
L 181.280092 191.910694 
L 185.980102 191.910694 
L 190.677075 192.436391 
L 195.383161 192.962089 
L 200.078398 194.539183 
L 204.77537 195.064881 
L 209.473645 195.064881 
L 214.183636 197.167673 
L 218.878873 197.167673 
L 223.587128 197.693371 
L 228.281497 197.693371 
L 232.969791 197.693371 
L 237.66416 197.693371 
L 242.371547 195.590579 
L 247.06852 198.744767 
L 251.781114 198.744767 
L 256.475917 195.064881 
L 261.171154 196.641975 
L 265.868127 200.32186 
L 270.558591 199.270464 
L 275.253394 199.796162 
L 279.955574 199.270464 
L 284.650811 199.270464 
L 289.351689 199.796162 
L 294.047794 199.270464 
L 298.753445 199.270464 
L 303.448682 197.693371 
L 308.154768 197.167673 
L 312.85174 196.116277 
L 317.5396 192.962089 
L 322.234837 189.282204 
L 326.943526 160.894516 
L 331.638329 160.894516 
L 336.337472 161.945912 
L 341.032275 161.420214 
L 345.735757 158.791724 
L 350.432295 158.791724 
L 355.133607 158.791724 
L 359.828844 157.214631 
L 364.527987 157.740328 
L 369.22279 159.84312 
L 373.933215 159.84312 
L 378.627584 157.740328 
L 383.331499 125.409906 
L 388.024567 154.060443 
L 388.526636 155.111839 
L 388.81564 155.111839 
L 389.335935 155.111839 
L 394.019022 153.009047 
L 396.419581 152.483349 
L 397.336931 153.009047 
L 402.019584 153.009047 
L 406.714387 153.009047 
L 411.288988 153.009047 
L 411.761116 153.009047 
L 416.439429 151.957651 
L 421.135534 151.957651 
L 425.82296 151.957651 
L 430.52731 151.957651 
L 435.221245 151.431953 
L 439.962913 151.957651 
L 444.65815 151.431953 
L 449.375084 150.906255 
L 454.071623 150.906255 
L 458.769898 150.906255 
L 463.464701 150.380558 
L 468.151259 151.431953 
" clip-path="url(#p69250dc8ea)" style="fill: none; stroke: #cc79a7; stroke-width: 1.6; stroke-linecap: square"/>
   </g>
   <g id="line2d_35">
    <path d="M 62.333077 225.029663 
L 63.363686 225.029663 
L 63.395797 225.029663 
L 68.0906 225.029663 
L 72.785403 225.029663 
L 77.48064 225.555361 
L 82.179349 225.555361 
L 82.538652 225.555361 
L 87.247341 223.452569 
L 92.020687 224.503965 
L 96.715056 223.452569 
L 101.415066 223.978267 
L 106.112039 225.029663 
L 110.814219 225.029663 
L 115.510758 225.029663 
L 120.200353 226.081059 
L 124.89559 222.401173 
L 129.60211 225.555361 
L 134.299083 225.029663 
L 138.999093 225.555361 
L 143.69433 226.081059 
L 148.39651 226.081059 
L 153.091313 226.606757 
L 157.783512 223.978267 
L 162.480919 223.452569 
L 167.191778 223.452569 
L 171.88875 224.503965 
L 176.584855 225.029663 
L 181.280092 225.029663 
L 185.980102 225.555361 
L 190.677075 225.029663 
L 195.383161 225.555361 
L 200.078398 225.555361 
L 204.77537 225.555361 
L 209.473645 225.555361 
L 214.183636 225.555361 
L 218.878873 225.555361 
L 223.587128 225.555361 
L 228.281497 225.555361 
L 232.969791 226.081059 
L 237.66416 225.555361 
L 242.371547 226.081059 
L 247.06852 226.081059 
L 251.781114 226.606757 
L 256.475917 226.606757 
L 261.171154 226.606757 
L 265.868127 226.606757 
L 270.558591 226.606757 
L 275.253394 226.606757 
L 279.955574 226.606757 
L 284.650811 226.606757 
L 289.351689 226.606757 
L 294.047794 226.606757 
L 298.753445 226.606757 
L 303.448682 226.606757 
L 308.154768 226.606757 
L 312.85174 227.921001 
L 317.5396 205.57884 
L 322.234837 209.784423 
L 326.943526 210.835819 
L 331.638329 210.310121 
L 336.337472 210.835819 
L 341.032275 210.835819 
L 345.735757 210.835819 
L 350.432295 210.310121 
L 355.133607 209.784423 
L 359.828844 206.630235 
L 364.527987 206.104538 
L 369.22279 205.053142 
L 373.933215 206.104538 
L 378.627584 202.424652 
L 383.331499 189.807902 
L 388.024567 204.001746 
L 388.526636 205.053142 
L 388.81564 205.053142 
L 389.335935 205.053142 
L 394.019022 204.001746 
L 396.419581 203.476048 
L 397.336931 204.001746 
L 402.019584 204.527444 
L 406.714387 204.001746 
L 411.288988 204.527444 
L 411.761116 204.527444 
L 416.439429 204.001746 
L 421.135534 204.001746 
L 425.82296 204.001746 
L 430.52731 204.001746 
L 435.221245 204.001746 
L 439.962913 204.001746 
L 444.65815 203.476048 
L 449.375084 203.476048 
L 454.071623 203.476048 
L 458.769898 204.001746 
L 463.464701 198.481918 
L 468.151259 204.527444 
" clip-path="url(#p69250dc8ea)" style="fill: none; stroke: #e69f00; stroke-width: 1.6; stroke-linecap: square"/>
   </g>
   <g id="line2d_36">
    <path d="M 62.333077 228.18385 
L 63.363686 228.18385 
L 63.395797 228.18385 
L 68.0906 228.18385 
L 72.785403 228.18385 
L 77.48064 228.18385 
L 82.179349 228.18385 
L 82.538652 228.18385 
L 87.247341 228.18385 
L 92.020687 228.18385 
L 96.715056 228.18385 
L 101.415066 228.18385 
L 106.112039 228.18385 
L 110.814219 228.18385 
L 115.510758 228.18385 
L 120.200353 228.709548 
L 124.89559 228.709548 
L 129.60211 229.235246 
L 134.299083 229.235246 
L 138.999093 229.235246 
L 143.69433 229.235246 
L 148.39651 229.235246 
L 153.091313 229.235246 
L 157.783512 228.709548 
L 162.480919 229.760944 
L 167.191778 227.658152 
L 171.88875 227.132454 
L 176.584855 227.132454 
L 181.280092 227.132454 
L 185.980102 227.132454 
L 190.677075 227.132454 
L 195.383161 227.132454 
L 200.078398 227.658152 
L 204.77537 227.658152 
L 209.473645 228.709548 
L 214.183636 228.709548 
L 218.878873 228.709548 
L 223.587128 228.709548 
L 228.281497 228.709548 
L 232.969791 228.709548 
L 237.66416 228.709548 
L 242.371547 229.760944 
L 247.06852 229.760944 
L 251.781114 229.235246 
L 256.475917 229.235246 
L 261.171154 229.235246 
L 265.868127 228.709548 
L 270.558591 228.709548 
L 275.253394 228.709548 
L 279.955574 228.18385 
L 284.650811 228.709548 
L 289.351689 228.709548 
L 294.047794 228.709548 
L 298.753445 228.18385 
L 303.448682 228.18385 
L 308.154768 228.18385 
L 312.85174 228.709548 
L 317.5396 228.709548 
L 322.234837 228.709548 
L 326.943526 228.709548 
L 331.638329 228.18385 
L 336.337472 228.18385 
L 341.032275 228.18385 
L 345.735757 228.18385 
L 350.432295 227.658152 
L 355.133607 228.709548 
L 359.828844 222.401173 
L 364.527987 222.926871 
L 369.22279 223.452569 
L 373.933215 223.452569 
L 378.627584 223.452569 
L 383.331499 223.452569 
L 388.024567 222.401173 
L 388.526636 222.401173 
L 388.81564 222.401173 
L 389.335935 222.401173 
L 394.019022 222.401173 
L 396.419581 222.926871 
L 397.336931 222.926871 
L 402.019584 222.401173 
L 406.714387 222.401173 
L 411.288988 222.401173 
L 411.761116 222.401173 
L 416.439429 222.401173 
L 421.135534 222.401173 
L 425.82296 222.401173 
L 430.52731 222.401173 
L 435.221245 222.401173 
L 439.962913 222.401173 
L 444.65815 222.401173 
L 449.375084 222.401173 
L 454.071623 222.401173 
L 458.769898 222.401173 
L 463.464701 222.401173 
L 468.151259 223.978267 
" clip-path="url(#p69250dc8ea)" style="fill: none; stroke: #56b4e9; stroke-width: 1.6; stroke-linecap: square"/>
   </g>
   <g id="line2d_37">
    <path d="M 62.333077 230.286642 
L 63.363686 230.286642 
L 63.395797 230.286642 
L 68.0906 230.286642 
L 72.785403 230.286642 
L 77.48064 230.286642 
L 82.179349 230.81234 
L 82.538652 230.81234 
L 87.247341 230.81234 
L 92.020687 230.81234 
L 96.715056 230.81234 
L 101.415066 230.81234 
L 106.112039 230.81234 
L 110.814219 230.81234 
L 115.510758 230.81234 
L 120.200353 230.81234 
L 124.89559 230.81234 
L 129.60211 230.81234 
L 134.299083 230.81234 
L 138.999093 230.81234 
L 143.69433 230.81234 
L 148.39651 231.338038 
L 153.091313 231.338038 
L 157.783512 231.338038 
L 162.480919 231.338038 
L 167.191778 231.338038 
L 171.88875 231.338038 
L 176.584855 231.338038 
L 181.280092 231.338038 
L 185.980102 231.338038 
L 190.677075 231.338038 
L 195.383161 231.338038 
L 200.078398 231.338038 
L 204.77537 231.338038 
L 209.473645 231.863736 
L 214.183636 230.81234 
L 218.878873 230.81234 
L 223.587128 230.81234 
L 228.281497 230.81234 
L 232.969791 230.81234 
L 237.66416 230.81234 
L 242.371547 230.81234 
L 247.06852 230.286642 
L 251.781114 230.286642 
L 256.475917 230.81234 
L 261.171154 230.81234 
L 265.868127 230.81234 
L 270.558591 230.81234 
L 275.253394 230.81234 
L 279.955574 230.81234 
L 284.650811 230.81234 
L 289.351689 230.81234 
L 294.047794 230.81234 
L 298.753445 230.81234 
L 303.448682 230.81234 
L 308.154768 230.81234 
L 312.85174 230.81234 
L 317.5396 230.81234 
L 322.234837 230.286642 
L 326.943526 230.286642 
L 331.638329 230.286642 
L 336.337472 230.286642 
L 341.032275 230.286642 
L 345.735757 230.286642 
L 350.432295 230.286642 
L 355.133607 229.760944 
L 359.828844 230.286642 
L 364.527987 229.760944 
L 369.22279 230.286642 
L 373.933215 230.286642 
L 378.627584 230.286642 
L 383.331499 226.606757 
L 388.024567 230.286642 
L 388.526636 230.286642 
L 388.81564 229.498095 
L 389.335935 228.709548 
L 394.019022 223.978267 
L 396.419581 223.452569 
L 397.336931 223.452569 
L 402.019584 223.452569 
L 406.714387 223.452569 
L 411.288988 223.978267 
L 411.761116 223.978267 
L 416.439429 223.978267 
L 421.135534 223.978267 
L 425.82296 223.978267 
L 430.52731 223.978267 
L 435.221245 223.978267 
L 439.962913 223.978267 
L 444.65815 223.978267 
L 449.375084 223.978267 
L 454.071623 223.978267 
L 458.769898 224.503965 
L 463.464701 224.503965 
L 468.151259 225.029663 
" clip-path="url(#p69250dc8ea)" style="fill: none; stroke: #8d8579; stroke-width: 1.6; stroke-linecap: square"/>
   </g>
   <g id="patch_3">
    <path d="M 42.042168 241.878281 
L 42.042168 21.558281 
" style="fill: none; stroke: #6a6155; stroke-width: 0.8; stroke-linejoin: miter; stroke-linecap: square"/>
   </g>
   <g id="patch_4">
    <path d="M 42.042168 241.878281 
L 488.442168 241.878281 
" style="fill: none; stroke: #6a6155; stroke-width: 0.8; stroke-linejoin: miter; stroke-linecap: square"/>
   </g>
   <g id="text_17">
    <text style="font-size: 11px; font-family: 'DejaVu Sans', 'Helvetica', 'Arial', sans-serif; text-anchor: middle; fill: #1b1712" x="265.242168" y="15.558281" transform="rotate(-0 265.242168 15.558281)">Prediction-market winner odds (Polymarket, 3-hour snapshots)</text>
   </g>
   <g id="legend_1">
    <g id="line2d_38">
     <path d="M 111.94334 283.856753 
L 120.44334 283.856753 
L 128.94334 283.856753 
" style="fill: none; stroke: #0072b2; stroke-width: 1.6; stroke-linecap: square"/>
    </g>
    <g id="text_18">
     <text style="font-size: 8.5px; font-family: 'DejaVu Sans', 'Helvetica', 'Arial', sans-serif; text-anchor: start" x="135.74334" y="286.831753" transform="rotate(-0 135.74334 286.831753)">France</text>
    </g>
    <g id="line2d_39">
     <path d="M 111.94334 296.607417 
L 120.44334 296.607417 
L 128.94334 296.607417 
" style="fill: none; stroke: #d55e00; stroke-width: 1.6; stroke-linecap: square"/>
    </g>
    <g id="text_19">
     <text style="font-size: 8.5px; font-family: 'DejaVu Sans', 'Helvetica', 'Arial', sans-serif; text-anchor: start" x="135.74334" y="299.582417" transform="rotate(-0 135.74334 299.582417)">Argentina</text>
    </g>
    <g id="line2d_40">
     <path d="M 194.206074 283.856753 
L 202.706074 283.856753 
L 211.206074 283.856753 
" style="fill: none; stroke: #009e73; stroke-width: 1.6; stroke-linecap: square"/>
    </g>
    <g id="text_20">
     <text style="font-size: 8.5px; font-family: 'DejaVu Sans', 'Helvetica', 'Arial', sans-serif; text-anchor: start" x="218.006074" y="286.831753" transform="rotate(-0 218.006074 286.831753)">Spain</text>
    </g>
    <g id="line2d_41">
     <path d="M 194.206074 296.607417 
L 202.706074 296.607417 
L 211.206074 296.607417 
" style="fill: none; stroke: #cc79a7; stroke-width: 1.6; stroke-linecap: square"/>
    </g>
    <g id="text_21">
     <text style="font-size: 8.5px; font-family: 'DejaVu Sans', 'Helvetica', 'Arial', sans-serif; text-anchor: start" x="218.006074" y="299.582417" transform="rotate(-0 218.006074 299.582417)">England</text>
    </g>
    <g id="line2d_42">
     <path d="M 269.513418 283.856753 
L 278.013418 283.856753 
L 286.513418 283.856753 
" style="fill: none; stroke: #e69f00; stroke-width: 1.6; stroke-linecap: square"/>
    </g>
    <g id="text_22">
     <text style="font-size: 8.5px; font-family: 'DejaVu Sans', 'Helvetica', 'Arial', sans-serif; text-anchor: start" x="293.313418" y="286.831753" transform="rotate(-0 293.313418 286.831753)">Norway</text>
    </g>
    <g id="line2d_43">
     <path d="M 269.513418 296.607417 
L 278.013418 296.607417 
L 286.513418 296.607417 
" style="fill: none; stroke: #56b4e9; stroke-width: 1.6; stroke-linecap: square"/>
    </g>
    <g id="text_23">
     <text style="font-size: 8.5px; font-family: 'DejaVu Sans', 'Helvetica', 'Arial', sans-serif; text-anchor: start" x="293.313418" y="299.582417" transform="rotate(-0 293.313418 299.582417)">Belgium</text>
    </g>
    <g id="line2d_44">
     <path d="M 345.160762 283.856753 
L 353.660762 283.856753 
L 362.160762 283.856753 
" style="fill: none; stroke: #8d8579; stroke-width: 1.6; stroke-linecap: square"/>
    </g>
    <g id="text_24">
     <text style="font-size: 8.5px; font-family: 'DejaVu Sans', 'Helvetica', 'Arial', sans-serif; text-anchor: start" x="368.960762" y="286.831753" transform="rotate(-0 368.960762 286.831753)">Switzerland</text>
    </g>
   </g>
  </g>
 </g>
 <defs>
  <clipPath id="p69250dc8ea">
   <rect x="42.042168" y="21.558281" width="446.4" height="220.32"/>
  </clipPath>
 </defs>
</svg>
