<?xml version="1.0" encoding="utf-8" standalone="no"?>
<!DOCTYPE svg PUBLIC "-//W3C//DTD SVG 1.1//EN"
  "http://www.w3.org/Graphics/SVG/1.1/DTD/svg11.dtd">
<svg xmlns:xlink="http://www.w3.org/1999/xlink" width="493.667091pt" height="299.473745pt" viewBox="0 0 493.667091 299.473745" xmlns="http://www.w3.org/2000/svg" version="1.1">
 <metadata>
  <rdf:RDF xmlns:dc="http://purl.org/dc/elements/1.1/" xmlns:cc="http://creativecommons.org/ns#" xmlns:rdf="http://www.w3.org/1999/02/22-rdf-syntax-ns#">
   <cc:Work>
    <dc:type rdf:resource="http://purl.org/dc/dcmitype/StillImage"/>
    <dc:date>2026-07-14T13:55:01.313248</dc:date>
    <dc:format>image/svg+xml</dc:format>
    <dc:creator>
     <cc:Agent>
      <dc:title>Matplotlib v3.11.0, https://matplotlib.org/</dc:title>
     </cc:Agent>
    </dc:creator>
   </cc:Work>
  </rdf:RDF>
 </metadata>
 <defs>
  <style type="text/css">*{stroke-linejoin: round; stroke-linecap: butt}</style>
 </defs>
 <g id="figure_1">
  <g id="patch_1">
   <path d="M 0 299.473745 
L 493.667091 299.473745 
L 493.667091 0 
L 0 0 
z
" style="fill: #ffffff"/>
  </g>
  <g id="axes_1">
   <g id="patch_2">
    <path d="M 40.067091 241.878281 
L 486.467091 241.878281 
L 486.467091 21.558281 
L 40.067091 21.558281 
z
" style="fill: #fcfaf5"/>
   </g>
   <g id="matplotlib.axis_1">
    <g id="xtick_1">
     <g id="line2d_1">
      <path d="M 55.562302 241.878281 
L 55.562302 21.558281 
" clip-path="url(#pde69432c4d)" style="fill: none; stroke: #e3ddd0; stroke-width: 0.7; stroke-linecap: square"/>
     </g>
     <g id="line2d_2">
      <defs>
       <path id="m7273e21210" d="M 0 0 
L 0 3.5 
" style="stroke: #6a6155; stroke-width: 0.8"/>
      </defs>
      <g>
       <use xlink:href="#m7273e21210" x="55.562302" y="241.878281" style="fill: #6a6155; stroke: #6a6155; stroke-width: 0.8"/>
      </g>
     </g>
     <g id="text_1">
      <text style="font-size: 8.5px; font-family: 'DejaVu Sans', 'Helvetica', 'Arial', sans-serif; fill: #6a6155" transform="translate(9.929272 275.60784) rotate(-25)">2026-06-29</text>
     </g>
    </g>
    <g id="xtick_2">
     <g id="line2d_3">
      <path d="M 108.67367 241.878281 
L 108.67367 21.558281 
" clip-path="url(#pde69432c4d)" style="fill: none; stroke: #e3ddd0; stroke-width: 0.7; stroke-linecap: square"/>
     </g>
     <g id="line2d_4">
      <g>
       <use xlink:href="#m7273e21210" x="108.67367" y="241.878281" style="fill: #6a6155; stroke: #6a6155; stroke-width: 0.8"/>
      </g>
     </g>
     <g id="text_2">
      <text style="font-size: 8.5px; font-family: 'DejaVu Sans', 'Helvetica', 'Arial', sans-serif; fill: #6a6155" transform="translate(63.04064 275.60784) rotate(-25)">2026-07-01</text>
     </g>
    </g>
    <g id="xtick_3">
     <g id="line2d_5">
      <path d="M 161.785037 241.878281 
L 161.785037 21.558281 
" clip-path="url(#pde69432c4d)" style="fill: none; stroke: #e3ddd0; stroke-width: 0.7; stroke-linecap: square"/>
     </g>
     <g id="line2d_6">
      <g>
       <use xlink:href="#m7273e21210" x="161.785037" y="241.878281" style="fill: #6a6155; stroke: #6a6155; stroke-width: 0.8"/>
      </g>
     </g>
     <g id="text_3">
      <text style="font-size: 8.5px; font-family: 'DejaVu Sans', 'Helvetica', 'Arial', sans-serif; fill: #6a6155" transform="translate(116.152007 275.60784) rotate(-25)">2026-07-03</text>
     </g>
    </g>
    <g id="xtick_4">
     <g id="line2d_7">
      <path d="M 214.896405 241.878281 
L 214.896405 21.558281 
" clip-path="url(#pde69432c4d)" style="fill: none; stroke: #e3ddd0; stroke-width: 0.7; stroke-linecap: square"/>
     </g>
     <g id="line2d_8">
      <g>
       <use xlink:href="#m7273e21210" x="214.896405" y="241.878281" style="fill: #6a6155; stroke: #6a6155; stroke-width: 0.8"/>
      </g>
     </g>
     <g id="text_4">
      <text style="font-size: 8.5px; font-family: 'DejaVu Sans', 'Helvetica', 'Arial', sans-serif; fill: #6a6155" transform="translate(169.263375 275.60784) rotate(-25)">2026-07-05</text>
     </g>
    </g>
    <g id="xtick_5">
     <g id="line2d_9">
      <path d="M 268.007773 241.878281 
L 268.007773 21.558281 
" clip-path="url(#pde69432c4d)" style="fill: none; stroke: #e3ddd0; stroke-width: 0.7; stroke-linecap: square"/>
     </g>
     <g id="line2d_10">
      <g>
       <use xlink:href="#m7273e21210" x="268.007773" y="241.878281" style="fill: #6a6155; stroke: #6a6155; stroke-width: 0.8"/>
      </g>
     </g>
     <g id="text_5">
      <text style="font-size: 8.5px; font-family: 'DejaVu Sans', 'Helvetica', 'Arial', sans-serif; fill: #6a6155" transform="translate(222.374743 275.60784) rotate(-25)">2026-07-07</text>
     </g>
    </g>
    <g id="xtick_6">
     <g id="line2d_11">
      <path d="M 321.11914 241.878281 
L 321.11914 21.558281 
" clip-path="url(#pde69432c4d)" style="fill: none; stroke: #e3ddd0; stroke-width: 0.7; stroke-linecap: square"/>
     </g>
     <g id="line2d_12">
      <g>
       <use xlink:href="#m7273e21210" x="321.11914" y="241.878281" style="fill: #6a6155; stroke: #6a6155; stroke-width: 0.8"/>
      </g>
     </g>
     <g id="text_6">
      <text style="font-size: 8.5px; font-family: 'DejaVu Sans', 'Helvetica', 'Arial', sans-serif; fill: #6a6155" transform="translate(275.48611 275.60784) rotate(-25)">2026-07-09</text>
     </g>
    </g>
    <g id="xtick_7">
     <g id="line2d_13">
      <path d="M 374.230508 241.878281 
L 374.230508 21.558281 
" clip-path="url(#pde69432c4d)" style="fill: none; stroke: #e3ddd0; stroke-width: 0.7; stroke-linecap: square"/>
     </g>
     <g id="line2d_14">
      <g>
       <use xlink:href="#m7273e21210" x="374.230508" y="241.878281" style="fill: #6a6155; stroke: #6a6155; stroke-width: 0.8"/>
      </g>
     </g>
     <g id="text_7">
      <text style="font-size: 8.5px; font-family: 'DejaVu Sans', 'Helvetica', 'Arial', sans-serif; fill: #6a6155" transform="translate(328.597478 275.60784) rotate(-25)">2026-07-11</text>
     </g>
    </g>
    <g id="xtick_8">
     <g id="line2d_15">
      <path d="M 427.341876 241.878281 
L 427.341876 21.558281 
" clip-path="url(#pde69432c4d)" style="fill: none; stroke: #e3ddd0; stroke-width: 0.7; stroke-linecap: square"/>
     </g>
     <g id="line2d_16">
      <g>
       <use xlink:href="#m7273e21210" x="427.341876" y="241.878281" style="fill: #6a6155; stroke: #6a6155; stroke-width: 0.8"/>
      </g>
     </g>
     <g id="text_8">
      <text style="font-size: 8.5px; font-family: 'DejaVu Sans', 'Helvetica', 'Arial', sans-serif; fill: #6a6155" transform="translate(381.708846 275.60784) rotate(-25)">2026-07-13</text>
     </g>
    </g>
    <g id="xtick_9">
     <g id="line2d_17">
      <path d="M 480.453243 241.878281 
L 480.453243 21.558281 
" clip-path="url(#pde69432c4d)" style="fill: none; stroke: #e3ddd0; stroke-width: 0.7; stroke-linecap: square"/>
     </g>
     <g id="line2d_18">
      <g>
       <use xlink:href="#m7273e21210" x="480.453243" y="241.878281" style="fill: #6a6155; stroke: #6a6155; stroke-width: 0.8"/>
      </g>
     </g>
     <g id="text_9">
      <text style="font-size: 8.5px; font-family: 'DejaVu Sans', 'Helvetica', 'Arial', sans-serif; fill: #6a6155" transform="translate(434.820213 275.60784) rotate(-25)">2026-07-15</text>
     </g>
    </g>
   </g>
   <g id="matplotlib.axis_2">
    <g id="ytick_1">
     <g id="line2d_19">
      <path d="M 40.067091 232.154856 
L 486.467091 232.154856 
" clip-path="url(#pde69432c4d)" style="fill: none; stroke: #e3ddd0; stroke-width: 0.7; stroke-linecap: square"/>
     </g>
     <g id="line2d_20">
      <defs>
       <path id="m9a3569fc47" d="M 0 0 
L -3.5 0 
" style="stroke: #6a6155; stroke-width: 0.8"/>
      </defs>
      <g>
       <use xlink:href="#m9a3569fc47" x="40.067091" y="232.154856" style="fill: #6a6155; stroke: #6a6155; stroke-width: 0.8"/>
      </g>
     </g>
     <g id="text_10">
      <text style="font-size: 8.5px; font-family: 'DejaVu Sans', 'Helvetica', 'Arial', sans-serif; text-anchor: end; fill: #6a6155" x="33.067091" y="235.38386" transform="rotate(-0 33.067091 235.38386)">5</text>
     </g>
    </g>
    <g id="ytick_2">
     <g id="line2d_21">
      <path d="M 40.067091 203.042806 
L 486.467091 203.042806 
" clip-path="url(#pde69432c4d)" style="fill: none; stroke: #e3ddd0; stroke-width: 0.7; stroke-linecap: square"/>
     </g>
     <g id="line2d_22">
      <g>
       <use xlink:href="#m9a3569fc47" x="40.067091" y="203.042806" style="fill: #6a6155; stroke: #6a6155; stroke-width: 0.8"/>
      </g>
     </g>
     <g id="text_11">
      <text style="font-size: 8.5px; font-family: 'DejaVu Sans', 'Helvetica', 'Arial', sans-serif; text-anchor: end; fill: #6a6155" x="33.067091" y="206.271809" transform="rotate(-0 33.067091 206.271809)">10</text>
     </g>
    </g>
    <g id="ytick_3">
     <g id="line2d_23">
      <path d="M 40.067091 173.930755 
L 486.467091 173.930755 
" clip-path="url(#pde69432c4d)" style="fill: none; stroke: #e3ddd0; stroke-width: 0.7; stroke-linecap: square"/>
     </g>
     <g id="line2d_24">
      <g>
       <use xlink:href="#m9a3569fc47" x="40.067091" y="173.930755" style="fill: #6a6155; stroke: #6a6155; stroke-width: 0.8"/>
      </g>
     </g>
     <g id="text_12">
      <text style="font-size: 8.5px; font-family: 'DejaVu Sans', 'Helvetica', 'Arial', sans-serif; text-anchor: end; fill: #6a6155" x="33.067091" y="177.159759" transform="rotate(-0 33.067091 177.159759)">15</text>
     </g>
    </g>
    <g id="ytick_4">
     <g id="line2d_25">
      <path d="M 40.067091 144.818704 
L 486.467091 144.818704 
" clip-path="url(#pde69432c4d)" style="fill: none; stroke: #e3ddd0; stroke-width: 0.7; stroke-linecap: square"/>
     </g>
     <g id="line2d_26">
      <g>
       <use xlink:href="#m9a3569fc47" x="40.067091" y="144.818704" style="fill: #6a6155; stroke: #6a6155; stroke-width: 0.8"/>
      </g>
     </g>
     <g id="text_13">
      <text style="font-size: 8.5px; font-family: 'DejaVu Sans', 'Helvetica', 'Arial', sans-serif; text-anchor: end; fill: #6a6155" x="33.067091" y="148.047708" transform="rotate(-0 33.067091 148.047708)">20</text>
     </g>
    </g>
    <g id="ytick_5">
     <g id="line2d_27">
      <path d="M 40.067091 115.706653 
L 486.467091 115.706653 
" clip-path="url(#pde69432c4d)" style="fill: none; stroke: #e3ddd0; stroke-width: 0.7; stroke-linecap: square"/>
     </g>
     <g id="line2d_28">
      <g>
       <use xlink:href="#m9a3569fc47" x="40.067091" y="115.706653" style="fill: #6a6155; stroke: #6a6155; stroke-width: 0.8"/>
      </g>
     </g>
     <g id="text_14">
      <text style="font-size: 8.5px; font-family: 'DejaVu Sans', 'Helvetica', 'Arial', sans-serif; text-anchor: end; fill: #6a6155" x="33.067091" y="118.935657" transform="rotate(-0 33.067091 118.935657)">25</text>
     </g>
    </g>
    <g id="ytick_6">
     <g id="line2d_29">
      <path d="M 40.067091 86.594603 
L 486.467091 86.594603 
" clip-path="url(#pde69432c4d)" style="fill: none; stroke: #e3ddd0; stroke-width: 0.7; stroke-linecap: square"/>
     </g>
     <g id="line2d_30">
      <g>
       <use xlink:href="#m9a3569fc47" x="40.067091" y="86.594603" style="fill: #6a6155; stroke: #6a6155; stroke-width: 0.8"/>
      </g>
     </g>
     <g id="text_15">
      <text style="font-size: 8.5px; font-family: 'DejaVu Sans', 'Helvetica', 'Arial', sans-serif; text-anchor: end; fill: #6a6155" x="33.067091" y="89.823607" transform="rotate(-0 33.067091 89.823607)">30</text>
     </g>
    </g>
    <g id="ytick_7">
     <g id="line2d_31">
      <path d="M 40.067091 57.482552 
L 486.467091 57.482552 
" clip-path="url(#pde69432c4d)" style="fill: none; stroke: #e3ddd0; stroke-width: 0.7; stroke-linecap: square"/>
     </g>
     <g id="line2d_32">
      <g>
       <use xlink:href="#m9a3569fc47" x="40.067091" y="57.482552" style="fill: #6a6155; stroke: #6a6155; stroke-width: 0.8"/>
      </g>
     </g>
     <g id="text_16">
      <text style="font-size: 8.5px; font-family: 'DejaVu Sans', 'Helvetica', 'Arial', sans-serif; text-anchor: end; fill: #6a6155" x="33.067091" y="60.711556" transform="rotate(-0 33.067091 60.711556)">35</text>
     </g>
    </g>
    <g id="ytick_8">
     <g id="line2d_33">
      <path d="M 40.067091 28.370501 
L 486.467091 28.370501 
" clip-path="url(#pde69432c4d)" style="fill: none; stroke: #e3ddd0; stroke-width: 0.7; stroke-linecap: square"/>
     </g>
     <g id="line2d_34">
      <g>
       <use xlink:href="#m9a3569fc47" x="40.067091" y="28.370501" style="fill: #6a6155; stroke: #6a6155; stroke-width: 0.8"/>
      </g>
     </g>
     <g id="text_17">
      <text style="font-size: 8.5px; font-family: 'DejaVu Sans', 'Helvetica', 'Arial', sans-serif; text-anchor: end; fill: #6a6155" x="33.067091" y="31.599505" transform="rotate(-0 33.067091 31.599505)">40</text>
     </g>
    </g>
    <g id="text_18">
     <text style="font-size: 9.5px; font-family: 'DejaVu Sans', 'Helvetica', 'Arial', sans-serif; text-anchor: middle; fill: #1b1712" x="15.968615" y="131.718281" transform="rotate(-90 15.968615 131.718281)">Implied win probability, %</text>
    </g>
   </g>
   <g id="line2d_35">
    <path d="M 60.358001 127.642594 
L 61.110719 127.642594 
L 64.436019 124.731389 
L 67.761319 125.895871 
L 71.086927 124.731389 
L 74.669486 124.149148 
L 78.004621 124.731389 
L 81.385553 124.149148 
L 84.710546 106.681918 
L 88.039535 101.441748 
L 91.366372 92.708133 
L 94.696897 92.125892 
L 98.023427 97.948302 
L 101.345039 97.948302 
L 104.670646 96.201579 
L 108.004245 70.582975 
L 111.331082 67.67177 
L 114.660071 72.329698 
L 117.985679 70.582975 
L 121.316204 70.582975 
L 124.641504 71.165216 
L 127.96496 70.582975 
L 131.292105 52.533503 
L 134.628777 52.824624 
L 137.955614 57.191431 
L 141.281837 55.444708 
L 144.607444 56.60919 
L 147.936433 57.191431 
L 151.26327 57.191431 
L 154.596561 59.520395 
L 157.922169 61.267118 
L 161.249006 61.849359 
L 164.576765 61.849359 
L 167.912823 62.4316 
L 171.238431 65.925047 
L 174.573259 67.67177 
L 177.898252 67.67177 
L 181.218942 67.089529 
L 187.878148 67.089529 
L 191.204985 58.938154 
L 194.542887 61.267118 
L 197.868188 54.862467 
L 201.193795 56.60919 
L 204.520632 56.60919 
L 207.842859 57.191431 
L 211.168159 49.040057 
L 217.824292 52.533503 
L 221.153895 53.697985 
L 227.813102 53.697985 
L 231.13871 56.026949 
L 234.472001 59.520395 
L 237.798838 60.102636 
L 241.119221 63.596083 
L 244.444828 63.013842 
L 247.779964 71.165216 
L 251.105264 68.254011 
L 254.433638 71.747457 
L 257.758939 70.582975 
L 261.090386 71.165216 
L 264.416916 70.000734 
L 267.746826 70.000734 
L 271.072434 69.418493 
L 274.400808 68.254011 
L 277.726108 68.836252 
L 281.062473 68.836252 
L 284.387466 70.000734 
L 287.719221 59.811516 
L 291.043292 70.582975 
L 291.972126 70.582975 
L 295.289128 68.254011 
L 296.989429 68.836252 
L 297.639183 69.418493 
L 300.955877 70.582975 
L 304.281177 71.165216 
L 314.495587 71.165216 
L 317.815662 71.747457 
L 321.147725 71.747457 
L 324.47241 73.49418 
L 327.830905 74.076421 
L 331.156513 75.240903 
L 334.497488 74.076421 
L 337.824018 74.076421 
L 341.151777 75.240903 
L 344.477077 73.7853 
L 347.796538 35.648514 
L 349.748565 36.230755 
L 353.0628 36.812996 
L 366.43623 36.812996 
L 369.76399 31.572827 
L 373.090519 43.799888 
L 379.738354 43.799888 
L 383.063654 39.724201 
L 386.388954 37.395237 
L 389.709029 37.395237 
L 393.035252 39.724201 
L 396.355942 37.977478 
L 399.681549 37.395237 
L 403.009001 43.217647 
L 406.334301 36.230755 
L 409.654684 40.888683 
L 412.979677 36.812996 
L 416.302211 35.066273 
L 426.27596 35.066273 
L 429.600338 34.484032 
L 432.925638 35.066273 
L 449.552447 35.066273 
L 452.877747 34.484032 
L 462.850882 34.484032 
L 466.176182 33.901791 
L 466.176182 33.901791 
" clip-path="url(#pde69432c4d)" style="fill: none; stroke: #0072b2; stroke-width: 1.6; stroke-linecap: square"/>
   </g>
   <g id="line2d_36">
    <path d="M 60.358001 201.587203 
L 81.385553 201.587203 
L 84.710546 202.751685 
L 88.039535 202.169444 
L 91.366372 202.751685 
L 94.696897 202.751685 
L 98.023427 203.333926 
L 104.670646 203.333926 
L 108.004245 204.498408 
L 111.331082 204.498408 
L 114.660071 206.827372 
L 124.641504 206.827372 
L 127.96496 226.623567 
L 131.292105 211.4853 
L 134.628777 213.814264 
L 137.955614 213.232023 
L 141.281837 213.814264 
L 144.607444 213.232023 
L 147.936433 213.232023 
L 154.596561 214.396505 
L 157.922169 216.143228 
L 161.249006 216.725469 
L 164.576765 216.725469 
L 167.912823 219.054433 
L 171.238431 219.054433 
L 174.573259 219.636674 
L 184.543935 219.636674 
L 187.878148 217.30771 
L 191.204985 220.801157 
L 194.542887 220.801157 
L 197.868188 216.725469 
L 201.193795 218.472192 
L 204.520632 222.54788 
L 207.842859 221.383398 
L 211.168159 221.965639 
L 214.498685 221.383398 
L 217.824292 221.383398 
L 221.153895 221.965639 
L 224.480118 221.383398 
L 227.813102 221.383398 
L 231.13871 219.636674 
L 234.472001 219.054433 
L 237.798838 217.889951 
L 241.119221 214.396505 
L 244.444828 210.320818 
L 247.779964 178.879803 
L 251.105264 178.879803 
L 254.433638 180.044285 
L 257.758939 179.462044 
L 261.090386 176.550839 
L 267.746826 176.550839 
L 271.072434 174.804116 
L 274.400808 175.386357 
L 277.726108 177.715321 
L 281.062473 177.715321 
L 284.387466 175.386357 
L 287.719221 139.578535 
L 291.043292 171.31067 
L 291.398904 172.475152 
L 291.972126 172.475152 
L 295.289128 170.146188 
L 296.989429 169.563947 
L 297.639183 170.146188 
L 307.855744 170.146188 
L 311.169365 168.981706 
L 321.147725 168.981706 
L 324.47241 168.399465 
L 327.830905 168.981706 
L 334.497488 167.817224 
L 341.151777 167.817224 
L 344.477077 167.234983 
L 347.796538 168.399465 
L 359.784093 168.399465 
L 363.11093 171.31067 
L 369.76399 171.31067 
L 373.090519 175.968598 
L 376.413053 174.221875 
L 379.738354 176.259719 
L 383.063654 177.13308 
L 386.388954 176.550839 
L 389.709029 177.13308 
L 393.035252 177.13308 
L 396.355942 177.715321 
L 399.681549 191.106865 
L 403.009001 147.438789 
L 406.334301 139.287414 
L 409.654684 139.287414 
L 412.979677 135.793968 
L 419.627511 135.793968 
L 422.95066 136.376209 
L 426.27596 136.376209 
L 429.600338 135.793968 
L 446.228069 135.793968 
L 449.552447 131.718281 
L 452.877747 131.718281 
L 456.20397 134.629486 
L 459.52927 135.793968 
L 462.850882 135.793968 
L 466.176182 135.211727 
L 466.176182 135.211727 
" clip-path="url(#pde69432c4d)" style="fill: none; stroke: #d55e00; stroke-width: 1.6; stroke-linecap: square"/>
   </g>
   <g id="line2d_37">
    <path d="M 60.358001 196.347034 
L 61.110719 196.347034 
L 64.436019 196.929275 
L 67.761319 196.929275 
L 71.086927 196.347034 
L 74.669486 196.347034 
L 78.004621 196.929275 
L 81.385553 194.600311 
L 88.039535 195.764793 
L 94.696897 195.764793 
L 98.023427 195.182552 
L 101.345039 195.182552 
L 104.670646 195.764793 
L 108.004245 196.929275 
L 111.331082 202.751685 
L 114.660071 202.751685 
L 117.985679 202.169444 
L 121.316204 201.004962 
L 124.641504 201.587203 
L 127.96496 201.004962 
L 131.292105 202.751685 
L 134.628777 201.587203 
L 137.955614 202.751685 
L 141.281837 202.751685 
L 144.607444 203.333926 
L 147.936433 202.751685 
L 151.26327 203.333926 
L 154.596561 199.84048 
L 157.922169 193.144708 
L 161.249006 187.031178 
L 164.576765 188.19566 
L 167.912823 188.777901 
L 171.238431 189.942383 
L 174.573259 188.19566 
L 177.898252 184.702214 
L 181.218942 187.031178 
L 184.543935 186.448937 
L 187.878148 189.360142 
L 191.204985 184.993334 
L 194.542887 189.360142 
L 197.868188 189.942383 
L 201.193795 189.942383 
L 204.520632 187.031178 
L 207.842859 189.360142 
L 214.498685 189.360142 
L 217.824292 188.19566 
L 221.153895 188.777901 
L 224.480118 188.19566 
L 231.13871 189.360142 
L 234.472001 189.360142 
L 237.798838 188.777901 
L 241.119221 187.613419 
L 244.444828 188.19566 
L 247.779964 186.448937 
L 251.105264 186.448937 
L 254.433638 187.031178 
L 257.758939 188.777901 
L 261.090386 183.828852 
L 264.416916 194.01807 
L 267.746826 154.425681 
L 271.072434 152.678958 
L 277.726108 155.007922 
L 281.062473 156.754645 
L 284.387466 150.932235 
L 287.719221 146.565427 
L 291.043292 152.096717 
L 291.972126 152.096717 
L 295.289128 153.261199 
L 307.855744 153.261199 
L 311.169365 152.096717 
L 331.156513 152.096717 
L 334.497488 150.349994 
L 337.824018 149.185512 
L 341.151777 148.603271 
L 344.477077 150.349994 
L 347.796538 159.66585 
L 349.748565 160.830332 
L 353.0628 160.830332 
L 356.458793 161.412573 
L 359.784093 164.323778 
L 363.11093 165.48826 
L 366.43623 165.48826 
L 369.76399 168.981706 
L 373.090519 138.705173 
L 376.413053 138.122932 
L 386.388954 138.122932 
L 389.709029 139.287414 
L 396.355942 139.287414 
L 399.681549 139.869655 
L 403.009001 146.274307 
L 406.334301 144.527584 
L 409.654684 145.109825 
L 412.979677 145.109825 
L 416.302211 144.527584 
L 419.627511 144.527584 
L 422.95066 143.363102 
L 426.27596 141.616379 
L 432.925638 140.451896 
L 439.578083 140.451896 
L 449.552447 138.705173 
L 452.877747 137.540691 
L 456.20397 138.122932 
L 459.52927 138.122932 
L 466.176182 136.95845 
L 466.176182 136.95845 
" clip-path="url(#pde69432c4d)" style="fill: none; stroke: #009e73; stroke-width: 1.6; stroke-linecap: square"/>
   </g>
   <g id="line2d_38">
    <path d="M 60.358001 142.19862 
L 61.110719 140.451896 
L 64.436019 139.869655 
L 74.669486 139.869655 
L 78.004621 146.856548 
L 81.385553 147.438789 
L 84.710546 143.363102 
L 88.039535 145.109825 
L 91.366372 148.603271 
L 104.670646 148.603271 
L 108.004245 149.185512 
L 111.331082 156.172404 
L 114.660071 155.007922 
L 117.985679 154.425681 
L 121.316204 150.932235 
L 124.641504 148.603271 
L 127.96496 146.856548 
L 131.292105 154.425681 
L 134.628777 155.590163 
L 137.955614 156.172404 
L 144.607444 156.172404 
L 147.936433 155.590163 
L 151.26327 154.425681 
L 154.596561 153.84344 
L 157.922169 154.425681 
L 161.249006 150.349994 
L 164.576765 147.438789 
L 167.912823 150.932235 
L 171.238431 149.767753 
L 174.573259 149.185512 
L 177.898252 148.02103 
L 181.218942 148.603271 
L 184.543935 148.603271 
L 187.878148 162.285935 
L 191.204985 161.994814 
L 194.542887 159.083609 
L 197.868188 160.830332 
L 201.193795 161.994814 
L 207.842859 161.994814 
L 211.168159 166.070501 
L 214.498685 164.323778 
L 217.824292 163.741537 
L 231.13871 163.741537 
L 234.472001 163.159296 
L 237.798838 160.248091 
L 241.119221 159.66585 
L 244.444828 161.412573 
L 247.779964 160.248091 
L 251.105264 163.159296 
L 254.433638 164.323778 
L 257.758939 164.323778 
L 261.090386 155.590163 
L 264.416916 161.994814 
L 267.746826 161.994814 
L 271.072434 156.463524 
L 274.400808 153.84344 
L 277.726108 152.096717 
L 284.387466 157.919127 
L 287.719221 231.863736 
L 291.043292 162.577055 
L 291.398904 162.577055 
L 291.603604 159.083609 
L 291.972126 159.66585 
L 295.289128 153.84344 
L 296.989429 153.84344 
L 297.639183 152.678958 
L 300.955877 152.096717 
L 304.281177 152.678958 
L 307.855744 152.096717 
L 311.169365 152.096717 
L 314.495587 148.02103 
L 317.815662 142.780861 
L 321.147725 144.527584 
L 337.824018 144.527584 
L 341.151777 147.438789 
L 344.477077 152.096717 
L 347.796538 157.336886 
L 349.748565 157.336886 
L 356.458793 155.007922 
L 359.784093 152.096717 
L 363.11093 156.754645 
L 366.43623 157.336886 
L 369.76399 154.425681 
L 373.090519 157.919127 
L 376.413053 155.007922 
L 379.738354 158.501368 
L 383.063654 157.336886 
L 396.355942 159.66585 
L 399.681549 158.210247 
L 403.009001 141.034137 
L 406.334301 147.438789 
L 409.654684 152.096717 
L 416.302211 150.932235 
L 422.95066 154.425681 
L 429.600338 155.590163 
L 432.925638 156.754645 
L 436.252783 158.501368 
L 439.578083 159.66585 
L 442.901232 160.248091 
L 446.228069 161.994814 
L 452.877747 159.66585 
L 456.20397 159.66585 
L 459.52927 160.248091 
L 466.176182 160.248091 
L 466.176182 160.248091 
" clip-path="url(#pde69432c4d)" style="fill: none; stroke: #cc79a7; stroke-width: 1.6; stroke-linecap: square"/>
   </g>
   <g id="patch_3">
    <path d="M 40.067091 241.878281 
L 40.067091 21.558281 
" style="fill: none; stroke: #6a6155; stroke-width: 0.8; stroke-linejoin: miter; stroke-linecap: square"/>
   </g>
   <g id="patch_4">
    <path d="M 40.067091 241.878281 
L 486.467091 241.878281 
" style="fill: none; stroke: #6a6155; stroke-width: 0.8; stroke-linejoin: miter; stroke-linecap: square"/>
   </g>
   <g id="text_19">
    <text style="font-size: 11px; font-family: 'DejaVu Sans', 'Helvetica', 'Arial', sans-serif; text-anchor: middle; fill: #1b1712" x="263.267091" y="15.558281" transform="rotate(-0 263.267091 15.558281)">Prediction-market winner odds (Polymarket, 3-hour snapshots)</text>
   </g>
   <g id="legend_1">
    <g id="line2d_39">
     <path d="M 126.175373 283.856753 
L 134.675373 283.856753 
L 143.175373 283.856753 
" style="fill: none; stroke: #0072b2; stroke-width: 1.6; stroke-linecap: square"/>
    </g>
    <g id="text_20">
     <text style="font-size: 8.5px; font-family: 'DejaVu Sans', 'Helvetica', 'Arial', sans-serif; text-anchor: start" x="149.975373" y="286.831753" transform="rotate(-0 149.975373 286.831753)">France</text>
    </g>
    <g id="line2d_40">
     <path d="M 195.239201 283.856753 
L 203.739201 283.856753 
L 212.239201 283.856753 
" style="fill: none; stroke: #d55e00; stroke-width: 1.6; stroke-linecap: square"/>
    </g>
    <g id="text_21">
     <text style="font-size: 8.5px; font-family: 'DejaVu Sans', 'Helvetica', 'Arial', sans-serif; text-anchor: start" x="219.039201" y="286.831753" transform="rotate(-0 219.039201 286.831753)">England</text>
    </g>
    <g id="line2d_41">
     <path d="M 270.546545 283.856753 
L 279.046545 283.856753 
L 287.546545 283.856753 
" style="fill: none; stroke: #009e73; stroke-width: 1.6; stroke-linecap: square"/>
    </g>
    <g id="text_22">
     <text style="font-size: 8.5px; font-family: 'DejaVu Sans', 'Helvetica', 'Arial', sans-serif; text-anchor: start" x="294.346545" y="286.831753" transform="rotate(-0 294.346545 286.831753)">Spain</text>
    </g>
    <g id="line2d_42">
     <path d="M 335.096076 283.856753 
L 343.596076 283.856753 
L 352.096076 283.856753 
" style="fill: none; stroke: #cc79a7; stroke-width: 1.6; stroke-linecap: square"/>
    </g>
    <g id="text_23">
     <text style="font-size: 8.5px; font-family: 'DejaVu Sans', 'Helvetica', 'Arial', sans-serif; text-anchor: start" x="358.896076" y="286.831753" transform="rotate(-0 358.896076 286.831753)">Argentina</text>
    </g>
   </g>
  </g>
 </g>
 <defs>
  <clipPath id="pde69432c4d">
   <rect x="40.067091" y="21.558281" width="446.4" height="220.32"/>
  </clipPath>
 </defs>
</svg>
