<svg width="267" height="106" fill="none" xmlns="http://www.w3.org/2000/svg"><path d="M260.512 10.602L145.011 3.008a6.91 6.91 0 00-7.349 6.442l-7.594 115.501a6.91 6.91 0 006.442 7.349l115.501 7.594a6.91 6.91 0 007.349-6.442l7.594-115.501a6.91 6.91 0 00-6.442-7.35z" fill="#fff"/><path d="M250.182 22.904l-96.538-6.348a3.455 3.455 0 00-3.674 3.221l-1.927 29.307a3.455 3.455 0 003.221 3.674l96.538 6.347a3.455 3.455 0 003.674-3.22l1.927-29.307a3.455 3.455 0 00-3.221-3.674z" fill="#F3F3F3"/><path d="M200.046 48.174c5.712.376 10.648-3.95 11.023-9.663.376-5.713-3.951-10.648-9.663-11.024-5.713-.375-10.648 3.951-11.024 9.664-.375 5.712 3.951 10.647 9.664 11.023z" fill="#fff"/><path d="M199.072 34.25l.11-1.667 3.116.205-.62 9.425-1.862-.122.51-7.758-1.254-.082z" fill="#03122B"/><path d="M212.113 31.828a4.75 4.75 0 11-9.48-.622 4.75 4.75 0 019.48.622z" fill="#30D158" stroke="#fff" stroke-width=".864"/><path d="M206.432 32.659l-.931-1.063a.287.287 0 10-.431.379l1.121 1.28c.106.12.286.131.405.026l3.24-2.84a.287.287 0 10-.378-.432l-3.026 2.65z" fill="#fff"/><path d="M247.13 69.451l-96.538-6.347a3.455 3.455 0 00-3.674 3.221l-.397 6.034a3.455 3.455 0 003.221 3.674l96.538 6.348a3.456 3.456 0 003.675-3.222l.396-6.033a3.455 3.455 0 00-3.221-3.675z" fill="#F3F3F3"/><path d="M186.095 65.438l-35.503-2.334a3.455 3.455 0 00-3.674 3.221l-.397 6.034a3.455 3.455 0 003.221 3.674l35.503 2.335a3.456 3.456 0 003.675-3.221l.396-6.034a3.454 3.454 0 00-3.221-3.675z" fill="#9A9996"/><path d="M246.16 84.105l-96.538-6.347a3.455 3.455 0 00-3.675 3.221l-.397 6.034a3.456 3.456 0 003.222 3.674l96.537 6.347a3.455 3.455 0 003.675-3.22l.397-6.034a3.455 3.455 0 00-3.221-3.675zm-.963 14.65l-96.538-6.347a3.456 3.456 0 00-3.675 3.22l-.396 6.035a3.454 3.454 0 003.221 3.674l96.538 6.347a3.455 3.455 0 003.674-3.221l.397-6.033a3.455 3.455 0 00-3.221-3.675z" fill="#F3F3F3"/><path d="M209.375 81.687l-59.753-3.93a3.455 3.455 0 00-3.675 3.222l-.397 6.034a3.456 3.456 0 003.222 3.674l59.753 3.929a3.455 3.455 0 003.674-3.221l.397-6.034a3.455 3.455 0 00-3.221-3.674z" fill="#E03AAD"/><path d="M194.342 95.411l-45.683-3.003a3.456 3.456 0 00-3.675 3.22l-.396 6.035a3.454 3.454 0 003.221 3.674l45.683 3.004a3.455 3.455 0 003.674-3.221l.397-6.034a3.455 3.455 0 00-3.221-3.675z" fill="#9A9996"/><g filter="url(#filter0_d_2952_418197)"><path d="M124.563 3.14L11.345 13.019a6.785 6.785 0 00-6.17 7.35l9.878 113.217a6.784 6.784 0 007.35 6.169l113.217-9.877a6.785 6.785 0 006.169-7.349L131.912 9.31a6.785 6.785 0 00-7.349-6.17z" fill="#fff"/><path d="M116.374 16.627l-94.63 8.256a3.392 3.392 0 00-3.085 3.675l2.506 28.727a3.392 3.392 0 003.675 3.084l94.63-8.255a3.392 3.392 0 003.084-3.675l-2.506-28.727a3.392 3.392 0 00-3.674-3.085z" fill="#F3F3F3"/><path d="M71.493 48.637c5.6-.489 9.743-5.424 9.254-11.024-.488-5.6-5.424-9.742-11.023-9.254-5.6.489-9.743 5.424-9.255 11.024.49 5.6 5.424 9.742 11.024 9.254z" fill="#E03AAD"/><mask id="a" style="mask-type:luminance" maskUnits="userSpaceOnUse" x="63" y="31" width="15" height="15"><path d="M76.159 31.883l-12.167 1.062 1.062 12.166L77.22 44.05l-1.06-12.167z" fill="#fff"/></mask><g mask="url(#a)"><path fill-rule="evenodd" clip-rule="evenodd" d="M71.908 33.639l.07.81.002-.001a4.795 4.795 0 01.398 9.575c-.09.008-.18.011-.27.015a.441.441 0 01-.46-.419.436.436 0 01.414-.452h.01c.084-.004.157-.006.23-.013a3.926 3.926 0 10-.68-7.822h-.003l-.004.001a3.91 3.91 0 00-3.487 3.052.436.436 0 01-.85-.188 4.795 4.795 0 01.674-1.59l-.64-.538a.436.436 0 11.562-.667l.62.52a4.78 4.78 0 012.617-1.398l-.07-.81-.412.037a.437.437 0 01-.075-.87l1.689-.146a.436.436 0 01.076.868l-.411.036zm.385 5.887l1.595-1.897a.436.436 0 00-.668-.56l-1.593 1.895a.436.436 0 10.667.56v.002zm-1.857.278a.436.436 0 01-.396.473l-4.93.43a.436.436 0 11-.076-.869l4.93-.43c.24-.02.451.157.472.396zm-.32 1.341l-3.628.317a.437.437 0 00.076.868l3.627-.316a.436.436 0 10-.076-.869zm-2.173 1.94l2.324-.203a.436.436 0 01.076.869l-2.325.203a.436.436 0 11-.075-.869z" fill="#fff"/></g><path d="M120.351 62.251l-94.63 8.256a3.392 3.392 0 00-3.084 3.674l.516 5.915a3.392 3.392 0 003.674 3.084l94.63-8.255a3.392 3.392 0 003.085-3.675l-.516-5.914a3.393 3.393 0 00-3.675-3.085z" fill="#F3F3F3"/><path d="M91.624 64.757l-65.903 5.75a3.392 3.392 0 00-3.084 3.674l.516 5.915a3.392 3.392 0 003.674 3.084l65.903-5.75a3.393 3.393 0 003.084-3.674l-.515-5.914a3.392 3.392 0 00-3.675-3.085z" fill="#E03AAD"/><path d="M121.609 76.614l-94.63 8.256a3.392 3.392 0 00-3.084 3.675l.515 5.914a3.392 3.392 0 003.675 3.085l94.63-8.256a3.394 3.394 0 003.085-3.675l-.516-5.914a3.393 3.393 0 00-3.675-3.085zm1.248 14.364l-94.63 8.256a3.392 3.392 0 00-3.085 3.674l.517 5.914a3.392 3.392 0 003.674 3.085l94.63-8.256a3.394 3.394 0 003.085-3.674l-.516-5.915a3.393 3.393 0 00-3.675-3.084zm1.252 14.363l-94.63 8.256a3.392 3.392 0 00-3.084 3.674l.515 5.915a3.392 3.392 0 003.675 3.084l94.63-8.256a3.393 3.393 0 003.085-3.674l-.516-5.914a3.392 3.392 0 00-3.675-3.085z" fill="#F3F3F3"/><path d="M43.032 83.47l-16.053 1.4a3.392 3.392 0 00-3.084 3.675l.515 5.914a3.392 3.392 0 003.675 3.085l16.053-1.4a3.392 3.392 0 003.085-3.675l-.516-5.915a3.392 3.392 0 00-3.675-3.084zm29.975 11.857l-44.78 3.907a3.392 3.392 0 00-3.085 3.674l.517 5.914a3.392 3.392 0 003.674 3.085L74.113 108a3.392 3.392 0 003.085-3.674l-.516-5.915a3.393 3.393 0 00-3.675-3.084z" fill="#9A9996"/><mask id="b" style="mask-type:luminance" maskUnits="userSpaceOnUse" x="107" y="44" width="26" height="27"><path d="M132.873 50.468L113.27 44.99l-5.478 19.604 19.604 5.478 5.477-19.604z" fill="#fff"/></mask><g mask="url(#b)" fill="#F09316" stroke="#F09316" stroke-width=".848"><path d="M113.783 63.627l8.985 2.51 4.847-7.891-4.655.901-1.261-6.517-4.457 4.92-3.513-3.184.054 9.261z" stroke-linecap="round" stroke-linejoin="round"/><path d="M113.73 54.366a1.273 1.273 0 10.685-2.452 1.273 1.273 0 00-.685 2.452zm7.969-1.736a1.272 1.272 0 10.685-2.449 1.272 1.272 0 00-.685 2.45zm5.919 5.615a1.272 1.272 0 10.684-2.45 1.272 1.272 0 00-.684 2.45z"/></g></g><defs><filter id="filter0_d_2952_418197" x=".046" y=".563" width="146.873" height="146.873" filterUnits="userSpaceOnUse" color-interpolation-filters="sRGB"><feFlood flood-opacity="0" result="BackgroundImageFix"/><feColorMatrix in="SourceAlpha" values="0 0 0 0 0 0 0 0 0 0 0 0 0 0 0 0 0 0 127 0" result="hardAlpha"/><feOffset dy="2.552"/><feGaussianBlur stdDeviation="2.552"/><feComposite in2="hardAlpha" operator="out"/><feColorMatrix values="0 0 0 0 0 0 0 0 0 0 0 0 0 0 0 0 0 0 0.25 0"/><feBlend in2="BackgroundImageFix" result="effect1_dropShadow_2952_418197"/><feBlend in="SourceGraphic" in2="effect1_dropShadow_2952_418197" result="shape"/></filter></defs></svg>