<svg width="534" height="232" fill="none" xmlns="http://www.w3.org/2000/svg"><rect x="270.325" y="4" width="203.112" height="203.112" rx="10.833" transform="rotate(3.762 270.325 4)" fill="#fff"/><rect x="289.258" y="25.599" width="162.489" height="56.871" rx="5.416" transform="rotate(3.762 289.258 25.6)" fill="#F3F3F3"/><circle cx="368.466" cy="59.303" r="16.249" transform="rotate(3.762 368.466 59.303)" fill="#fff"/><path d="M365.881 53.686l.172-2.614 4.884.32-.971 14.776-2.919-.192.8-12.16-1.966-.13z" fill="#03122B"/><path d="M386.319 49.893a7.448 7.448 0 11-14.863-.978 7.448 7.448 0 0114.863.978z" fill="#30D158" stroke="#fff" stroke-width="1.354"/><path d="M377.413 51.194l-1.46-1.666a.45.45 0 10-.676.593l1.758 2.007a.45.45 0 00.635.041l5.079-4.451a.45.45 0 10-.593-.677l-4.743 4.153z" fill="#fff"/><rect x="284.463" y="98.561" width="162.489" height="20.311" rx="5.416" transform="rotate(3.762 284.463 98.561)" fill="#F3F3F3"/><rect x="284.463" y="98.561" width="66.606" height="20.311" rx="5.416" transform="rotate(3.762 284.463 98.561)" fill="#9A9996"/><rect x="282.951" y="121.531" width="162.489" height="20.311" rx="5.416" transform="rotate(3.762 282.951 121.531)" fill="#F3F3F3"/><rect x="281.442" y="144.5" width="162.489" height="20.311" rx="5.416" transform="rotate(3.762 281.442 144.5)" fill="#F3F3F3"/><rect x="279.931" y="167.471" width="162.489" height="20.311" rx="5.416" transform="rotate(3.762 279.931 167.471)" fill="#F3F3F3"/><rect x="282.951" y="121.531" width="104.702" height="20.311" rx="5.416" transform="rotate(3.762 282.951 121.531)" fill="#E03AAD"/><rect x="281.442" y="144.5" width="82.599" height="20.311" rx="5.416" transform="rotate(3.762 281.442 144.5)" fill="#9A9996"/><rect x="279.931" y="167.471" width="62.288" height="20.311" rx="5.416" transform="rotate(3.762 279.931 167.471)" fill="#9A9996"/><g filter="url(#filter0_d_5151_15629)"><rect x="61" y="21.332" width="199.422" height="199.422" rx="10.636" transform="rotate(-4.986 61 21.332)" fill="#fff"/><rect x="82.597" y="39.467" width="159.538" height="55.838" rx="5.318" transform="rotate(-4.986 82.597 39.467)" fill="#F3F3F3"/><circle cx="164.492" cy="60.347" r="15.954" transform="rotate(-4.986 164.492 60.347)" fill="#E03AAD"/><g clip-path="url(#clip0_5151_15629)"><path fill-rule="evenodd" clip-rule="evenodd" d="M166.529 52.733l.111 1.27.002-.002a7.517 7.517 0 01.2 15.032.692.692 0 01-.719-.656.684.684 0 01.648-.708h.015c.132-.006.247-.01.361-.02a6.154 6.154 0 10-1.066-12.261h-.011a6.13 6.13 0 00-5.466 4.785.683.683 0 01-1.333-.295 7.515 7.515 0 011.057-2.493l-1.003-.842a.684.684 0 11.88-1.047l.972.817a7.493 7.493 0 014.102-2.192l-.11-1.27-.644.057a.684.684 0 01-.119-1.361l2.648-.231a.683.683 0 01.119 1.361l-.644.056zm.604 9.228l2.5-2.974a.684.684 0 00-1.047-.878l-2.498 2.971a.684.684 0 101.046.879l-.001.002zm-2.911.437a.683.683 0 01-.621.74l-7.729.675a.683.683 0 11-.119-1.362l7.729-.674a.683.683 0 01.74.621zm-.503 2.102l-5.686.496a.684.684 0 00.119 1.361l5.686-.496a.683.683 0 10-.119-1.361zm-3.406 3.04l3.644-.318a.683.683 0 01.119 1.362l-3.645.318a.683.683 0 11-.118-1.362z" fill="#fff"/></g><rect x="88.838" y="110.987" width="159.538" height="19.942" rx="5.318" transform="rotate(-4.986 88.838 110.987)" fill="#F3F3F3"/><rect x="88.838" y="110.987" width="114.335" height="19.942" rx="5.318" transform="rotate(-4.986 88.838 110.987)" fill="#E03AAD"/><rect x="90.803" y="133.502" width="159.538" height="19.942" rx="5.318" transform="rotate(-4.986 90.803 133.502)" fill="#F3F3F3"/><rect x="92.767" y="156.018" width="159.538" height="19.942" rx="5.318" transform="rotate(-4.986 92.767 156.018)" fill="#F3F3F3"/><rect x="94.731" y="178.534" width="159.538" height="19.942" rx="5.318" transform="rotate(-4.986 94.73 178.534)" fill="#F3F3F3"/><rect x="90.803" y="133.502" width="35.896" height="19.942" rx="5.318" transform="rotate(-4.986 90.803 133.502)" fill="#9A9996"/><rect x="92.767" y="156.018" width="81.098" height="19.942" rx="5.318" transform="rotate(-4.986 92.767 156.018)" fill="#9A9996"/><rect x="94.731" y="178.534" width="61.156" height="19.942" rx="5.318" transform="rotate(-4.986 94.73 178.534)" fill="#9A9996"/><g clip-path="url(#clip1_5151_15629)" fill="#F09316" stroke="#F09316" stroke-width="1.329"><path d="M232.174 99.74l14.085 3.936 7.598-12.371-7.297 1.412-1.977-10.215-6.986 7.71-5.508-4.99.085 14.519z" stroke-linecap="round" stroke-linejoin="round"/><path d="M232.088 85.223a1.994 1.994 0 101.073-3.84 1.994 1.994 0 00-1.073 3.84zm12.492-2.721a1.994 1.994 0 101.074-3.84 1.994 1.994 0 00-1.074 3.84zm9.274 8.803a1.994 1.994 0 101.074-3.84 1.994 1.994 0 00-1.074 3.84z"/></g></g><defs><clipPath id="clip0_5151_15629"><path fill="#fff" transform="rotate(-4.986 670.115 -1744.108)" d="M0 0h19.145v19.145H0z"/></clipPath><clipPath id="clip1_5151_15629"><path fill="#fff" transform="rotate(15.611 -141.567 879.162)" d="M0 0h31.907v31.907H0z"/></clipPath><filter id="filter0_d_5151_15629" x="53" y="0" width="232" height="232" filterUnits="userSpaceOnUse" color-interpolation-filters="sRGB"><feFlood flood-opacity="0" result="BackgroundImageFix"/><feColorMatrix in="SourceAlpha" values="0 0 0 0 0 0 0 0 0 0 0 0 0 0 0 0 0 0 127 0" result="hardAlpha"/><feOffset dy="4"/><feGaussianBlur stdDeviation="4"/><feComposite in2="hardAlpha" operator="out"/><feColorMatrix values="0 0 0 0 0 0 0 0 0 0 0 0 0 0 0 0 0 0 0.25 0"/><feBlend in2="BackgroundImageFix" result="effect1_dropShadow_5151_15629"/><feBlend in="SourceGraphic" in2="effect1_dropShadow_5151_15629" result="shape"/></filter></defs></svg>